<svg xmlns="http://www.w3.org/2000/svg" xmlns:xlink="http://www.w3.org/1999/xlink" viewBox="0 0 52.52 67.38">
  <g id="arrows">
    <path d="M26.22,17.13c1.65-1.7,3.2-3.35,4.8-4.95Q36.09,7.09,41.2,2.05A6.33,6.33,0,0,1,47.78.3a6.21,6.21,0,0,1,4.59,5,6,6,0,0,1-1.63,5.73Q39.33,22.54,27.84,34c-1.08,1.09-2.45,1-3.62-.19L10,19.46c-2.68-2.68-5.37-5.35-8-8.07a6.55,6.55,0,0,1,3-11,6.38,6.38,0,0,1,6.36,1.87C14,4.82,16.53,7.42,19.12,10c2.31,2.31,4.62,4.62,7.1,7.12" transform="translate(0 0)"/>
    <path d="M26.13,49.75c.23-.22.43-.39.62-.58q7-7,14-14a6.34,6.34,0,0,1,6.66-1.74,6.22,6.22,0,0,1,4.56,5.13,6.11,6.11,0,0,1-1.69,5.64Q39.07,55.45,27.86,66.61a2.38,2.38,0,0,1-3.63-.15l-15-15C6.74,49,4.23,46.54,1.82,44A6.54,6.54,0,0,1,4.47,33.29,6.39,6.39,0,0,1,11.38,35c3,3,6.07,6.06,9.1,9.1l5.08,5.07c.17.18.36.34.57.54" transform="translate(0 0)"/>
  </g>
</svg>
