<svg xmlns="http://www.w3.org/2000/svg" viewBox="0 0 22.3 22.3">
  <g id="instagram_outline">
    <path d="M11.24,16.77a5.62,5.62,0,1,1,5.62-5.62A5.62,5.62,0,0,1,11.24,16.77ZM11.24,6a5.12,5.12,0,1,0,5.12,5.12A5.13,5.13,0,0,0,11.24,6Zm0,8.81a3.69,3.69,0,1,1,3.69-3.69A3.69,3.69,0,0,1,11.24,14.84Zm0-6.88a3.19,3.19,0,1,0,3.19,3.19A3.19,3.19,0,0,0,11.24,8Z"/>
    <path d="M15.5,22.3H6.8A6.81,6.81,0,0,1,0,15.5V6.8A6.81,6.81,0,0,1,6.8,0h8.7a6.81,6.81,0,0,1,6.8,6.8v8.7A6.81,6.81,0,0,1,15.5,22.3ZM6.8.5A6.31,6.31,0,0,0,.5,6.8v8.7a6.31,6.31,0,0,0,6.3,6.3h8.7a6.3,6.3,0,0,0,6.3-6.3V6.8A6.31,6.31,0,0,0,15.5.5Zm8.7,19.75H6.8A4.75,4.75,0,0,1,2.05,15.5V6.8A4.75,4.75,0,0,1,6.8,2.05h8.7A4.75,4.75,0,0,1,20.25,6.8v8.7A4.75,4.75,0,0,1,15.5,20.25ZM6.8,2.55A4.26,4.26,0,0,0,2.55,6.8v8.7A4.25,4.25,0,0,0,6.8,19.75h8.7a4.25,4.25,0,0,0,4.25-4.25V6.8A4.25,4.25,0,0,0,15.5,2.55Z"/>
  </g>
</svg>
