<svg xmlns="http://www.w3.org/2000/svg" viewBox="0 0 633.81 604.52">
<g id="financial">
  <path d="M630.94,141.31,343.76,6a62.82,62.82,0,0,0-53.71,0L2.87,141.31a5,5,0,0,0,4.26,9.05L294.32,15.08a52.77,52.77,0,0,1,45.17,0L626.68,150.36a5,5,0,0,0,4.26-9.05Z"/>
  <path d="M273.08,594.52H50.27a27.42,27.42,0,0,1-27.38-27.39v-344a5,5,0,0,0-10,0v344a37.43,37.43,0,0,0,37.38,37.39H273.08a5,5,0,0,0,0-10Z"/>
  <path d="M615.92,218.17a5,5,0,0,0-5,5v344a27.42,27.42,0,0,1-27.38,27.39H360.73a5,5,0,0,0,0,10H583.54a37.43,37.43,0,0,0,37.38-37.39v-344A5,5,0,0,0,615.92,218.17Z"/>
  <path d="M508.3,537.82a5,5,0,0,0,5-5V252.17a41.46,41.46,0,0,0-41.41-41.41h-310a41.46,41.46,0,0,0-41.41,41.41V532.82a5,5,0,1,0,10,0V252.17a31.44,31.44,0,0,1,31.41-31.41h310a31.44,31.44,0,0,1,31.41,31.41V532.82A5,5,0,0,0,508.3,537.82Z"/>
  <path d="M356.53,479.22a59.32,59.32,0,0,0,16-12.18,53.35,53.35,0,0,0,10.3-16.5,52.65,52.65,0,0,0,3.5-20.3,49.73,49.73,0,0,0-4.56-20.93,53,53,0,0,0-10.95-15.15A68,68,0,0,0,356,383.43a171.65,171.65,0,0,0-16.29-7.71c-5.4-2.21-10.72-4.33-15.82-6.29a113.82,113.82,0,0,1-13.12-6,31.73,31.73,0,0,1-8.48-6.36,9.47,9.47,0,0,1-2.53-6.57,13.14,13.14,0,0,1,1.29-6.24,11.92,11.92,0,0,1,3.93-4.53,22.21,22.21,0,0,1,7.19-3.17,43.79,43.79,0,0,1,10.42-1.32,65.52,65.52,0,0,1,19,2.4,98.55,98.55,0,0,1,18.66,7.48,5,5,0,0,0,7.12-3l7.88-27.31a5,5,0,0,0-2.37-5.75,101,101,0,0,0-19.25-8.22,90.27,90.27,0,0,0-17-3.49L336,264.56a5,5,0,0,0-1.53-3.51,4.94,4.94,0,0,0-3.56-1.4l-28.22.49a5,5,0,0,0-4.91,5.09l.6,34.55a77.21,77.21,0,0,0-15.67,6,54.08,54.08,0,0,0-15.4,11.7,49.78,49.78,0,0,0-9.74,16.11,53.77,53.77,0,0,0-3.2,19.88A48.19,48.19,0,0,0,258.83,374a51.82,51.82,0,0,0,10.9,14.91,67.45,67.45,0,0,0,14.86,10.6c5.29,2.81,10.76,5.37,16.26,7.63s10.8,4.37,15.86,6.35a99.67,99.67,0,0,1,13.05,6.11,31.39,31.39,0,0,1,8.42,6.68,10.89,10.89,0,0,1,2.63,7.21,14.79,14.79,0,0,1-1.35,6.84,13.13,13.13,0,0,1-4.2,4.91,23.11,23.11,0,0,1-7.72,3.41A50.7,50.7,0,0,1,315.91,450a78.12,78.12,0,0,1-22-2.81,79.59,79.59,0,0,1-20.63-9,5,5,0,0,0-7.46,3l-7.22,27.67a5,5,0,0,0,2.17,5.5,90.69,90.69,0,0,0,21.05,9.67A101.29,101.29,0,0,0,302,488.13l.57,32.61a5,5,0,0,0,5,4.91h.09l28.21-.49a5,5,0,0,0,4.92-5.09l-.6-34.53A77.08,77.08,0,0,0,356.53,479.22Zm-22.42-2.5a5,5,0,0,0-3.95,5l.58,33.55-18.22.32L312,483.43a5,5,0,0,0-4.68-4.91,94,94,0,0,1-22.41-4,82,82,0,0,1-15.61-6.73l4.64-17.75a88.63,88.63,0,0,0,17.4,6.81A87.3,87.3,0,0,0,316.09,460a60.17,60.17,0,0,0,14-1.73,32.94,32.94,0,0,0,11.09-5,23.17,23.17,0,0,0,7.31-8.62,24.67,24.67,0,0,0,2.37-11.4,20.81,20.81,0,0,0-5-13.55,41.51,41.51,0,0,0-11.07-8.87,109.32,109.32,0,0,0-14.35-6.72c-5-2-10.3-4.08-15.71-6.3-5.19-2.12-10.36-4.55-15.37-7.2a57.73,57.73,0,0,1-12.67-9,41.69,41.69,0,0,1-8.78-12,38.16,38.16,0,0,1-3.47-16.27,43.9,43.9,0,0,1,2.57-16.22,39.57,39.57,0,0,1,7.79-12.89,44.41,44.41,0,0,1,12.59-9.54,69.44,69.44,0,0,1,17.2-6.09,5,5,0,0,0,3.93-5l-.59-33.56,18.23-.31.56,32.27a5,5,0,0,0,4.67,4.9,83.67,83.67,0,0,1,19.3,3.47,91.52,91.52,0,0,1,13.84,5.56l-5.1,17.68a103.54,103.54,0,0,0-15.11-5.57,75.62,75.62,0,0,0-21.87-2.78,54.28,54.28,0,0,0-12.79,1.65,32.08,32.08,0,0,0-10.42,4.68,22.14,22.14,0,0,0-7.11,8.23,23.29,23.29,0,0,0-2.33,10.87,19.44,19.44,0,0,0,5.13,13.13A41.44,41.44,0,0,0,306,372.25a122.34,122.34,0,0,0,14.28,6.51c5,1.94,10.29,4,15.63,6.22a158.8,158.8,0,0,1,15.33,7.25,58.43,58.43,0,0,1,12.68,9.15,43.25,43.25,0,0,1,8.88,12.3,40,40,0,0,1,3.55,16.73,42.49,42.49,0,0,1-2.8,16.45,43.47,43.47,0,0,1-8.37,13.42,49.36,49.36,0,0,1-13.3,10.11A68.08,68.08,0,0,1,334.11,476.72Z"/>
</g>
</svg>
