<svg xmlns="http://www.w3.org/2000/svg" viewBox="0 0 34 23">
  <g id="menu_burguer">
  <path d="M0,2.5a2.45,2.45,0,0,1,.19-1A2.73,2.73,0,0,1,.73.73,2.73,2.73,0,0,1,1.54.19,2.45,2.45,0,0,1,2.5,0h29a2.45,2.45,0,0,1,1,.19,2.73,2.73,0,0,1,.81.54,2.73,2.73,0,0,1,.54.81,2.45,2.45,0,0,1,.19,1,2.45,2.45,0,0,1-.19,1,2.73,2.73,0,0,1-.54.81,2.73,2.73,0,0,1-.81.54,2.45,2.45,0,0,1-1,.19H2.5a2.45,2.45,0,0,1-1-.19,2.73,2.73,0,0,1-.81-.54,2.73,2.73,0,0,1-.54-.81A2.45,2.45,0,0,1,0,2.5Z"/>
  <path d="M8,11.5a2.45,2.45,0,0,1,.19-1A2.48,2.48,0,0,1,9.54,9.19a2.45,2.45,0,0,1,1-.19h21a2.45,2.45,0,0,1,1,.19,2.48,2.48,0,0,1,1.35,1.35,2.52,2.52,0,0,1,0,1.92,2.48,2.48,0,0,1-1.35,1.35,2.45,2.45,0,0,1-1,.19h-21a2.45,2.45,0,0,1-1-.19,2.48,2.48,0,0,1-1.35-1.35A2.45,2.45,0,0,1,8,11.5Z"/>
  <path d="M21,20.5a2.45,2.45,0,0,1,.19-1,2.48,2.48,0,0,1,1.35-1.35,2.45,2.45,0,0,1,1-.19h8a2.45,2.45,0,0,1,1,.19,2.48,2.48,0,0,1,1.35,1.35,2.52,2.52,0,0,1,0,1.92,2.48,2.48,0,0,1-1.35,1.35,2.45,2.45,0,0,1-1,.19h-8a2.45,2.45,0,0,1-1-.19,2.48,2.48,0,0,1-1.35-1.35A2.45,2.45,0,0,1,21,20.5Z"/>
  </g>
</svg>
