<svg xmlns="http://www.w3.org/2000/svg" xmlns:xlink="http://www.w3.org/1999/xlink" viewBox="0 0 103 106">
  <g id="icon_xml">
    <path class="cls-5" d="M258.84,1372.21a10.35,10.35,0,0,1-9.16,4.92H188.61a11.25,11.25,0,0,1-5.65-1.25,10.43,10.43,0,0,1-5.37-7.23,12.84,12.84,0,0,1-.2-2.48q0-16.65,0-33.31v-.48H230.8a2.31,2.31,0,0,0,2.58-2.57q0-16.86,0-33.72a2.28,2.28,0,0,0-1.23-2.35,2.9,2.9,0,0,0-1.2-.25H177.39c0-.21,0-.39,0-.56a31.9,31.9,0,0,1,.25-4.8,10.2,10.2,0,0,1,6.51-7.76,11.71,11.71,0,0,1,4.57-.71H236.9v.48c0,4.77-.05,9.53,0,14.29a8.55,8.55,0,0,0,7,8.53,12.81,12.81,0,0,0,2.31.21c4.43,0,8.86,0,13.29,0,1,0,1,0,1,1v26.66q0,17.45,0,34.88a11.5,11.5,0,0,1-1.69,6.53m-91.9-44.09c-.94,0-.94,0-.94-.92q0-14.35,0-28.73v-.72h63.09v30.37H166.94M173,1341l-5.31-8.59h5.06c.3,0,.32.16.32.4,0,2.71,0,5.42-.07,8.19m68.19-58.08a1,1,0,0,1,0-.11l16.12,16.09H245.68a4.33,4.33,0,0,1-3.77-1.89,3.57,3.57,0,0,1-.67-2.06c0-4,0-8,0-12m23.52,51.43V1302c0-.31,0-.61,0-.92a2.4,2.4,0,0,0-.68-1.56c-.71-.72-1.42-1.44-2.14-2.15q-10.44-10.42-20.88-20.86a3.53,3.53,0,0,0-2.62-1.14q-24.92,0-49.83,0a17.91,17.91,0,0,0-3.26.31,14.64,14.64,0,0,0-8.47,4.82,14,14,0,0,0-3.46,7.28,47,47,0,0,0-.26,5c0,.75,0,.64-.65.64H164a2.06,2.06,0,0,0-2,1.33,4,4,0,0,0-.22,1.46q0,16.65,0,33.3a3.71,3.71,0,0,0,.55,2l5,8.16q2.81,4.54,5.6,9.08a1.22,1.22,0,0,1,.17.58c0,5.49,0,11,0,16.45a15.59,15.59,0,0,0,1,5.82,14.8,14.8,0,0,0,11.72,9.51,20.69,20.69,0,0,0,3.7.13h38.62c7,0,14.05,0,21.07,0a16,16,0,0,0,5.71-.9,14.67,14.67,0,0,0,7.36-5.83,15.59,15.59,0,0,0,2.49-8.89q0-15.71,0-31.4" transform="translate(-161.76 -1275.36)"/>
    <path class="cls-5" d="M247.88,1364.93a7.86,7.86,0,0,0-.83,0H196.43c-.69,0-1.39,0-2.08,0a3.45,3.45,0,0,0-1.39.32,1.87,1.87,0,0,0-1,2,1.84,1.84,0,0,0,1.33,1.73,7.42,7.42,0,0,0,2,.24q12.72,0,25.43,0H247a6,6,0,0,0,.95-.06,2.28,2.28,0,0,0,1.91-2.11,2.21,2.21,0,0,0-2-2" transform="translate(-161.76 -1275.36)"/>
    <path class="cls-5" d="M194.44,1344.59h53.37a2.15,2.15,0,0,0,1.9-1.52,2,2,0,0,0-.64-2.18,2.4,2.4,0,0,0-1.82-.54H195.63c-.58,0-1.17,0-1.75,0a1.88,1.88,0,0,0-1.78,1.33,2,2,0,0,0,.5,2.29,2.43,2.43,0,0,0,1.84.61" transform="translate(-161.76 -1275.36)"/>
    <path class="cls-5" d="M247.65,1352.58c-.72,0-1.44,0-2.17,0H195.12a9.45,9.45,0,0,0-1.41.07,2,2,0,0,0-1.64,1.42,2,2,0,0,0,.59,2.19,2.67,2.67,0,0,0,1.91.54h51.7a10,10,0,0,0,1.45,0,3.26,3.26,0,0,0,1.24-.42,2,2,0,0,0,.79-2.2,2.19,2.19,0,0,0-2.1-1.59" transform="translate(-161.76 -1275.36)"/>
    <path class="cls-5" d="M179.78,1311.13l2.9-5.9h4.9l-5,8.81,5.1,9h-4.94l-3-6-3,6h-4.93l5.09-9-5-8.81h4.88Z" transform="translate(-161.76 -1275.36)"/>
    <path class="cls-5" d="M194.73,1305.23l4,12.36,4-12.36h5.64V1323H204v-4.15l.41-8.5-4.3,12.65h-2.83L193,1310.34l.42,8.51V1323H189.1v-17.77Z" transform="translate(-161.76 -1275.36)"/>
    <path class="cls-5" d="M215.3,1319.7h7.46v3.3H211v-17.77h4.28Z" transform="translate(-161.76 -1275.36)"/>
  </g>
</svg>
