<svg xmlns="http://www.w3.org/2000/svg" xmlns:xlink="http://www.w3.org/1999/xlink" viewBox="0 0 24 40">
  <g id="microphone">
    <path d="M24,38.63H12.67V33.1A12.12,12.12,0,0,0,24,20.91H22.62A10.75,10.75,0,0,1,12,31.76,10.75,10.75,0,0,1,1.38,20.91H0A12.12,12.12,0,0,0,11.33,33.1v5.53H0V40H24Z"/>
    <path d="M6.14,7.37a5.94,5.94,0,0,1,5.86-6,5.94,5.94,0,0,1,5.86,6V21.22a5.94,5.94,0,0,1-5.86,6,5.94,5.94,0,0,1-5.86-6ZM12,28.58a7.3,7.3,0,0,0,7.21-7.36V7.37A7.3,7.3,0,0,0,12,0,7.29,7.29,0,0,0,4.8,7.37V21.22A7.29,7.29,0,0,0,12,28.58"/>
  </g>
</svg>
