<svg xmlns="http://www.w3.org/2000/svg" viewBox="0 0 20.65 20.7">
  <g id="whatsapp_outline">
    <path d="M0,20.7,1.53,15A10.16,10.16,0,0,1,10.47,0,10.18,10.18,0,1,1,5.73,19.17ZM10.47.5A9.67,9.67,0,0,0,2,14.85l.05.09L.71,20l5.08-1.36.09.05A9.67,9.67,0,1,0,10.47.5Zm0,18A8.25,8.25,0,0,1,6.24,17.3L6,17.15l-3.34.9.89-3.32-.15-.25a8.29,8.29,0,1,1,7.08,4ZM6.06,16.62l.43.25a7.83,7.83,0,1,0-2.67-2.65l.26.43-.72,2.69Z"/>
    <path d="M13,14.84a4.54,4.54,0,0,1-1.46-.31l-.16,0a8.19,8.19,0,0,1-1.75-.84A9.73,9.73,0,0,1,6.79,11a8.77,8.77,0,0,1-.65-1A5.31,5.31,0,0,1,5.51,8.6a3.08,3.08,0,0,1-.08-.68,2.74,2.74,0,0,1,1-2.18A1.38,1.38,0,0,1,7.9,5.53a2.48,2.48,0,0,1,.85,1.19l.08.17a2.33,2.33,0,0,1,.28,1.27,2.3,2.3,0,0,1-.57,1l-.07.07c-.1.12-.09.16,0,.24a6.28,6.28,0,0,0,3.1,2.66c.11,0,.13,0,.17,0a2.09,2.09,0,0,0,.2-.31,1.89,1.89,0,0,1,.74-.79,1.85,1.85,0,0,1,1.64.34l.19.11c.4.22.94.52,1,1a1.37,1.37,0,0,1-.1.83,2.62,2.62,0,0,1-2,1.49A2.77,2.77,0,0,1,13,14.84ZM7.33,5.89a1.09,1.09,0,0,0-.63.24,2.26,2.26,0,0,0-.77,1.78A2.25,2.25,0,0,0,6,8.49a4.72,4.72,0,0,0,.57,1.32c.2.33.4.64.62.94a9.59,9.59,0,0,0,2.66,2.47A7.89,7.89,0,0,0,11.5,14l.15.05a3.29,3.29,0,0,0,1.71.26A2.14,2.14,0,0,0,15,13.12a.91.91,0,0,0,.07-.53c-.06-.29-.47-.52-.8-.7l-.2-.12h0a1.47,1.47,0,0,0-1.2-.3c-.18.07-.35.35-.5.59l-.24.36a.61.61,0,0,1-.75.17A6.71,6.71,0,0,1,8,9.74a.64.64,0,0,1,.07-.83l.07-.08a1.89,1.89,0,0,0,.46-.75,1.82,1.82,0,0,0-.24-1l-.09-.19a2,2,0,0,0-.64-1A.61.61,0,0,0,7.33,5.89Z"/>
  </g>
</svg>
