<svg xmlns="http://www.w3.org/2000/svg" viewBox="0 0 776.66 603.18">
  <g id="culture">
  <path d="M678.3,0H98.36C44.12,0,0,41.13,0,91.68V304c0,50.55,44.12,91.68,98.36,91.68h27a5,5,0,0,0,0-10h-27C49.64,385.65,10,349,10,304V91.68C10,46.64,49.64,10,98.36,10H678.3c48.72,0,88.36,36.64,88.36,81.68V304c0,45-39.64,81.68-88.36,81.68H650.59a5,5,0,0,0,0,10H678.3c54.24,0,98.36-41.13,98.36-91.68V91.68C776.66,41.13,732.54,0,678.3,0Z"/>
  <path d="M493.88,411.24a64.87,64.87,0,1,0,64.87-64.87A64.94,64.94,0,0,0,493.88,411.24Zm64.87-54.87a54.87,54.87,0,1,1-54.87,54.87A54.93,54.93,0,0,1,558.75,356.37Z"/>
  <path d="M323.46,411.24a64.87,64.87,0,1,0,64.87-64.87A64.94,64.94,0,0,0,323.46,411.24Zm119.74,0a54.87,54.87,0,1,1-54.87-54.87A54.94,54.94,0,0,1,443.2,411.24Z"/>
  <path d="M153,411.24a64.87,64.87,0,1,0,64.87-64.87A64.94,64.94,0,0,0,153,411.24Zm119.74,0a54.87,54.87,0,1,1-54.87-54.87A54.93,54.93,0,0,1,272.78,411.24Z"/>
  <path d="M396.07,500.63a130.43,130.43,0,0,0-125.76,96.24,5,5,0,1,0,9.65,2.61,120.22,120.22,0,0,1,232.12,0,5,5,0,0,0,9.65-2.63C506.28,540.2,454.6,500.63,396.07,500.63Z"/>
  <path d="M279.88,513.61a5,5,0,0,0-3.16-6.32A130.22,130.22,0,0,0,109.9,596.87a5,5,0,1,0,9.65,2.61,120.24,120.24,0,0,1,154-82.71A5,5,0,0,0,279.88,513.61Z"/>
  <path d="M556.38,500.63a129.17,129.17,0,0,0-41.06,6.66,5,5,0,0,0,3.17,9.48,120.24,120.24,0,0,1,154,82.71,5,5,0,1,0,9.65-2.61A130.43,130.43,0,0,0,556.38,500.63Z"/>
  <path d="M473.54,217a64.87,64.87,0,1,0,64.87,64.87A64.94,64.94,0,0,0,473.54,217Zm0,119.74a54.87,54.87,0,1,1,54.87-54.87A54.94,54.94,0,0,1,473.54,336.73Z"/>
  <path d="M303.12,217A64.87,64.87,0,1,0,368,281.86,64.94,64.94,0,0,0,303.12,217Zm0,119.74A54.87,54.87,0,1,1,358,281.86,54.94,54.94,0,0,1,303.12,336.73Z"/>
  </g>
  </svg>
