<svg xmlns="http://www.w3.org/2000/svg" viewBox="0 0 717.7 610.78">
<g id="retirees">
  <path d="M704.57,73H653.42a8.13,8.13,0,0,1-8.12-8.12V13.12A13.14,13.14,0,0,0,632.17,0h-1.69a13.14,13.14,0,0,0-13.12,13.12V64.84A8.13,8.13,0,0,1,609.23,73H560.34a13.13,13.13,0,0,0,0,26.25h48.89a8.13,8.13,0,0,1,8.13,8.12v51.9a13.14,13.14,0,0,0,13.12,13.13h1.69a13.14,13.14,0,0,0,13.13-13.13v-51.9a8.13,8.13,0,0,1,8.12-8.12h51.15a13.13,13.13,0,1,0,0-26.25Zm0,21.25H653.42a13.14,13.14,0,0,0-13.12,13.12v51.9a8.14,8.14,0,0,1-8.13,8.13h-1.69a8.13,8.13,0,0,1-8.12-8.13v-51.9a13.14,13.14,0,0,0-13.13-13.12H560.34a8.13,8.13,0,0,1,0-16.25h48.89a13.14,13.14,0,0,0,13.13-13.12V13.12A8.13,8.13,0,0,1,630.48,5h1.69a8.13,8.13,0,0,1,8.13,8.12V64.84A13.14,13.14,0,0,0,653.42,78h51.15a8.13,8.13,0,1,1,0,16.25Z"/>
  <path d="M243,389.88a83.54,83.54,0,0,0-28.11-18.7,92.35,92.35,0,0,0-35.13-6.63,87.43,87.43,0,0,0-35,7.06,90.59,90.59,0,0,0-28.2,19.08,87.31,87.31,0,0,0-19,28.72,93.61,93.61,0,0,0-6.81,35.85,104.23,104.23,0,0,0,5.75,34.46,90.79,90.79,0,0,0,17.12,29.75,80.94,80.94,0,0,0,27.82,20.73c10.84,5,23.25,7.5,36.9,7.5a96.8,96.8,0,0,0,36.1-6.61,81.45,81.45,0,0,0,28.58-19,85,85,0,0,0,18.27-29.22,110.47,110.47,0,0,0,0-73.94A83,83,0,0,0,243,389.88Zm9,99.5a74.8,74.8,0,0,1-16.1,25.8,71.28,71.28,0,0,1-25.12,16.63,86.34,86.34,0,0,1-32.38,5.89q-18.36,0-32.74-6.59a70.8,70.8,0,0,1-24.42-18.18A80.56,80.56,0,0,1,106,486.43a94,94,0,0,1-5.19-31.17,83.17,83.17,0,0,1,6.06-32,77.07,77.07,0,0,1,16.8-25.46,80.23,80.23,0,0,1,25.11-17,77.17,77.17,0,0,1,31-6.23,82.07,82.07,0,0,1,31.35,5.89A71.34,71.34,0,0,1,252,422.52a100.55,100.55,0,0,1,0,66.86Z"/>
  <path d="M309.15,342.16q-19.92-19.21-48-29.79t-61.65-10.56a173.05,173.05,0,0,0-34.3,3.29,145.35,145.35,0,0,0-30.3,9.53,118.46,118.46,0,0,0-25.29,15.06A93.61,93.61,0,0,0,90.41,350v-2.08q2.41-43.65,12.29-75t26.15-51.44q16.28-20.08,38.28-29.62t48.67-9.52a175.12,175.12,0,0,1,51.78,7.62,208.29,208.29,0,0,1,20.88,7.68A26.7,26.7,0,0,0,299,199.79,27.3,27.3,0,0,0,325,180.73l5.55-17.44a32.4,32.4,0,0,0-17.92-39.52,238.42,238.42,0,0,0-31.49-11.09A252.3,252.3,0,0,0,213.72,104q-47.81,0-87.29,17.49a181.81,181.81,0,0,0-67.72,52Q30.48,207.94,15.24,259.2T0,377.32q0,63,13.51,107.38t37.41,72.39Q74.82,585.16,107.38,598t70.31,12.81q38.1,0,69.8-11.6t54.73-32.56a147.19,147.19,0,0,0,36-50.75q13-29.78,13-66.16,0-33.58-11.08-61A133.62,133.62,0,0,0,309.15,342.16Zm19.93,169.72a138.15,138.15,0,0,1-33.59,47.34c-14.33,13-31.64,23.32-51.44,30.57s-42.26,11-66.36,11c-23.79,0-46.21-4.08-66.65-12.12C91,580.77,73.32,568,58.53,550.61c-15-17.57-26.89-40.73-35.46-68.83C14.4,453.31,10,418.17,10,377.32c0-43.4,5-82.18,14.83-115.27,9.72-32.73,23.73-60.4,41.62-82.24a172.82,172.82,0,0,1,64-49.15c24.92-11,52.93-16.63,83.24-16.63a243.65,243.65,0,0,1,64.7,8.29,231.65,231.65,0,0,1,30.18,10.62A22.33,22.33,0,0,1,321,160.26l-5.55,17.45A17.42,17.42,0,0,1,299,189.79a16.57,16.57,0,0,1-6.6-1.37,219.22,219.22,0,0,0-21.89-8,186,186,0,0,0-54.72-8.06c-19.07,0-36.78,3.48-52.65,10.35-16.09,7-30.25,17.9-42.07,32.49-11.59,14.32-21,32.73-27.92,54.73-6.8,21.61-11.09,47.67-12.74,77.44,0,.19,0,.37,0,.56V350a10,10,0,0,0,18.2,5.71,84.42,84.42,0,0,1,17.19-18.11A110,110,0,0,1,139,323.76a136.28,136.28,0,0,1,28.22-8.86,164.11,164.11,0,0,1,32.32-3.09c21.07,0,40.63,3.34,58.13,9.92a129.1,129.1,0,0,1,44.55,27.63,124.31,124.31,0,0,1,28.68,43.14c6.87,17,10.35,36.23,10.35,57.21C341.23,472.47,337.14,493.38,329.08,511.88Z"/>
  <path d="M606.5,164.64q-25.12-30.81-59.23-45.72T473.66,104q-40.87,0-76,15.24-4.54,2-8.94,4.22a7.85,7.85,0,0,0-.55,13.72l.12.07,66.87,43.33a25.62,25.62,0,0,0,13.94,4.12h.09a74.53,74.53,0,0,1,36.19,9.35q17.14,9.36,30.14,30.14t20.78,53.86q7.8,33.09,7.8,80.54,0,46.41-7.62,79t-20.27,53.17q-12.64,20.63-29.44,29.79a71.7,71.7,0,0,1-34.81,9.18,76,76,0,0,1-36-9.18q-17.31-9.18-30.3-30.14l-.07-.11a4,4,0,0,0-3.45-1.94A4.08,4.08,0,0,0,398,492a155.29,155.29,0,0,1-11.71,44.06q-3.21,7.35-7,14.17a32.34,32.34,0,0,0,14.92,45.33l.36.15q34.13,15.07,73.61,15.07,41.2,0,76.38-15.41t60.79-46.94q25.62-31.51,40.35-79.66t14.72-114.31q0-64.77-14.37-111.88T606.5,164.64Zm29.58,301.2c-9.39,30.71-22.36,56.37-38.55,76.28-16,19.68-35.19,34.51-57,44.09-22.06,9.67-46.41,14.57-72.36,14.57-24.81,0-48.21-4.78-69.59-14.22l-.31-.14a21.84,21.84,0,0,1-12-13.25,22.5,22.5,0,0,1,1.7-18c2.7-4.82,5.21-9.88,7.47-15.06a161.52,161.52,0,0,0,10.16-32.38,83.32,83.32,0,0,0,25.64,21.7,86,86,0,0,0,40.71,10.35,81.85,81.85,0,0,0,39.6-10.4c12.7-6.94,23.86-18.16,33.18-33.34,8.94-14.59,16.17-33.47,21.47-56.12,5.23-22.36,7.89-49.7,7.89-81.25,0-32.26-2.72-60.13-8.06-82.83-5.43-23-12.84-42.15-22-56.87-9.54-15.26-20.92-26.57-33.83-33.62a84.78,84.78,0,0,0-41-10.57h-.09a15.64,15.64,0,0,1-8.5-2.51l-64-41.48c1.67-.8,3.36-1.57,5.05-2.3,22.07-9.56,46.31-14.41,72.05-14.41,24.81,0,48.23,4.73,69.6,14.05,21.17,9.25,39.83,23.67,55.48,42.88,15.84,19.45,28.52,44.52,37.68,74.54,9.25,30.32,13.94,67,13.94,109C650.36,397.36,645.55,434.83,636.08,465.84Z"/>
</g>
</svg>
