<svg xmlns="http://www.w3.org/2000/svg" xmlns:xlink="http://www.w3.org/1999/xlink" viewBox="0 0 169.85 100.4">
<g id="icon_sent">
  <path d="M0,29.64C1,27.53,2.83,27,5,27c9.68,0,19.35,0,29,0,3.22,0,4.79,1.66,4.43,4.56a3.24,3.24,0,0,1-2.79,3,11,11,0,0,1-2.14.23c-9.5,0-19,0-28.52,0C2.77,34.85.89,34.3,0,32Z" transform="translate(0 0)"/>
  <path d="M97.53,0q29.68,0,59.37,0c3.1,0,6,.44,8.56,2.45A11.15,11.15,0,0,1,169.8,11c.1,2.31,0,4.64,0,7q0,35.16,0,70.32c0,6.08-3.22,10.36-8.9,11.76a16.46,16.46,0,0,1-3.78.32H35.92c-3.06,0-4.39-.8-4.91-2.9a3.74,3.74,0,0,1,3.43-4.81c.61,0,1.22,0,1.83,0h120.4a13.61,13.61,0,0,0,2.62-.26,3,3,0,0,0,2.62-2.79,15.33,15.33,0,0,0,.19-2.14q0-37.23,0-74.46a18.84,18.84,0,0,0-.15-2A3.15,3.15,0,0,0,159.05,8a14.7,14.7,0,0,0-2.47-.2H35.69C32.86,7.74,31.59,7,31,5A3.69,3.69,0,0,1,34.35.1,19.23,19.23,0,0,1,36.5,0h61" transform="translate(0 0)"/>
  <path d="M31,54.13c-5,0-9.94,0-14.9,0-3,0-4.56-1.51-4.47-4.1.07-2.33,1.58-3.66,4.34-3.73,2.09,0,4.19,0,6.29,0,7.72,0,15.45,0,23.17,0,3.38,0,5,1.57,4.66,4.51a3.13,3.13,0,0,1-2.73,3.06,28.18,28.18,0,0,1-4.11.26c-4.09,0-8.17,0-12.25,0" transform="translate(0 0)"/>
  <path d="M42.41,73.4c-5,0-9.95,0-14.92,0-1.7,0-3.22-.46-3.95-2.18a4.07,4.07,0,0,1,.38-4.09,4.12,4.12,0,0,1,3.66-1.53q14.85,0,29.69,0c2.69,0,4.18,1.22,4.41,3.29.31,2.83-1.25,4.49-4.35,4.51-5,0-9.95,0-14.92,0" transform="translate(0 0)"/>
  <path d="M88.93,49.32c-.1,0-.23-.09-.25-.16-.3-1.19-1.27-1.86-2.07-2.66A5.32,5.32,0,0,1,85.13,44a6.15,6.15,0,0,1,.85-5,1.31,1.31,0,0,1,.42-.35,1,1,0,0,1,.29-.12,6.48,6.48,0,0,0,3.86-3.19,3.07,3.07,0,0,1,1.52-1.37,8.26,8.26,0,0,0,1-.51,4.64,4.64,0,0,1,3.47-.89c1.3.09,2.18.08,3,.23a7,7,0,0,1,3.25,1.52,1.65,1.65,0,0,1,.36.43c.64,1.09,1.28,2.18,1.87,3.28a1.52,1.52,0,0,1,.19.93,7,7,0,0,0,0,3.27,1,1,0,0,1-.06.56c-.22.74-.49,1.46-.7,2.2a.75.75,0,0,1-.91.6.85.85,0,0,0-.76.33c-.7.74-1.43,1.45-2.17,2.15a1,1,0,0,1-.5.19,7.88,7.88,0,0,0-1.2.1c-.24.06-.44.31-.64.49s-.37.45-.61.57a10.21,10.21,0,0,1-3.66.82l-.68,0A16.12,16.12,0,0,1,88.93,49.32Zm14.41,22.59c-.76-.15-1.51-.38-2.27-.53-.49-.09-1-.07-1.48-.12a2.63,2.63,0,0,1-.43-.1l-.44.53-.16,0a6,6,0,0,1,.07-.61c.14-.64,0-.87-.63-1h-.1a3.86,3.86,0,0,1-2.63-.85,1.29,1.29,0,0,0-.6-.11L93,68.87l1.22-1.78a6.75,6.75,0,0,0-.69.19c-.55.21-1.11.41-1.65.66a1.64,1.64,0,0,1-1.73-.21A7.08,7.08,0,0,1,87.55,65a3.4,3.4,0,0,0-1.49-1.57c-.63-.25-1.35-.78-2.18-.31-.51.29-1.34-.12-1.79-.79l.31-.21c-.08-.28-.15-.5-.2-.71s0-.67-.21-.82a2.46,2.46,0,0,1-.83-2.09l-2.26.61A21,21,0,0,0,78.2,57a5.74,5.74,0,0,0-2.44-2.24c-1-.64-2-1.18-3.05-1.75a2.42,2.42,0,0,0-.86-.34c-1.33-.15-1.86-1.19-2.48-2.14a2.42,2.42,0,0,1-.25-2,1.18,1.18,0,0,0-.2-.77c-.44-.78-.46-1.13,0-1.67A.93.93,0,0,1,70,45.7a7.47,7.47,0,0,1,2.79,1.39,8.18,8.18,0,0,0,3.14,1.62,3.17,3.17,0,0,1,1,.47,11.83,11.83,0,0,0,3.84,1.75,23.73,23.73,0,0,1,2.37,1,3.74,3.74,0,0,0,.86.36,3.58,3.58,0,0,1,2.81,2.08,8.07,8.07,0,0,0,2.5,3.2,4.51,4.51,0,0,0,2.62.93,6.54,6.54,0,0,1,1.4.17,1,1,0,0,1,.55.38,1.32,1.32,0,0,0,1.21.58.89.89,0,0,1,.84,1.19c-.08.28-.23.55-.3.83-.18.68.19,1.07.88.92a4.63,4.63,0,0,0,.8-.25c.65-.25.67-.25,1.37.09L98,64A4.11,4.11,0,0,1,99,64c1.25.37,2-.38,2.65-1.23a5,5,0,0,1,.9-.65,15.65,15.65,0,0,1,.54-5.85,13.07,13.07,0,0,1,2.82-5.5c.25-.29.46-.61.69-.93a2.5,2.5,0,0,0,.51-1.77c0-.3,0-.6,0-.9a2.08,2.08,0,0,1,1.08-2,2.69,2.69,0,0,0,1.53-2.34,3.13,3.13,0,0,1,1-2.08,10.89,10.89,0,0,0,1.7-2.37,10.67,10.67,0,0,1,1.47-1.63,3.8,3.8,0,0,0,.47-.71c.48-1,.9-2,1.44-2.89a3.09,3.09,0,0,1,2.38-1.56.63.63,0,0,0,.62-.52,1,1,0,0,1,1-.76c1.18-.16,2.36-.32,3.53-.52.41-.07.8-.25,1.21-.35a1.27,1.27,0,0,1,.67,0,3.84,3.84,0,0,0,1.65.29c.23,0,.56.43.7.73s.36.46.68.35a3.07,3.07,0,0,1,2.29,0,1.13,1.13,0,0,0,1-.19,2.32,2.32,0,0,1,2.16-.22,8.18,8.18,0,0,0,3.22.6,6.58,6.58,0,0,0,1.69-.25,11.57,11.57,0,0,1,2.62-.66,4.11,4.11,0,0,0,2.17-.83,3.63,3.63,0,0,1,2.61-.48,3.16,3.16,0,0,0,1.42-.17c.84-.27,1.65-.63,2.47-.94h.52l1.1.2a.93.93,0,0,1,.76.72.84.84,0,0,1-.25.94,9.92,9.92,0,0,1-3.89,2.23,9.93,9.93,0,0,0-3.48,2,10.49,10.49,0,0,1-2.38,1.29,15.53,15.53,0,0,0-3.82,2.47A17.49,17.49,0,0,1,137,38.67a13,13,0,0,1-2,1.28,3.86,3.86,0,0,0-1.39,1.22,3.71,3.71,0,0,1-3,1.29,24.94,24.94,0,0,1-3.34-.13,2.66,2.66,0,0,0-1.93.49c-.83.63-1.8,1.12-2,2.29,0,.06-.16.1-.25.13a1.55,1.55,0,0,0-1.26,1.56.31.31,0,0,1,0,.2c-.57.46-.79,1.31-1.57,1.5a24.17,24.17,0,0,1-2.67.51,6.51,6.51,0,0,0-3.18,1.47c-.08.07-.13.19-.21.23a3,3,0,0,0-1.45,2.44,16.59,16.59,0,0,0-.57,6.19,4.24,4.24,0,0,1,.05.94,4,4,0,0,0,.94,3c.56.64.32,1-.51,1.2a26,26,0,0,0-2.78,1.06c-.15.07-.25.28-.38.43l-.82.91c.59.59.29,1.19-.09,1.8a6.25,6.25,0,0,1-2.62,2.12c-.59.31-1.12.73-1.71,1a1.19,1.19,0,0,1-.54.11Z" transform="translate(0 0)"/>
</g>
</svg>
