<svg xmlns="http://www.w3.org/2000/svg" viewBox="0 0 582.96 604.74">
<g id="health">
  <path d="M150.21,121.71a4.89,4.89,0,0,0,2.44-.64,5,5,0,0,0,1.92-6.8A70.05,70.05,0,0,1,252.1,20.2a5,5,0,0,0,5.21-8.53A80.07,80.07,0,0,0,145.85,119.16,5,5,0,0,0,150.21,121.71Z"/>
  <path d="M439.57,381.77a5,5,0,0,0-5,5v175.7a32.28,32.28,0,0,1-64.55,0V384.21a5,5,0,0,0-10,0V562.47a32.28,32.28,0,0,1-64.55,0V390.19a1,1,0,0,0,0-.17A9.24,9.24,0,0,0,277,390c0,.06,0,.11,0,.17V562.47a32.28,32.28,0,0,1-64.55,0V409a5,5,0,0,0-10,0V562.47a32.28,32.28,0,0,1-64.55,0v-125a5,5,0,1,0-10,0v125a42.27,42.27,0,0,0,79.55,19.92,42.26,42.26,0,0,0,78.8-12,42.26,42.26,0,0,0,78.8,12,42.27,42.27,0,0,0,79.55-19.92V386.77A5,5,0,0,0,439.57,381.77Z"/>
  <path d="M127.87,353.46a5,5,0,0,0,10,0V269.2a13,13,0,0,0-22.24-9.15L52,323.44a24.59,24.59,0,0,1-34.78-34.78L98.5,207.35a5,5,0,0,0-7.07-7.07L10.12,281.59A34.6,34.6,0,0,0,59,330.52l63.69-63.42a3,3,0,0,1,5.14,2.1Z"/>
  <path d="M571.08,284.15,427.71,144.09a51.16,51.16,0,0,0-35.92-14.63H131.89a41.74,41.74,0,0,0-29.62,12.48,39.83,39.83,0,0,0-11.59,28.82,40.71,40.71,0,0,0,40.51,39.72H249.25a17,17,0,0,1,17,17v107a89.29,89.29,0,0,0,9.52,40l1.77,3.51a5,5,0,1,0,8.93-4.5l-1.77-3.52a79.15,79.15,0,0,1-8.45-35.51v-107a27,27,0,0,0-27-27H131.19a30.66,30.66,0,0,1-30.51-29.91,29.91,29.91,0,0,1,8.72-21.63,31.74,31.74,0,0,1,22.49-9.48h259.9a41.19,41.19,0,0,1,28.93,11.79l143.33,140a30.51,30.51,0,0,1-43.15,43.15l-57.65-57.64a5,5,0,0,0-7.07,0l-.07.08a5,5,0,0,0-1.55,3.61v65.05a39.51,39.51,0,0,1-10.44,26.79,5,5,0,0,0,.3,7.06,5,5,0,0,0,7.06-.29,49.46,49.46,0,0,0,13.08-33.56V292.22l49.27,49.26a40.51,40.51,0,1,0,57.25-57.33Z"/>
  <path d="M267.79,120.69a5,5,0,0,0,8.61-5.09,70.08,70.08,0,1,1,120.64,0,5,5,0,0,0,1.77,6.85,5,5,0,0,0,6.84-1.76,80.07,80.07,0,1,0-137.86,0Z"/>
</g>
</svg>
