<svg xmlns="http://www.w3.org/2000/svg" xmlns:xlink="http://www.w3.org/1999/xlink" viewBox="0 0 40.23 43.22">
  <path id="clips" d="M11.38,43.11H11c-3-.16-6.25-2.21-8.81-5.49a8,8,0,0,1,0-11.29l24.87-25A4.74,4.74,0,0,1,30.48-.11h0A4.72,4.72,0,0,1,33.86,1.3c.45.51,1,1.08,1.7,1.68,2,1.89,4.54,4.25,4.55,6.82a4.24,4.24,0,0,1-1.45,3.14L17.53,34.2a4.77,4.77,0,0,1-6.77,0c-.94-.75-3.3-2.92-3.42-5.48a4.26,4.26,0,0,1,1.41-3.35l16.86-17a.8.8,0,0,1,1.16,0,.81.81,0,0,1,0,1.16l-16.87,17A2.66,2.66,0,0,0,9,28.64C9.05,30,10.13,31.58,11.86,33a3.17,3.17,0,0,0,4.5.06L37.5,11.77a2.65,2.65,0,0,0,1-2c0-1.86-2.24-3.95-4-5.63a24.89,24.89,0,0,1-1.78-1.76,3.09,3.09,0,0,0-2.17-.88h0a3.12,3.12,0,0,0-2.22.92l-24.87,25a6.38,6.38,0,0,0,0,9l.06.08c1.76,2.26,4.68,4.73,7.63,4.89A5.45,5.45,0,0,0,15.4,39.6L36,18.82A.83.83,0,0,1,37.21,20L16.58,40.76A7.05,7.05,0,0,1,11.38,43.11Z" transform="translate(0.11 0.11)"/>
</svg>
