<svg xmlns="http://www.w3.org/2000/svg" viewBox="0 0 12.56 12.59"><defs><style>.cls-1,.cls-2{fill:#fff;}.cls-2{fill-rule:evenodd;}</style></defs><g id="Layer_2" data-name="Layer 2"><g id="Layer_1-2" data-name="Layer 1"><path class="cls-1" d="M3.55,10.42l.22.13a5,5,0,0,0,2.57.71,5,5,0,1,0-5-5A5,5,0,0,0,2,8.84l.13.21-.51,1.88ZM0,12.59.9,9.22a6.23,6.23,0,1,1,2.49,2.47Z"/><path class="cls-2" d="M8.66,7.09a1,1,0,0,0-.89-.2c-.24.09-.38.45-.53.64A.23.23,0,0,1,7,7.59a4,4,0,0,1-2-1.73.24.24,0,0,1,0-.33,1.42,1.42,0,0,0,.36-.6,1.25,1.25,0,0,0-.16-.7,1.68,1.68,0,0,0-.52-.78.71.71,0,0,0-.77.11,1.56,1.56,0,0,0-.54,1.25,1.72,1.72,0,0,0,0,.39,3.38,3.38,0,0,0,.38.87,6.25,6.25,0,0,0,.4.6A6,6,0,0,0,5.87,8.26a5,5,0,0,0,1.07.51A2.29,2.29,0,0,0,8.18,9a1.52,1.52,0,0,0,1.13-.83.8.8,0,0,0,0-.43C9.29,7.4,8.9,7.23,8.66,7.09Z"/></g></g></svg>