<svg xmlns="http://www.w3.org/2000/svg" viewBox="0 0 14.12 11.62"><defs><style>.cls-1{fill:#fff;}</style></defs><g id="Layer_2" data-name="Layer 2"><g id="Layer_1-2" data-name="Layer 1"><path class="cls-1" d="M14.06,1.39a5.45,5.45,0,0,1-1.43.41c.23,0,.57-.45.7-.62a2.65,2.65,0,0,0,.48-.87s0,0,0-.07a.06.06,0,0,0-.07,0A7.84,7.84,0,0,1,12,.89a.11.11,0,0,1-.12,0c-.05,0-.1-.11-.15-.15A3,3,0,0,0,11,.21,2.86,2.86,0,0,0,9.69,0,3,3,0,0,0,8.5.34,3.07,3.07,0,0,0,7,2.28a3.13,3.13,0,0,0,0,1.22c0,.06,0,.07-.06.06A9,9,0,0,1,1.06.6C1,.53,1,.53.9.61a2.93,2.93,0,0,0,.5,3.48,3.73,3.73,0,0,0,.36.32A2.81,2.81,0,0,1,.64,4.09c-.07,0-.11,0-.11.06a1.32,1.32,0,0,0,0,.34A3,3,0,0,0,2.38,6.86,1.68,1.68,0,0,0,2.76,7a3.38,3.38,0,0,1-1.1,0c-.08,0-.11,0-.08.1A3.09,3.09,0,0,0,3.89,9.05l.31,0,0,0c-.25.4-1.16.69-1.57.84a5.63,5.63,0,0,1-2.4.31c-.13,0-.16,0-.19,0s0,.05,0,.08.33.21.5.3a7.72,7.72,0,0,0,1.61.64,8.53,8.53,0,0,0,8.29-1.94A8.7,8.7,0,0,0,12.74,3c0-.09.11-.14.17-.19A5.45,5.45,0,0,0,14,1.63a.34.34,0,0,0,.08-.23h0S14.12,1.37,14.06,1.39Z"/></g></g></svg>