<svg xmlns="http://www.w3.org/2000/svg" viewBox="0 0 26.99 22.31">
  <path id="twitter_outline" d="M9,22.31a17.85,17.85,0,0,1-4.77-.65,15.07,15.07,0,0,1-3.06-1.23c-.38-.2-.68-.38-1-.56A.45.45,0,0,1,0,19.52v-.13l.14-.11a.82.82,0,0,1,.53,0,10.33,10.33,0,0,0,4.38-.57l.13,0A9.26,9.26,0,0,0,7.63,17.5l-.13,0A6.06,6.06,0,0,1,3,13.68a.38.38,0,0,1,0-.4.41.41,0,0,1,.4-.12c.34,0,.62,0,.85,0A5.88,5.88,0,0,1,1,8.7,3.13,3.13,0,0,1,1,8a.39.39,0,0,1,.2-.35.38.38,0,0,1,.39,0,4.8,4.8,0,0,0,1.16.42l0,0C1.1,6.59.3,3.4,1.73,1.25A.46.46,0,0,1,2.06,1a.54.54,0,0,1,.36.2A16.7,16.7,0,0,0,13,6.66a5.82,5.82,0,0,1,.08-2.19A5.87,5.87,0,0,1,14.2,2.21,6,6,0,0,1,16.09.67,5.82,5.82,0,0,1,18.43,0a5.72,5.72,0,0,1,2.46.4,5.94,5.94,0,0,1,1.61,1,1.94,1.94,0,0,1,.28.29A13.36,13.36,0,0,0,25.89.49a.41.41,0,0,1,.36,0l.06,0a.34.34,0,0,1,.07.45,5,5,0,0,1-.91,1.67L25,3.15a9,9,0,0,0,1.52-.51l.17-.09.29.13v.18a.94.94,0,0,1-.19.6,10.4,10.4,0,0,1-2.17,2.25l-.08.06c-.05,0-.13.08-.14.11C24.41,11,22.94,15.07,20,18A15.57,15.57,0,0,1,9,22.31ZM1,19.78l.39.21a14.58,14.58,0,0,0,3,1.19A15.73,15.73,0,0,0,19.68,17.6c2.81-2.79,4.23-6.74,4.23-11.73a.65.65,0,0,1,.36-.51l.06-.05a9.75,9.75,0,0,0,2-2A11.81,11.81,0,0,1,24,3.87h0l-.09-.49h0c.16,0,.49-.23,1.17-1.08a5,5,0,0,0,.72-1.2,13.73,13.73,0,0,1-2.9,1.07A.46.46,0,0,1,22.44,2a3.15,3.15,0,0,0-.26-.26A5.53,5.53,0,0,0,20.71.87,5.22,5.22,0,0,0,18.46.51a5.38,5.38,0,0,0-2.14.61,5.48,5.48,0,0,0-1.73,1.41,5.27,5.27,0,0,0-1,2.06,5.42,5.42,0,0,0-.05,2.18.39.39,0,0,1-.08.34.32.32,0,0,1-.32.07C8.34,6.47,4.84,4.7,2.1,1.61a5.31,5.31,0,0,0,.95,6.14c.21.2.42.39.65.58l.43.33-.53.11a5.56,5.56,0,0,1-2.11-.54,3,3,0,0,0,0,.41A5.36,5.36,0,0,0,4.81,12.9a3.18,3.18,0,0,0,.66.2v.49a6.2,6.2,0,0,1-2,.08A5.6,5.6,0,0,0,7.62,17l.21,0a2.52,2.52,0,0,1,.37.05l.36.09-.26.35a6.34,6.34,0,0,1-3,1.6l-.13.05A11.14,11.14,0,0,1,1,19.78Z"/>
</svg>
