<svg xmlns="http://www.w3.org/2000/svg" viewBox="0 0 687.53 599.67">
<g id="sport">
<path d="M161.66,341.41c18.64,14.8,32.86,26.18,46.11,36.88a7.83,7.83,0,0,0,5,1.94,9.85,9.85,0,0,0,3.11-.56c18.3-6.19,33.11-11.12,46.59-15.52a8.29,8.29,0,0,0,5.92-6.61c1.38-6.07,2.8-12.13,4.21-18.2,1.65-7.06,3.36-14.37,5-21.58a9.08,9.08,0,0,0-1.33-6.79,145.28,145.28,0,0,0-57.94-48.86,8.84,8.84,0,0,0-6.61-.22q-12.72,5-25.41,10.08-11.79,4.69-23.61,9.37c-4,1.59-4.47,4.67-4.44,6.86.06,5.65.05,11.41,0,17,0,2.09,0,4.17,0,6.26a2.64,2.64,0,0,0,0,.28c0,2,0,3.95,0,5.92,0,5.48,0,11.16-.06,16.72A8.27,8.27,0,0,0,161.66,341.41Zm3.68-23.79q0-3.09,0-6.18a2.64,2.64,0,0,0,0-.29c0-2,0-4,0-6,0-5.59,0-11.37,0-17.07v-.27h0q11.82-4.65,23.63-9.38,12.69-5.06,25.38-10.06a2,2,0,0,1,1.07,0A138.44,138.44,0,0,1,270.55,315a2.49,2.49,0,0,1,.24,1.26c-1.62,7.18-3.32,14.47-5,21.52q-2.13,9.12-4.23,18.24c-.26,1.15-.41,1.23-1.26,1.51-13.51,4.4-28.34,9.34-46.66,15.53-.9.31-.93.28-1.51-.19-13.27-10.71-27.5-22.1-46.16-36.92-.68-.54-.74-.73-.73-1.45C165.36,328.84,165.35,323.14,165.34,317.62Z"/>
<path d="M259.83,277.26c-24.37-21.8-53.85-34.77-87.61-38.54l-4.36-.5-2.1-.25a2.68,2.68,0,0,0-.4,0H147.44a3.71,3.71,0,0,0-.47,0c-1.85.24-3.7.46-5.56.68-4,.48-8.2,1-12.31,1.76C79.92,249.87,42.67,277,18.39,320.9A147.77,147.77,0,0,0,.52,382.57a9.87,9.87,0,0,1-.24,1.18c-.07.31-.15.63-.21.94a3.23,3.23,0,0,0-.07.69V403.3a3.71,3.71,0,0,0,0,.47c.25,1.84.47,3.69.69,5.55.47,4,1,8.19,1.75,12.3C11.93,470.9,39,508.16,83,532.35a145.25,145.25,0,0,0,70.76,18.43q4.62,0,9.27-.29c58.43-3.6,102.61-31.41,131.32-82.66,13.56-24.2,19.7-51.12,18.27-80C310.41,343.82,292.66,306.61,259.83,277.26Zm28.39,187.15c-27.47,49-69.74,75.65-125.64,79.09a138.19,138.19,0,0,1-76.22-17.29c-42-23.13-68-58.77-77-105.91-.74-3.86-1.22-7.9-1.68-11.8-.22-1.81-.43-3.63-.67-5.43V385.76l.09-.38a14,14,0,0,0,.41-2.33,140.92,140.92,0,0,1,17-58.77c23.23-42,58.86-67.95,105.9-77,3.86-.75,7.91-1.22,11.82-1.69,1.81-.21,3.62-.42,5.43-.66h17.48l1.89.22,4.4.51c32.29,3.61,60.46,16,83.72,36.79,31.38,28.07,48.35,63.63,50.45,105.72C307,415.73,301.13,441.37,288.22,464.41Z"/>
<path d="M39.88,338c1.59,6.79,3.19,13.59,4.75,20.39a7,7,0,0,0,5.07,5.54q10.36,3.4,20.72,6.85c8.88,3,18.06,6,27.11,8.94a7.25,7.25,0,0,0,2.21.33,7.84,7.84,0,0,0,4.71-1.48c15.74-12.44,31.52-25.06,46.89-37.49a8.91,8.91,0,0,0,3.06-6.32c.12-5.87.1-11.82.09-17.57,0-1.93,0-3.86,0-5.8v-6.21c0-5.68,0-11.57,0-17.34a6.14,6.14,0,0,0-4.25-6.37l-23.11-9.11q-13.26-5.24-26.53-10.44a8.16,8.16,0,0,0-6.09.15,145.93,145.93,0,0,0-58.35,49.35,8.08,8.08,0,0,0-1.1,6Q37.45,327.73,39.88,338ZM42,315.34a139.09,139.09,0,0,1,55.47-46.92,1.49,1.49,0,0,1,.63,0q13.26,5.19,26.51,10.43,11.46,4.53,22.93,9c0,5.78,0,11.63,0,17.29v6.2c0,1.94,0,3.88,0,5.82,0,5.71,0,11.62-.09,17.4a2.3,2.3,0,0,1-.46,1c-15.31,12.38-31,24.95-46.72,37.35a2,2,0,0,1-.52.07c-9-2.94-18.21-6-27.07-8.92q-10.38-3.45-20.75-6.86a3.17,3.17,0,0,1-.34-.13c0-.07,0-.17-.09-.33q-2.34-10.21-4.76-20.42T41.91,315.9A1.55,1.55,0,0,1,42,315.34Z"/>
<path d="M196.39,454.41a8.37,8.37,0,0,0-7.17-3.66h-.11c-8.05.08-16.24.07-24.16.06l-16,0c-8.35,0-17,0-25.49.1a9,9,0,0,0-6.64,3.23c-4.3,5.6-8.6,11.33-12.76,16.87q-4.41,5.86-8.84,11.73a6.28,6.28,0,0,0-.3,7.89q6.19,9.61,12.35,19.27c5,7.85,10.2,16,15.35,23.93a9.38,9.38,0,0,0,5.63,3.85,137.2,137.2,0,0,0,27.92,2.85,148.05,148.05,0,0,0,33-3.8,8.9,8.9,0,0,0,5.28-4.06c4.12-7.11,8.19-14.23,12.27-21.35q5.81-10.16,11.65-20.29a6.81,6.81,0,0,0-.55-8.35C211.35,474.29,204.34,465.05,196.39,454.41Zm15.92,33.09q-5.87,10.14-11.67,20.32-6.1,10.68-12.24,21.32a2.48,2.48,0,0,1-.79.75,135.45,135.45,0,0,1-58,.92,2.56,2.56,0,0,1-1.17-.8c-5.14-8-10.32-16.06-15.33-23.9Q107,496.5,100.8,486.88c3-3.88,5.88-7.79,8.81-11.69,4.14-5.53,8.43-11.24,12.69-16.77a2.38,2.38,0,0,1,1.2-.53c8.46-.12,17.06-.11,25.39-.1l16.05,0c7.94,0,16.15,0,24.23-.06.77,0,1,.07,1.62.85,8,10.67,15,19.94,21.49,28.34a3.1,3.1,0,0,1,.19.26A2.31,2.31,0,0,1,212.31,487.5Z"/>
<path d="M301.12,405.82a16.24,16.24,0,0,0-1.48-2.18l-11.23-13.49q-8.42-10.09-16.82-20.23a6.31,6.31,0,0,0-7.55-2.25c-7.69,2.62-15.4,5.19-23.11,7.77-8,2.66-16.22,5.41-24.32,8.17a8.07,8.07,0,0,0-4.88,5.12c-4.43,17.36-9,35.81-14.06,56.41a7.84,7.84,0,0,0,1.29,6.09c7.61,10.2,15.19,20.22,22.55,29.77a7.3,7.3,0,0,0,5.4,2.68,5.11,5.11,0,0,0,.78-.05c15.85-2.41,31.52-4.9,46.57-7.4a8.36,8.36,0,0,0,5.67-4c1.06-2.08,2.14-4.16,3.21-6.23,3.66-7,7.44-14.3,10.53-21.79,4.24-10.26,6.83-21.65,8.16-35.84a3.45,3.45,0,0,0-.55-2.23ZM287.2,441.5c-3,7.21-6.68,14.33-10.27,21.23q-1.6,3.09-3.2,6.19a1.81,1.81,0,0,1-.62.41c-14.9,2.47-30.4,4.93-46.09,7.32l-.06,0c-7.3-9.5-14.84-19.45-22.35-29.53a1.25,1.25,0,0,1-.12-.4c5-20.47,9.58-38.81,14-56.07a2.23,2.23,0,0,1,.39-.38c8.08-2.75,16.32-5.5,24.29-8.17q11.52-3.84,23-7.73l0,0q8.4,10.15,16.84,20.25l11.22,13.48a6.34,6.34,0,0,1,.49.71C293.46,421.76,291.05,432.17,287.2,441.5Z"/>
<path d="M113.68,451.49a8.84,8.84,0,0,0,1.33-6.88c-4.59-18.89-9.26-37.58-13.86-55.56a8.33,8.33,0,0,0-4.91-5.42c-9.82-3.35-19.82-6.69-29.49-9.91q-9-3-18-6a6.2,6.2,0,0,0-7.37,2c-6.21,7.53-12.56,15.16-18.7,22.53l-9.91,11.9a12,12,0,0,0-1.29,2l-.13.25a3.5,3.5,0,0,0-.45,2.43l.16.85a147.1,147.1,0,0,0,21.37,62.12,9.78,9.78,0,0,0,7.31,4.82c16.11,2.48,30.74,4.8,44.74,7.07a9.35,9.35,0,0,0,1.55.13,6.94,6.94,0,0,0,5.84-3.09q4.69-6.31,9.43-12.61C105.4,462.65,109.6,457.05,113.68,451.49Zm-27.4,25-.22.26a2.23,2.23,0,0,1-.42,0c-14-2.28-28.68-4.59-44.8-7.08a2.84,2.84,0,0,1-2.43-1.58,140,140,0,0,1-20.36-59.19.41.41,0,0,1,0-.11l.15-.21,9.89-11.89c6.09-7.3,12.38-14.85,18.53-22.31q9,3,17.93,6c9.62,3.21,19.58,6.53,29.34,9.86a2.23,2.23,0,0,1,.49.57c4.59,17.94,9.25,36.61,13.84,55.47a2.2,2.2,0,0,1-.17,1.09c-4.06,5.53-8.25,11.11-12.31,16.52Q91,470.18,86.28,476.52Z"/>
<path d="M215.9,142.92c-1.19-16.72-6.15-33.43-15.17-51.06-.54-1-1.12-2.09-1.7-3.14l-.79-1.44a2.52,2.52,0,0,0-3-1.17c-14.24,4.93-25.08,13-33.14,24.76a6.16,6.16,0,0,0-.39,6.77,65.52,65.52,0,0,1,5.51,41c-3.16,17.44-11.74,32.92-25.5,46-2.27,2.16-4.76,4.21-7.18,6.2-1.15,1-2.3,1.9-3.44,2.87a2.5,2.5,0,0,0-.09,3.73,3,3,0,0,0,1.2.79c.49.17,1,.32,1.51.45a101,101,0,0,0,24.51,3,106.87,106.87,0,0,0,26.58-3.42,10.85,10.85,0,0,0,4.75-2.66C209.1,196.4,218,171.94,215.9,142.92ZM186,212.06a5.88,5.88,0,0,1-2.48,1.38,98.42,98.42,0,0,1-45.64,1.1c2.42-2,4.91-4,7.23-6.27,14.56-13.85,23.63-30.26,27-48.76a70.37,70.37,0,0,0-5.93-44c-.49-1-.4-1.16,0-1.76a58.78,58.78,0,0,1,28.68-22.15c.48.86,1,1.72,1.4,2.59,8.7,17,13.49,33.09,14.63,49.13C212.87,170.76,204.5,193.91,186,212.06Z"/>
<path d="M110.71,91.49a2.5,2.5,0,0,0,1.83.79h.22a2.47,2.47,0,0,0,1.88-1.13l.67-1c.39-.6.76-1.17,1.12-1.74a140,140,0,0,1,26-30.83c23.43-20.42,48.75-28.76,77.45-25.48a2.5,2.5,0,0,0,1.73-4.52l-.9-.65c-.68-.49-1.35-1-2-1.43-21.92-14.63-46.13-20.61-72-17.77A106.73,106.73,0,0,0,91,30.94a6.21,6.21,0,0,0-2.53,5.45A88.14,88.14,0,0,0,96,69.11,79.91,79.91,0,0,0,110.71,91.49ZM94.09,34.85a101.86,101.86,0,0,1,53.16-22.2A109.44,109.44,0,0,1,159,12a100.1,100.1,0,0,1,51.79,14.4c-26.21-.72-49.76,8.29-71.65,27.37a144.66,144.66,0,0,0-27,31.9,75.2,75.2,0,0,1-11.65-18.59A83,83,0,0,1,93.44,36.2,1.27,1.27,0,0,1,94.09,34.85Z"/>
<path d="M175.44,39.7c-17.19,6.67-32,17.61-45.22,33.46-3.71,4.43-7.15,9.18-10.49,13.77-1.53,2.12-3.07,4.24-4.65,6.35a2.5,2.5,0,0,0,.38,3.4c11.83,10.11,24.5,15.53,38.74,16.56l.61,0a5.76,5.76,0,0,0,5.11-2.86A63.77,63.77,0,0,1,184.6,88.49c18.41-9.26,38-10.85,59.73-4.87,3.23.89,6.35,2.06,9.64,3.29,1.53.57,3.06,1.14,4.6,1.68a2.48,2.48,0,0,0,3.33-2.33,3.5,3.5,0,0,0-.1-1.29A104,104,0,0,0,235,38.9a7.46,7.46,0,0,0-3.2-1.78A86.92,86.92,0,0,0,175.44,39.7Zm54.95,2.23a2.74,2.74,0,0,1,1,.51,98.5,98.5,0,0,1,24.31,39.79h0c-3.26-1.22-6.63-2.48-10.07-3.43-22.71-6.24-44-4.48-63.31,5.22a68.66,68.66,0,0,0-26.59,23.62c-.43.65-.52.67-1.2.62-12.42-.91-23.59-5.45-34.06-13.89l3.28-4.5c3.43-4.73,6.68-9.2,10.27-13.51,12.69-15.17,26.81-25.64,43.2-32A82,82,0,0,1,230.39,41.93Z"/>
<path d="M212.55,82.64c-2.34.2-4.59.58-7,1-1.07.18-2.15.37-3.25.53a2.5,2.5,0,0,0-1.84,3.63l.61,1.18L202.18,91c10.24,19.9,15.41,38.82,15.79,57.84.43,21.14-5.33,40.21-17.1,56.66l-1.25,1.77-.68,1a2.5,2.5,0,0,0,1.54,3.89l.15,0a3.33,3.33,0,0,0,.91.14,2.66,2.66,0,0,0,.92-.16c.56-.21,1.12-.44,1.65-.69a104.57,104.57,0,0,0,37-28.43c20.27-24.68,28.21-53.35,23.61-85.18a6.76,6.76,0,0,0-3.81-5.44A87.25,87.25,0,0,0,212.55,82.64Zm24.69,97.23a98.69,98.69,0,0,1-29.25,24c10.35-16.3,15.39-34.83,15-55.17-.4-19.79-5.75-39.42-16.35-60l-.1-.19c2.24-.38,4.35-.74,6.46-.92a82.39,82.39,0,0,1,45.62,9.24,1.8,1.8,0,0,1,1.16,1.71C264.15,129,256.58,156.31,237.24,179.87Z"/>
<path d="M158.64,228.65h.06A114.34,114.34,0,0,0,273,114C273,51.19,221.7,0,158.72,0h-.05a114.33,114.33,0,0,0,0,228.65ZM81.44,37.11A108.52,108.52,0,0,1,158.67,5h.05C218.94,5,268,54,268,114.05a109.34,109.34,0,0,1-109.32,109.6h-.05A109.22,109.22,0,0,1,81.44,37.11Z"/>
<path d="M92.4,142c13.89,9.31,29.68,15.19,48.27,18,4.89.73,9.91,1.18,14.75,1.62q3.38.3,6.79.64h.25a2.49,2.49,0,0,0,2.46-2.06c2.66-14.82,1.09-28.24-4.82-41a6.36,6.36,0,0,0-5.95-4.11,59.14,59.14,0,0,1-24.36-6.78C108.77,97.24,95.45,79.63,89,54.47c-.77-3-1.28-6.11-1.82-9.36-.25-1.52-.5-3-.78-4.57a2.5,2.5,0,0,0-4-1.49l-.21.17a6.11,6.11,0,0,0-.75.63A102.76,102.76,0,0,0,55.24,86a8,8,0,0,0,.07,3.85C60.84,111.67,73.32,129.22,92.4,142ZM60.07,87.29A97.49,97.49,0,0,1,82.34,46.22c.52,3.13,1.06,6.35,1.86,9.49,6.68,26.23,21.23,45.42,43.26,57a64.16,64.16,0,0,0,26.41,7.34c.95.06,1.21.17,1.69,1.22,5.16,11.16,6.74,22.87,4.82,35.75l-4.51-.41c-5-.45-9.71-.88-14.45-1.59-17.86-2.67-33-8.29-46.23-17.18-18-12.1-29.82-28.66-35-49.22A3.19,3.19,0,0,1,60.07,87.29Z"/>
<path d="M120.57,214.44a6.62,6.62,0,0,0,2.46.45,5.87,5.87,0,0,0,3-.76A82.31,82.31,0,0,0,157,182c1.65-3.14,3-6.34,4.41-9.73.64-1.53,1.29-3.1,2-4.69a2.5,2.5,0,0,0-2.12-3.5l-1.78-.13c-1-.08-1.89-.14-2.73-.18-18.94-.92-35.45-4.73-50.48-11.64C82.92,141.3,67,125.33,57.7,103.25a6.69,6.69,0,0,0-.68-1.16c-.09-.14-.2-.29-.32-.48a2.49,2.49,0,0,0-4.57.93c-.05.3-.1.56-.15.8-.09.52-.18,1-.22,1.47A97.53,97.53,0,0,0,53,132.86C60.78,172,83.52,199.42,120.57,214.44ZM56.33,112.13c10.08,19.53,26.16,34.47,47.91,44.49,15.62,7.19,32.74,11.14,52.33,12.09l.9,0c-.21.52-.43,1-.64,1.54-1.37,3.28-2.66,6.38-4.21,9.31a77.28,77.28,0,0,1-29.1,30.21,2,2,0,0,1-1.07,0c-35.39-14.35-57.11-40.57-64.57-77.92A87.63,87.63,0,0,1,56.33,112.13Z"/>
<path d="M570.06,423.78a4,4,0,0,0-4-3.74c-1.19,0-2.34,0-3.47,0-2.47,0-4.8.05-7.06-.07a7.57,7.57,0,0,0-5.61,1.69,7.42,7.42,0,0,0-2,5.55c-.08,6.29-.32,12.91-.76,20.23-1.81,30.75-6.35,57.51-13.87,81.79-4.49,14.49-10.54,31.22-21.36,45.5-.81,1.08-1.68,2.15-2.67,3.38l-1.63,2a4,4,0,0,0,3.12,6.49h.19c45.74-2.11,83.64-18.76,115.85-50.88a4,4,0,0,0-.27-5.91C591.33,500.81,572.88,466.11,570.06,423.78ZM519.41,578.05c10.85-14.89,16.94-31.78,21.48-46.42,7.71-24.91,12.37-52.28,14.22-83.68.42-7.19.67-13.72.76-19.92,2.15.09,4.28.07,6.5,0,3.67,41.56,21.89,76,55.61,105.09C590.05,559.79,557.7,574.53,519.41,578.05Z"/>
<path d="M670.07,415.13l-91,5.13a4,4,0,0,0-3.76,4.26C578.11,465,596,498.29,630.13,526.17a4.06,4.06,0,0,0,2.54.9l.41,0a4,4,0,0,0,2.7-1.47c25.11-31.11,38.07-66.91,38.52-106.41a4,4,0,0,0-1.24-2.94A4,4,0,0,0,670.07,415.13Zm-38,102.23c-29.16-24.91-45-54.21-48.45-89.35l82.57-4.65C665,458,653.5,489.58,632.08,517.36Z"/>
<path d="M575.36,410.74a4,4,0,0,0,4,4.33h.23l90.51-5.15a4,4,0,0,0,3.76-4.34c-3.14-35.95-15.63-66.92-38.21-94.69a4,4,0,0,0-5.64-.57C596.56,337.83,578.69,370.68,575.36,410.74ZM632,319.12c19.11,24.6,30.1,51.84,33.51,83.05l-81.68,4.64C587.74,372.32,603.54,343.56,632,319.12Z"/>
<path d="M542.8,427.17c0-.78,0-1.49-.11-2.25,0-.32-.05-.66-.07-1a4,4,0,0,0-4-3.75H511.75a4,4,0,0,0-4,3.5l-.08.6c-.07.52-.14,1-.18,1.55a101.87,101.87,0,0,1-15.47,45.6c-12.46,19.79-30,35.8-53.74,48.92a197.2,197.2,0,0,1-42,17,4,4,0,0,0-2.09,6.25l.34.48a6.58,6.58,0,0,0,1.14,1.32,170.92,170.92,0,0,0,85,39.38,30.58,30.58,0,0,0,4.83.41,20.1,20.1,0,0,0,14.63-5.94,68.56,68.56,0,0,0,6.27-6.7c13.29-16.69,19.74-36.15,24.29-53C538.26,491.6,542.21,461.38,542.8,427.17Zm-42.65,140.4a61.14,61.14,0,0,1-5.56,5.91c-3.43,3.31-7.09,4.29-12.63,3.4A162.74,162.74,0,0,1,405.32,543a200,200,0,0,0,36.86-15.68c24.91-13.8,43.44-30.69,56.64-51.66a109.72,109.72,0,0,0,16.51-47.51h19.45c-.64,33.08-4.5,62.32-11.8,89.33C518.64,533.52,512.53,552,500.15,567.57Z"/>
<path d="M687.5,407.39c-.29-2.14-.54-4.29-.79-6.44-.55-4.68-1.12-9.52-2.06-14.29-12.78-64.12-49.77-110-110-136.24a164.48,164.48,0,0,0-55.31-13,8.14,8.14,0,0,1-1.07-.24l-1-.25a4.09,4.09,0,0,0-.85-.09h-20.8a3.27,3.27,0,0,0-.54,0c-2.14.28-4.3.53-6.45.79-4.7.54-9.55,1.11-14.32,2.06-64.19,12.79-110,49.72-136.1,109.76-11.67,26.84-16,56-12.77,86.76,4.57,43.89,22.86,81.67,54.38,112.3,28.81,28,63,44.65,101.7,49.47a209.55,209.55,0,0,0,25.94,1.65c48.79,0,91.74-18.22,127.93-54.36,27.68-27.64,44.65-62.07,50.43-102.35.45-3.16.81-6.36,1.16-9.45.16-1.44.32-2.88.49-4.31a3.83,3.83,0,0,0,0-.47v-20.8A4.89,4.89,0,0,0,687.5,407.39Zm-8,21.1c-.16,1.37-.32,2.75-.47,4.13-.34,3-.69,6.16-1.13,9.21-5.53,38.52-21.73,71.43-48.16,97.82-40.65,40.58-90.18,57.55-147.23,50.44-36.91-4.61-69.58-20.51-97.12-47.28-30.13-29.29-47.63-65.42-52-107.39-3.05-29.34,1-57.18,12.16-82.74,25-57.49,68.86-92.85,130.32-105.1,4.46-.89,9.15-1.44,13.68-2,2.11-.24,4.23-.49,6.33-.77H516l.31.08a14,14,0,0,0,2.58.48,156.75,156.75,0,0,1,52.63,12.35c57.65,25.17,93.08,69.07,105.31,130.48.89,4.45,1.43,9.13,2,13.65.25,2.11.49,4.21.77,6.31Z"/>
<path d="M495.61,453.18a88.08,88.08,0,0,0,6.78-29.65,4,4,0,0,0-3.86-4.21c-60.43-2.06-109.84-6.88-155.5-15.18a4,4,0,0,0-3,.66,4,4,0,0,0-1.65,2.58c-.05.29-.11.54-.16.76a8.49,8.49,0,0,0-.29,2.45c.14,3.16.2,6.4.27,9.54a188.18,188.18,0,0,0,1.35,22.26c4.69,33.49,18.71,63.39,41.69,88.86a7.74,7.74,0,0,0,5.95,2.91,9.69,9.69,0,0,0,2.42-.33c23.57-6.07,43.54-15,61-27.17C472.15,491.67,486.85,474.17,495.61,453.18Zm-108,72.91-.2,0-.23-.24c-21.89-24.27-35.24-52.74-39.71-84.61A184.44,184.44,0,0,1,346.2,420c-.05-2.35-.1-4.76-.18-7.17,43.75,7.7,91.05,12.29,148.07,14.37a80.56,80.56,0,0,1-5.86,22.93c-8.16,19.55-22,35.91-42.15,50C429.37,511.76,410.25,520.26,387.61,526.09Z"/>
<path d="M395.86,298.94l.6.24c.41.17.69.28,1,.37,1.33.44,2.67.87,4,1.28,28.91,8.94,52.25,22.26,71.34,40.71,14.66,14.18,24.36,29.16,29.67,45.82,1.66,5.21,2.86,10.56,4.13,16.22.58,2.59,1.18,5.26,1.83,7.94a4,4,0,0,0,3.88,3.06h26.37a4,4,0,0,0,4-3.66q0-.32.06-.57a10.48,10.48,0,0,0,.09-1.44A400.58,400.58,0,0,0,535.39,337c-4.78-24-10.61-41.7-18.91-57.4-4.42-8.37-10.18-17.83-19.4-24.57-2.39-1.75-6-4.4-11.29-3.77a168.64,168.64,0,0,0-59.45,18.8,157.15,157.15,0,0,0-31.69,22.2,4,4,0,0,0,1.21,6.69Zm34.24-21.83a160.48,160.48,0,0,1,56.64-17.91c1.95-.23,3.26.55,5.62,2.27,7.88,5.77,12.85,13.91,17.05,21.86,7.92,15,13.51,32,18.13,55.22a390.67,390.67,0,0,1,7.22,68H515.47c-.37-1.6-.73-3.19-1.08-4.75-1.25-5.58-2.54-11.35-4.31-16.9-5.72-17.95-16.1-34-31.73-49.14-19.69-19-43.6-32.83-73.07-42.14A149.9,149.9,0,0,1,430.1,277.11Z"/>
<path d="M342.74,398.82c55.7,10.34,109.76,13.54,155.3,15.31h.16a4,4,0,0,0,4-4.43c-2.46-22.68-11.92-42.41-28.93-60.32-21.44-22.58-49.05-37.83-84.41-46.62a8.06,8.06,0,0,0-7.29,2.43A167.35,167.35,0,0,0,341.7,382c-.63,2.77-1.09,5.6-1.53,8.33-.21,1.28-.42,2.56-.64,3.87A4,4,0,0,0,342.74,398.82Zm5.33-7.21c.44-2.73.86-5.31,1.43-7.84a159.34,159.34,0,0,1,37.87-73.08l.05,0c33.59,8.43,59.77,22.9,80,44.24C482,370.25,490.62,387,493.61,406,450.44,404.19,400,401,348.06,391.66A.09.09,0,0,1,348.07,391.61Z"/>
<path d="M509.44,258.88c1,1.22,1.95,2.37,2.84,3.54,10.62,14,16.4,30,21.06,45.23,8.63,28.2,13.36,59.56,14.48,95.88,0,1.55,0,3.1,0,4.74,0,.77,0,1.55,0,2.32a4,4,0,0,0,4,4h14.35a4,4,0,0,0,4-3.69c3.24-41.56,21.55-75.61,56-104.06a4,4,0,0,0,.54-5.63c-23.3-28.29-87.43-56.16-116.32-50.54a4,4,0,0,0-2.34,6.44Q508.72,258,509.44,258.88Zm9.69-1c27.68,0,77.34,22.51,98.74,45.43-32.68,28.19-51.29,62.89-55.35,103.26h-6.66c0-1.09,0-2.2,0-3.31-1.14-37-6-69.08-14.83-98-4.61-15.08-10.84-32.49-22.1-47.41Z"/>
<path d="M311.19,184.34c.19,1.45.39,2.94.69,4.42a50,50,0,0,0,21.83,32.47,49.15,49.15,0,0,0,23.67,8.17l.28.06.32.07a1.72,1.72,0,0,0,.39,0h1.72a2.09,2.09,0,0,0,2-2.09,4,4,0,0,0,0-.49,54.28,54.28,0,0,0-10.49-24.56A63.53,63.53,0,0,0,330.33,184a50.56,50.56,0,0,0-17.17-5.63,2,2,0,0,0-2.26,2v1.71a2.64,2.64,0,0,0,0,.29C311,183,311.1,183.69,311.19,184.34Zm17.26,3.23a59.33,59.33,0,0,1,19.91,17.25,49.92,49.92,0,0,1,9.37,20.6h0a45.23,45.23,0,0,1-21.77-7.5A46.09,46.09,0,0,1,315.8,188c-.27-1.34-.46-2.7-.65-4.14,0-.36-.09-.72-.14-1.07A46.19,46.19,0,0,1,328.45,187.57Z"/>
<path d="M312.87,176.27c12.9,1.79,24,7.5,33.94,17.45s15.66,21.21,17.4,33.87a2,2,0,0,0,2,1.72h.17c24.19-2.06,43.82-21.7,45.66-45.69a2,2,0,0,0-1.72-2.13c-12.69-1.78-24.09-7.64-33.87-17.43S360.75,142.82,359,130.12a2,2,0,0,0-2.18-1.72c-24.41,2.42-43.61,21.65-45.64,45.72A2,2,0,0,0,312.87,176.27Zm42.45-43.67c2.19,12.81,8.34,24.34,18.28,34.29S395,183,407.85,185.16c-2.45,20.59-19.19,37.33-40,40-2.17-12.78-8.3-24.28-18.24-34.23s-21.47-16.1-34.3-18.3A46.52,46.52,0,0,1,355.32,132.6Z"/>
<path d="M410,179.27h.22a2,2,0,0,0,1.34-.51,2.07,2.07,0,0,0,.66-1.51c-.29-26.28-22.74-48.72-49-49a2.12,2.12,0,0,0-1.51.66,2,2,0,0,0-.5,1.57C363.85,153.49,387.11,176.74,410,179.27Zm-1.87-4.3c-19.7-3.45-39.08-22.83-42.62-42.62C387.87,133.82,406.67,152.61,408.14,175Z"/>
</g>
</svg>
