<svg xmlns="http://www.w3.org/2000/svg" viewBox="0 0 577.34 595.55">
<g id="legal">
  <path d="M49.47,543.32H29.26c-10.62,0-19.26-9.64-19.26-21.49V151.07a22.91,22.91,0,0,1,5.79-15.35L125.33,16.13A18.18,18.18,0,0,1,138.8,10H515.3c10.62,0,19.26,9.64,19.26,21.48V433.71a5,5,0,1,0,10,0V31.48C544.56,14.12,531.43,0,515.3,0H138.8A28.46,28.46,0,0,0,118,9.38L8.42,129A32.58,32.58,0,0,0,0,151.07V521.83c0,17.36,13.13,31.49,29.26,31.49H49.47a5,5,0,1,0,0-10Z"/>
  <path d="M378.34,306a16.88,16.88,0,0,0,12-5l85.79-85.79a17,17,0,0,0,0-24L330.58,45.62a17,17,0,0,0-24,0L220.75,131.4a17,17,0,0,0,0,24l13,13-67.86,67.85-13-13a17,17,0,0,0-24,0L43.06,309.09a17,17,0,0,0,0,24L188.63,478.71a17.06,17.06,0,0,0,24.05,0l85.78-85.79a17,17,0,0,0,1.05-22.9l68-67.95A16.91,16.91,0,0,0,378.34,306Zm-85.87,56.94L268,338.49a5,5,0,1,0-7.07,7.07l27.74,27.75c.07.07.16.13.24.2h0l2.44,2.44a7,7,0,0,1,0,9.9L205.6,471.64a7,7,0,0,1-9.89,0L50.13,326.06a7.05,7.05,0,0,1,0-9.9l85.79-85.78a7,7,0,0,1,9.9,0l16.52,16.52h0l49.92,49.94a5,5,0,0,0,7.08-7.07L173,243.37l67.75-67.75L287.08,222a5,5,0,1,0,7.08-7.07l-49.09-49.1a4.67,4.67,0,0,0-.72-.95l-16.53-16.53a7,7,0,0,1,0-9.9l85.79-85.78a7,7,0,0,1,9.9,0L469.08,198.26a7,7,0,0,1,0,9.9L383.29,294a7.05,7.05,0,0,1-9.9,0L371,291.51a5.38,5.38,0,0,0-1-.75l-27.09-27.1a5,5,0,0,0-7.08,7.07l24.43,24.43Z"/>
  <path d="M572.38,530,371.69,329.28a5,5,0,1,0-7.07,7.07L565.31,537a7,7,0,0,1,0,9.9l-26.94,26.93a7,7,0,0,1-9.9,0L327.78,373.18a5,5,0,0,0-7.07,7.08L521.4,580.94a17,17,0,0,0,24,0L572.38,554a17,17,0,0,0,0-24Z"/>
  <path d="M282.85,496H110.16a36.09,36.09,0,0,0-36,36.05v27.43a36.09,36.09,0,0,0,36.05,36H282.85a36.08,36.08,0,0,0,36-36V532.08A36.09,36.09,0,0,0,282.85,496Zm26,63.48a26.07,26.07,0,0,1-26,26H110.16a26.08,26.08,0,0,1-26-26V532.08A26.08,26.08,0,0,1,110.16,506H282.85a26.08,26.08,0,0,1,26,26.05Z"/>
  <path d="M146,115.78V33.87a5,5,0,0,0-10,0v81.91a22.11,22.11,0,0,1-22.09,22.08H31.37a5,5,0,0,0,0,10h82.56A32.12,32.12,0,0,0,146,115.78Z"/>
</g>
</svg>
