<svg xmlns="http://www.w3.org/2000/svg" viewBox="0 0 24.17 17.07">
  <path id="youtube_outline" d="M18.72,17.07H5.44A5.45,5.45,0,0,1,0,11.62V5.44A5.45,5.45,0,0,1,5.44,0H18.72a5.45,5.45,0,0,1,5.45,5.44v6.18A5.46,5.46,0,0,1,18.72,17.07ZM5.44.5A5,5,0,0,0,.5,5.44v6.18a5,5,0,0,0,4.94,5H18.72a5,5,0,0,0,5-5V5.44a5,5,0,0,0-5-4.94ZM9.91,12.24a1.56,1.56,0,0,1-.76-.2.46.46,0,0,1-.28-.41v-6a.49.49,0,0,1,.28-.42,1.42,1.42,0,0,1,1.13-.11L16,8.16a.88.88,0,0,1,.47.68.42.42,0,0,1-.23.38h0l-6,2.95A.87.87,0,0,1,9.91,12.24Zm0-6.76a1,1,0,0,0-.56.16v6a1.42,1.42,0,0,0,.66.09L15.94,8.8a.58.58,0,0,0-.21-.2L10,5.5Z"/>
</svg>
