<svg xmlns="http://www.w3.org/2000/svg" viewBox="0 0 612.46 605.94">
<g id="youth">
  <path d="M172.5,197.52l.73,0c8.6,0,14.72-9.41,23.1-22.29,10-15.34,22.39-34.43,42.12-42.68a12.85,12.85,0,0,0,4.39-3.07,81,81,0,0,0,130.67-.84,12.92,12.92,0,0,0,5.13,3.91c15.14,6.33,24.24,17,31.81,27.55a5,5,0,1,0,8.13-5.83c-8.43-11.76-18.64-23.66-36.08-30.95a3.52,3.52,0,0,1-1.93-3.91,47.91,47.91,0,0,1,1.18-4.92,80.35,80.35,0,0,0,5.7-17.77,35.74,35.74,0,0,0,1.65-9.6c0-1.46,0-3,0-4.56,0-9.2.05-20-2.81-29A57.2,57.2,0,0,1,403,60.79a4.45,4.45,0,0,0,1,.54c30.89,12.69,52.77,41.76,55.73,74.06a5,5,0,0,0,10-.92c-3.29-35.79-27.37-68-61.42-82.19a66.65,66.65,0,0,0-29.24-10,81.07,81.07,0,0,0-142.4.12,66.91,66.91,0,0,0-27.84,9.92,101.49,101.49,0,0,0-55.68,57.35c-9.08,23.85-8.15,49.15,2.61,71.24C159.39,188.36,164.6,197,172.5,197.52ZM307.88,10A71.05,71.05,0,0,1,377.7,94.48c-.77,2.65-1.74,5.53-2.66,8.24s-1.89,5.59-2.69,8.32a71.06,71.06,0,0,1-126.28,5.14,125.6,125.6,0,0,0-4-13.46c-1.92-5.65-4.09-12.06-4.06-15.5,0-1.5,0-3.07,0-4.67A154.91,154.91,0,0,1,238.63,65,71.22,71.22,0,0,1,307.88,10ZM162.46,113.18a91.5,91.5,0,0,1,50.62-51.85,5.07,5.07,0,0,0,1-.53,57.05,57.05,0,0,1,16.76-7.23,53.55,53.55,0,0,0-2,9.66,80.84,80.84,0,0,0,7.75,56.42,3.51,3.51,0,0,1-1.95,3.69c-22.58,9.44-36.49,30.83-46.65,46.45-5.19,8-11.66,18-14.83,17.75-.31,0-3.24-.5-8.39-11.06C155.18,156.9,154.38,134.42,162.46,113.18Z"/>
  <path d="M572.75,233.27a66.76,66.76,0,0,0-8.86-28.19,101.51,101.51,0,0,0-55.21-57.81c-23.49-10-48.8-10-71.28-.07-7.63,3.37-16.49,8.24-17.28,16.12-.89,9,8.44,15.54,21.36,24.65,14.95,10.55,33.56,23.67,41.06,43.7a12.81,12.81,0,0,0,2.9,4.51,81,81,0,0,0-4.08,130.61,13,13,0,0,0-4.11,5c-6.89,14.89-17.88,23.58-28.72,30.75a5,5,0,0,0-1.69,6.41,11.35,11.35,0,0,0-2.68-.51c-9-.55-15.22,9-23.83,22.27-10,15.34-22.39,34.43-42.12,42.68a12.79,12.79,0,0,0-4.4,3.07,81,81,0,0,0-130.67.84,12.92,12.92,0,0,0-5.13-3.91c-15.14-6.33-24.23-17-31.81-27.55a5,5,0,0,0-8.13,5.83c8.44,11.76,18.64,23.66,36.08,31a3.52,3.52,0,0,1,1.93,3.91,48.31,48.31,0,0,1-1.17,4.92,80.37,80.37,0,0,0-5.71,17.77,35.7,35.7,0,0,0-1.64,9.6c0,1.46,0,3,0,4.56,0,9.2-.05,20,2.82,29a57,57,0,0,1-16.75-7.22,5,5,0,0,0-1-.54c-30.89-12.69-52.77-41.76-55.74-74.06a5,5,0,0,0-1.19-2.79,86.68,86.68,0,0,0,19.34-6c7.63-3.37,16.49-8.25,17.27-16.12.89-9-8.44-15.54-21.36-24.65-14.95-10.55-33.56-23.68-41.05-43.7a12.9,12.9,0,0,0-2.87-4.48,83.52,83.52,0,0,0,9.2-7.38,81.1,81.1,0,0,0-5.11-123.29,12.83,12.83,0,0,0,4.06-4.95c6.9-14.89,17.88-23.58,28.73-30.75a5,5,0,0,0-5.52-8.34c-12.07,8-24.34,17.74-32.28,34.89a3.55,3.55,0,0,1-4,1.78,45.93,45.93,0,0,1-4.54-1.25A80.48,80.48,0,0,0,99.52,227a35.28,35.28,0,0,0-9.32-1.94c-1.46,0-3-.11-4.56-.17-9.19-.37-20-.8-29.1,1.72a56.53,56.53,0,0,1,7.86-16.46,5.17,5.17,0,0,0,.57-1c13.84-30.39,43.72-51.16,76.11-52.9a5,5,0,0,0-.54-10c-35.9,1.94-69,24.79-84.45,58.27A66.67,66.67,0,0,0,45,233.42,81.06,81.06,0,0,0,39.7,375.71a66.77,66.77,0,0,0,8.87,28.19,101.49,101.49,0,0,0,55.2,57.81,92.31,92.31,0,0,0,36.11,7.5c2.53,0,5-.12,7.55-.33a5,5,0,0,0-.48,2.59c3.29,35.79,27.37,68,61.42,82.19a66.76,66.76,0,0,0,29.24,10,81.07,81.07,0,0,0,142.4-.13,66.8,66.8,0,0,0,27.84-9.91,101.54,101.54,0,0,0,55.69-57.35,92.56,92.56,0,0,0,6.18-34,5,5,0,0,0,1.92.39h.28c35.9-1.94,69-24.79,84.45-58.27a66.86,66.86,0,0,0,11.14-28.87,81.05,81.05,0,0,0,5.24-142.28Zm-562.7,70a71.19,71.19,0,0,1,71-68.42c.9,0,1.81,0,2.71.05A71.84,71.84,0,0,1,97,236.67c2.66.87,5.56,2,8.29,3s5.75,2.19,8.56,3.13A71.15,71.15,0,0,1,114,369.05a123.21,123.21,0,0,0-13.74,3.53c-5.72,1.7-12.2,3.63-15.64,3.47h0l-4.67-.18a151.4,151.4,0,0,1-17.49-1.3A71.21,71.21,0,0,1,10.05,303.3Zm97.63,149.21A91.54,91.54,0,0,1,57.77,400a4.8,4.8,0,0,0-.49-1,56.91,56.91,0,0,1-6.6-17,54.58,54.58,0,0,0,9.58,2.39A81.28,81.28,0,0,0,78,387c1,0,2.1.06,3.14.06A80.44,80.44,0,0,0,117,378.72a3.5,3.5,0,0,1,3.52,2.09c8.58,22.92,29.43,37.63,44.66,48.37,7.79,5.49,17.49,12.33,17.17,15.49,0,.31-.62,3.22-11.36,8C151.09,461.43,128.6,461.39,107.68,452.51ZM491.9,228.17c-8.57-22.92-29.43-37.63-44.65-48.37-7.79-5.49-17.49-12.33-17.18-15.49,0-.31.62-3.22,11.37-8a77,77,0,0,1,31.14-6.56,82.35,82.35,0,0,1,32.2,6.69A91.55,91.55,0,0,1,554.68,209a5.41,5.41,0,0,0,.5,1,57.06,57.06,0,0,1,6.59,17,54.25,54.25,0,0,0-9.57-2.39,80.84,80.84,0,0,0-56.66,5.62A3.53,3.53,0,0,1,491.9,228.17ZM308.78,595.94a71.19,71.19,0,0,1-71.11-71.1A71.92,71.92,0,0,1,239,511.46c.77-2.65,1.74-5.53,2.66-8.24s1.89-5.59,2.7-8.32a71,71,0,0,1,126.27-5.14,125.74,125.74,0,0,0,4,13.46c1.91,5.65,4.08,12,4.05,15.5,0,1.5,0,3.07,0,4.67a154.91,154.91,0,0,1-.64,17.54A71.2,71.2,0,0,1,308.78,595.94ZM454.19,492.76a91.53,91.53,0,0,1-50.62,51.85,5,5,0,0,0-1,.54,55.69,55.69,0,0,1-16.75,7.23,54.35,54.35,0,0,0,2-9.67,80.84,80.84,0,0,0-7.75-56.42,3.49,3.49,0,0,1,1.94-3.69c22.58-9.44,36.49-30.83,46.65-46.45,5.15-7.92,11.54-17.75,14.74-17.75h.09c.32,0,3.24.5,8.39,11.06C461.47,449,462.28,471.52,454.19,492.76Zm93.87-93.92a4.67,4.67,0,0,0-.57,1c-13.85,30.39-43.72,51.16-76.11,52.9a5,5,0,0,0-2.21.68,86.92,86.92,0,0,0-8.25-28.31c-2.35-4.82-5.35-10.11-9.29-13.42a4.89,4.89,0,0,0,2.41-.79c12.08-8,24.35-17.74,32.29-34.89a3.55,3.55,0,0,1,4-1.78,47.15,47.15,0,0,1,4.87,1.36,80.42,80.42,0,0,0,17.55,6.37,36,36,0,0,0,9.53,2c1.46,0,3,.1,4.55.17,9.2.37,20,.8,29.1-1.72A56.83,56.83,0,0,1,548.06,398.84Zm54.34-93.17a71.07,71.07,0,0,1-87,66.59c-2.62-.86-5.46-1.95-8.13-3s-5.52-2.1-8.22-3a71.06,71.06,0,0,1-.39-126.38,123.68,123.68,0,0,0,13.63-3.52c5.71-1.69,12.19-3.62,15.64-3.46h0l4.66.18a151.74,151.74,0,0,1,17.5,1.3A71.2,71.2,0,0,1,602.4,305.67Z"/>
</g>
</svg>
