<svg xmlns="http://www.w3.org/2000/svg" viewBox="0 0 400 400">

<g id="communication">
  <path class="cls-1" d="M398.55,326.48c.31-1.87.67-3.74,1-5.56.15-.77.3-1.54.44-2.31V302.56c-.4-1.83-.76-3.69-1.12-5.48-.8-4-1.62-8.16-2.77-12.07-12.72-43.37-57.48-70.49-101.89-61.75-.8.15-1.56.23-2.44.33-.43,0-.91.09-1.45.16l-4.11.5.8-4.07a97.14,97.14,0,0,0-.1-40.34l-.93-4.2,7.22,1c2,.27,3.84.53,5.71.77a89.08,89.08,0,0,0,50.73-8c2.68-1.28,2.71-2.48,2.51-3.59-.42-2.31-1.94-2.34-2.47-2.34h0a11.85,11.85,0,0,0-4,1.27c-22,9.76-44.26,10.24-66.25,1.44a83.08,83.08,0,0,1-51.35-86.58A84,84,0,0,1,251,31.37,83.22,83.22,0,0,1,394,93.85c-1,19.48-8.36,36.82-21.77,51.55-.28.31-.58.62-.87.93a15.9,15.9,0,0,0-1.55,1.76c-1.32,1.82-.87,2.88.21,3.91.89.84,2.05,1.5,4,0a21.31,21.31,0,0,0,2.84-2.91l.6-.68a88,88,0,0,0,21.92-48.82,9.45,9.45,0,0,1,.6-2.22l.06-.17V81.32c-.27-1.42-.53-2.85-.78-4.28-.56-3.15-1.14-6.41-1.92-9.51A89.19,89.19,0,0,0,321.25.66a13.42,13.42,0,0,1-2.32-.55L318.55,0H302.64c-1.84.4-3.7.76-5.49,1.12-4,.79-8.16,1.61-12.06,2.76-43.32,12.77-70.45,57.54-61.75,101.92.16.81.23,1.57.32,2.46,0,.42.09.89.15,1.42l.49,4.1-4.05-.8a96.64,96.64,0,0,0-40.34.11l-4.22.93.59-4.28c.16-1.1.34-2.15.52-3.16a30.32,30.32,0,0,0,.66-5.49c-.12-10.34-.26-19.66-.9-29a3.63,3.63,0,0,0-1.19-2.75A2.92,2.92,0,0,0,173,69c-.65.14-2.62.57-1.94,4.63,3.6,21.53-.63,43.09-11.91,60.71A83.26,83.26,0,1,1,94.17,6.1C121.54,7.85,143.38,20.58,159.09,44c.34.5.66,1,1,1.53a23.22,23.22,0,0,0,1.3,2c1.13,1.48,2.68,1.86,4,1a3.1,3.1,0,0,0,1.41-1.86,2.49,2.49,0,0,0-.42-1.9l-.61-.92a114.85,114.85,0,0,0-10-13.76A87.93,87.93,0,0,0,99.27.65,12.59,12.59,0,0,1,97,.11L96.56,0H81.44c-2.08.46-4.19.88-6.23,1.28A118.19,118.19,0,0,0,61.66,4.5,89,89,0,0,0,74.14,177a87.79,87.79,0,0,0,31.63-.3c.77-.15,1.53-.25,2.41-.35l1.52-.19,4.16-.56L113,179.7a98.24,98.24,0,0,0,.08,40.42l.95,4.39-4.42-.8C75,217.46,46,226.61,23.39,250.9,6.72,268.84-1.07,290.69.22,315.86a87.81,87.81,0,0,0,29.65,61.35A88.26,88.26,0,0,0,94.51,399.8a89.89,89.89,0,0,0,66.8-36.43c15.59-21.1,21.11-47.43,15.15-72.24l-1-4,4.12.31c2.13.17,4.28.37,6.36.57,4.64.44,9.44.9,14.08.9h0c4.54,0,9.08-.43,13.89-.89,2.13-.2,4.34-.42,6.57-.59l3.76-.29-.56,3.73c-.1.68-.2,1.37-.31,2.08-.23,1.52-.47,3.1-.68,4.65-6.26,47.63,23,89.84,69.58,100.36,23,5.2,47.77.4,68-13.15s34.25-34.88,38.21-58.32M148.12,369.54A82.59,82.59,0,0,1,89.39,394h-.14a83.22,83.22,0,1,1,0-166.44h0a83.2,83.2,0,0,1,58.86,141.94m75.44-89.83A81.63,81.63,0,0,1,200,283.23,80.54,80.54,0,0,1,177,279.82a10.89,10.89,0,0,1-6.3-5.37c-9.67-20.7-24.44-35.47-45.16-45.16a10.85,10.85,0,0,1-5.35-6.31,79.47,79.47,0,0,1,0-46.2,10.87,10.87,0,0,1,5.42-6.22,91.27,91.27,0,0,0,45.1-45.23,10.44,10.44,0,0,1,6-5.17,79.87,79.87,0,0,1,46.59,0,10.36,10.36,0,0,1,6,5.15c9.75,20.92,24.61,35.76,45.43,45.37a10,10,0,0,1,5.14,6.29c.63,2.86,3.12,12.7,3.07,23.41,0,9.58-2.55,20.12-3.12,22.74a9.89,9.89,0,0,1-5.23,6.19,91.05,91.05,0,0,0-45.36,45.46,9.85,9.85,0,0,1-5.69,4.95M310.86,394a83.22,83.22,0,0,1-.22-166.44h.22a83.22,83.22,0,0,1,0,166.44Z"/>
  <path class="cls-1" d="M37.08,60c0,18.49,0,37.54,0,58.25C37.09,125.83,40.25,129,48,129q14.49,0,29,0h24.83c9.64,0,19.6,0,29.4,0,6.89,0,10.25-3.39,10.26-10.27,0-18.71,0-38.44,0-58.64,0-7.58-3.29-10.81-11-10.82H48.05c-7.68,0-11,3.22-11,10.74m11.76,62.93L77,94.61l1.81.69c10.84,4.07,11.72,3.89,20,.28l1.86-.82,28.42,28.13Zm86.4-5.25-28-28.35,28-28Zm-4.68-62.19-5.06,5.11-8.08,8.22c-6.91,7-13.45,13.71-20.27,20.39a11.18,11.18,0,0,1-7.87,3.22A11.66,11.66,0,0,1,81.11,89c-6.76-6.6-13.3-13.18-20.24-20.15q-4.07-4.1-8.25-8.28L47.5,55.45ZM43.28,60.38l28.48,28.8L43.28,117.65Z"/>
  <path class="cls-1" d="M361.75,299.32c3.39-15.58.51-27.66-8.79-36.93-5.21-5.18-10.31-5.17-15.58,0-5.67,5.59-11.71,11.63-19,19-2.78,2.81-4.17,5.58-4.14,8.25s1.49,5.42,4.34,8.16a49.67,49.67,0,0,0,4.68,3.78c.82.61,1.65,1.22,2.46,1.86l2,1.54-1.16,2.22a43.23,43.23,0,0,1-19.32,19.22l-2.27,1.15-1.51-2c-.56-.76-1.09-1.52-1.61-2.25a45.6,45.6,0,0,0-3.06-4c-3-3.33-5.88-5.06-8.7-5.14h-.23c-2.76,0-5.71,1.54-8.78,4.6l-1.89,1.89c-5.35,5.34-10.89,10.86-16.3,16.31-2.83,2.85-4.25,5.63-4.23,8.27s1.48,5.36,4.32,8.12c8.63,8.38,19.56,11.28,33.41,8.87,30.65-5.33,58.78-32.37,65.42-62.9m-82.82,56.43a20.73,20.73,0,0,1-13.55-8.57l-1.53-2.09,26.71-26.51,2.07,2.75q.64.84,1.35,1.71a47.66,47.66,0,0,1,3.46,4.74c3.17,5.21,7.32,6.43,12.66,3.75a47.7,47.7,0,0,0,21.7-21.83c2.48-5,1.09-9.33-3.9-12.32a49.13,49.13,0,0,1-4.64-3.28c-.63-.48-1.26-1-1.9-1.43l-2.83-2.06,26.66-26.89,2.1,1.59c5.48,4.16,8.7,10.31,9.56,18.27,1.16,10.79-1.33,21.3-7.62,32.13-12.91,22.27-30.68,35.86-52.82,40.39a33,33,0,0,1-6.66.63,75.79,75.79,0,0,1-10.82-1"/>
  <path class="cls-1" d="M243.68,219.57c8.63-.46,14.37-6.31,14.62-14.92.12-4.3.12-8.64,0-12.91-.26-8.84-6.39-14.84-15.26-14.93-1.61,0-3.22,0-4.8,0h-4.47l-.59-2.24c-4.21-16.13-17.2-26.65-33.08-26.8h-.34c-15.38,0-27.67,10.05-32.91,26.93l-.65,2.11h-4.69c-1.75,0-3.4,0-5.06,0a14.59,14.59,0,0,0-14.63,14c-.12,2.18-.1,4.35-.09,6.64,0,.77,0,1.55,0,2.32,0,14.85,3.84,18.95,18.68,19.79h.26a3.06,3.06,0,0,1,2.22.88c.17.15.4.35.65.55a7.2,7.2,0,0,1,2.57,3.24,10.56,10.56,0,0,1,.32,3.94c0,.45-.05.87,0,1.22.26,8.24,5.63,14,13.69,14.69a111.94,111.94,0,0,0,13.5.08c1.95-.07,3.25-1.25,3.23-2.94s-1.29-2.73-3.38-2.81-4.23-.07-6.31-.06c-1.44,0-2.88,0-4.32,0-7.37-.1-10.52-3.3-10.54-10.69V223c0-13.43,0-27.31.07-41a31.89,31.89,0,0,1,1.57-9.86c4.32-12.69,16.88-20.14,30.54-18.14a27.16,27.16,0,0,1,23.27,26.43c.18,9.22.15,18.58.13,27.63,0,4.42,0,8.83,0,13.24V222a14.8,14.8,0,0,0,.18,3.08c.39,1.73,1.23,2.41,2.93,2.35a2.48,2.48,0,0,0,2.68-2.34c.09-.48.17-1,.26-1.67q.08-.57.18-1.26l.38-2.56H237l2.28,0c1.53,0,3,0,4.37,0m-77.52-6h-3c-.8,0-1.59,0-2.36,0s-1.57,0-2.36,0a26.58,26.58,0,0,1-3.2-.16,8.09,8.09,0,0,1-7.5-8.2c-.17-5.36-.18-9.81,0-14,.19-5,3.52-8.24,8.69-8.53,1.52-.08,3-.06,4.56,0l2.18,0h3Zm70.77,0h-3V182.7h3l2.18,0c1.67,0,3.24-.06,4.89.07,4.94.39,8.14,3.6,8.34,8.37.17,4.14.17,8.59,0,14a8.26,8.26,0,0,1-7.82,8.39,29.82,29.82,0,0,1-3.11.15c-.79,0-1.57,0-2.33,0s-1.44,0-2.16,0"/>
  <path class="cls-1" d="M131.13,341.82A51.41,51.41,0,0,0,138.62,294c-1.65-4.84-3.29-4.36-4.48-4s-1.34.79-1.43,1c-.48.88-.36,2.62.3,4.78.55,1.78,1,3.54,1.43,5.41.2.85.41,1.72.64,2.61l.95,3.75h-18l-8.33-37,5.34,2.2c4.34,1.79,5,.57,5.59-.51s1.32-2.41-3.17-5.33A51.37,51.37,0,0,0,91,258.62c-.66,0-1.32,0-2,0a52.16,52.16,0,1,0,42.07,83.24M43.42,304.08A46.11,46.11,0,0,1,62.81,272.8l6.38-4.52-8.85,39.29H42.85Zm19.39,44.65c-10.6-7.4-17.13-17.9-19.42-31.22l-.6-3.51H60.38l8.77,39.15Zm23.35,6.58L81.75,353c-7.59-4-14.14-23.79-13.69-36.16l.1-2.9h18Zm0-47.87H67.4l.35-3.31C69,292,71.08,279.36,81.05,269.28l5.14-5.2Zm6.3-45.62,5.32,6.44c8.83,10.67,11.52,22.12,12.83,36l.31,3.29H92.49Zm0,96.09v-44h18.32l-.22,3.21c-.71,10.54-2.81,24.06-12.87,35.09Zm22.94-8.9-6.58,4.75,1.9-7.89,1.5-6.21c1.26-5.18,2.44-10.08,3.6-15.09a26,26,0,0,0,.39-3c.29-3.2.57-6.22,3.26-7.12,3-1,6.09-.82,9.13-.66,1.13.06,2.3.12,3.44.12h3.51l-.54,3.47c-2,13.25-8.46,23.61-19.61,31.67"/>
  <path class="cls-1" d="M333.47,80.34h0a3.13,3.13,0,0,0-2.91,2.86,2.76,2.76,0,0,0,.79,2,2.93,2.93,0,0,0,2.13.89h0a2.72,2.72,0,0,0,2.82-2.75h0a3,3,0,0,0-.86-2.19A2.71,2.71,0,0,0,333.47,80.34Z"/>
  <path class="cls-1" d="M284.3,80.35h-.1a3,3,0,0,0-2,.87,2.92,2.92,0,0,0-1,2.06,2.78,2.78,0,0,0,.85,2,3,3,0,0,0,2.18.86,2.76,2.76,0,0,0,2.76-2.83A2.93,2.93,0,0,0,284.3,80.35Z"/>
  <path class="cls-1" d="M308.87,80.34a3,3,0,0,0-2.07.92,2.82,2.82,0,0,0,2,4.88,2.77,2.77,0,0,0,2.88-2.7,3.05,3.05,0,0,0-.82-2.22A2.79,2.79,0,0,0,308.87,80.34Z"/>
  <path class="cls-1" d="M363.8,66.47c-.21-13.8-9.6-23.13-23.35-23.23-19-.13-38.34-.13-57.43,0-14,.1-23.49,9.69-23.56,23.88-.06,9.74-.06,20.1,0,31.68.06,14.35,9.79,24.07,24.21,24.18,2.76,0,5.57,0,8.3,0h4.72c3.2,0,6.43,0,9.64.12a11.77,11.77,0,0,1,7,2.85c2.47,2.18,4.78,4.54,7,6.83,1.08,1.1,2.16,2.21,3.26,3.29,3.12,3.08,6.45,3.82,10.17,2.28s5.37-4.27,5.39-8.47c0-.81,0-1.62,0-2.44v-3.36l2.18-.63.92-.27c.62-.19,1.21-.37,1.85-.5,12.77-2.62,19.58-10.84,19.68-23.77C363.9,87.9,364,77.14,363.8,66.47Zm-5.87,32.67c-.09,10.85-6.87,17.73-17.71,18-1.63,0-5.43.12-6.16.87s-.75,4.67-.75,6.33v6.57l-4.8,2.14-1.46-1.51q-1.68-1.73-3.38-3.44c-2.64-2.67-5.37-5.44-7.94-8.31A7.87,7.87,0,0,0,309,117c-6.36.17-12.81.13-19,.09l-5.59,0c-12,0-19-6.9-19-18.83,0-9.34,0-20.19,0-30.92,0-11.39,6.86-18.21,18.24-18.24,18.86-.06,37.79,0,56.27,0,11.23,0,18,6.72,18.08,17.9C358,77.67,358,88.48,357.93,99.14Z"/>
</g>
</svg>
