<svg xmlns="http://www.w3.org/2000/svg" viewBox="0 0 340.86 603.17">
<g id="diversity">
  <path d="M303.11,54.68a37.75,37.75,0,0,0-32.2,18.09V63.54a37.74,37.74,0,0,0-72.26-15.25V36.65a36.65,36.65,0,1,0-73.3,0V49.16A37.74,37.74,0,0,0,52.72,63.54v80.13H43.63a4.81,4.81,0,0,0-1.07.12c-.45.1-11.07,2.51-21.58,11.94-9.57,8.59-21,24.89-21,53.8,0,50.41,21.31,71.85,46,96.67q3.08,3.09,6.25,6.31c28.29,28.84,40,43.66,42,74.61a5,5,0,0,0,5,4.68h.32a5,5,0,0,0,4.67-5.31c-2.28-36-17.72-53.36-44.81-81-2.13-2.17-4.23-4.28-6.3-6.36C29,274.94,10,255.82,10,209.53c0-45,30-54.71,34.24-55.86H194.71a27.74,27.74,0,0,1,6.2,54.78,4.93,4.93,0,0,0-2.27-.48c-32.72,1.11-83.2,2.56-88.18,2a5,5,0,0,0-2.57,9.54,144.18,144.18,0,0,1,35.83,24.78c23.11,21.85,34.36,47.3,33.42,75.66a5,5,0,0,0,4.84,5.16h.16a5,5,0,0,0,5-4.83c1-31-11.7-59.88-36.8-83.48a156.35,156.35,0,0,0-21.47-16.87c9.67-.18,21.58-.49,32.86-.81l.27,0h32.71a37.74,37.74,0,0,0,10.71-73.93V63.54a27.75,27.75,0,0,1,55.49,0V183.13a27.78,27.78,0,0,1-27.74,27.75h0a5,5,0,1,0,0,10,37.8,37.8,0,0,0,36.77-29.29,37.73,37.73,0,0,0,54.93,12.86,5,5,0,1,0-5.77-8.17,27.74,27.74,0,0,1-43.73-22.67V92.43a27.75,27.75,0,1,1,55.49,0V342a5,5,0,0,0,10,0V92.43A37.8,37.8,0,0,0,303.11,54.68ZM162,10a26.68,26.68,0,0,1,26.65,26.65v107h-53.3v-107A26.68,26.68,0,0,1,162,10ZM62.72,63.54a27.74,27.74,0,0,1,55.48,0v80.13H62.72Z"/>
  <path d="M332.16,396.33a5,5,0,0,0-5,5V556.7a36.51,36.51,0,0,1-36.47,36.47h-150a36.51,36.51,0,0,1-36.48-36.47V455.44a5,5,0,0,0-10,0V556.7a46.52,46.52,0,0,0,46.48,46.47h150a46.52,46.52,0,0,0,46.47-46.47V401.33A5,5,0,0,0,332.16,396.33Z"/>
</g>
</svg>
