<svg xmlns="http://www.w3.org/2000/svg" xmlns:xlink="http://www.w3.org/1999/xlink" viewBox="0 0 31.76 43.15">
  <g id="share">
      <path d="M608.92,2911.06a.84.84,0,0,1-.66-.32.83.83,0,0,1,.15-1.16l12-9.32a.83.83,0,1,1,1,1.31l-12,9.31A.81.81,0,0,1,608.92,2911.06Z" transform="translate(-598.72 -2875.72)"/>
      <path d="M620.77,2894.86a.81.81,0,0,1-.51-.18L608,2885a.83.83,0,1,1,1-1.3l12.29,9.64a.83.83,0,0,1,.14,1.16A.81.81,0,0,1,620.77,2894.86Z" transform="translate(-598.72 -2875.72)"/>
      <path d="M609.48,2881c.1,7-10.86,7-10.75,0C598.62,2874,609.58,2874,609.48,2881Z" transform="translate(-598.72 -2875.72)"/>
      <path d="M630.48,2897.4c.1,7-10.86,7-10.75,0C619.62,2890.43,630.58,2890.43,630.48,2897.4Z" transform="translate(-598.72 -2875.72)"/>
      <path d="M609.93,2913.62c.1,7-10.86,7-10.76,0C599.07,2906.64,610,2906.64,609.93,2913.62Z" transform="translate(-598.72 -2875.72)"/>
  </g>
</svg>
