<svg xmlns="http://www.w3.org/2000/svg" xmlns:xlink="http://www.w3.org/1999/xlink" viewBox="0 0 40 34">
  <g id="speaker">
    <path d="M31.9,23.57l-.74-.68a10,10,0,0,0,0-12.79l.73-.68A10.89,10.89,0,0,1,31.9,23.57Z" transform="translate(-0.16 0.21)"/>
    <path d="M34.15,28.89l-.61-.79a14.61,14.61,0,0,0,5.31-11.54A14.62,14.62,0,0,0,33.63,5l.62-.79a15.65,15.65,0,0,1,5.6,12.37A15.65,15.65,0,0,1,34.15,28.89Z" transform="translate(-0.16 0.21)"/>
    <path d="M6.34,24.55c-3,0-4.57-.24-5.41-1.1S.1,21,.24,18.57a58.58,58.58,0,0,0,0-7.32A2.19,2.19,0,0,1,.93,9.5c1.33-1.31,4.47-1.12,7-1a13.45,13.45,0,0,0,2.7,0l.62-.14v16h-.49C9,24.51,7.56,24.55,6.34,24.55ZM5.21,9.42c-1.52,0-2.94.16-3.58.79a1.2,1.2,0,0,0-.34,1,60.3,60.3,0,0,1-.05,7.43c-.12,2.19-.2,3.51.41,4.13.85.88,3.41.87,8.59.73V9.6a20.73,20.73,0,0,1-2.38-.07C7,9.48,6.11,9.42,5.21,9.42Z" transform="translate(-0.16 0.21)"/>
    <path d="M26.14,33.21l-15.9-9V8.75l15.9-9Zm-14.9-9.54,13.9,7.83V1.5L11.24,9.33Z" transform="translate(-0.16 0.21)"/>
  </g>
</svg>
