<svg xmlns="http://www.w3.org/2000/svg" viewBox="0 0 675.24 603.17">
<g id="training">
<path d="M109.92,248.19a5,5,0,0,0,5,5h62.76a5,5,0,0,0,0-10H114.92A5,5,0,0,0,109.92,248.19Z"/>
<path d="M114.92,314.69H226.63a5,5,0,0,0,0-10H114.92a5,5,0,0,0,0,10Z"/>
<path d="M114.92,383.73H258a5,5,0,0,0,0-10H114.92a5,5,0,0,0,0,10Z"/>
<path d="M494,253.19h62.76a5,5,0,0,0,0-10H494a5,5,0,0,0,0,10Z"/>
<path d="M556.74,304.69H445a5,5,0,0,0,0,10H556.74a5,5,0,0,0,0-10Z"/>
<path d="M556.74,373.73H413.65a5,5,0,0,0,0,10H556.74a5,5,0,0,0,0-10Z"/>
<path d="M670.24,146.54a5,5,0,0,0-5,5V492.6a68.22,68.22,0,0,1-68.14,68.15H390.36a6.3,6.3,0,0,0-6.3,6.09c-.89,23.77-32.77,26.33-46.44,26.33-17,0-45.62-3.42-46.44-26.33a6.29,6.29,0,0,0-6.29-6.09H78.14A68.22,68.22,0,0,1,10,492.6V151.54a5,5,0,0,0-10,0V492.6a78.24,78.24,0,0,0,78.14,78.15H281.48c2.74,20.67,22.95,32.42,56.14,32.42,32.65,0,53.3-12,56.13-32.42H597.1a78.23,78.23,0,0,0,78.14-78.15V151.54A5,5,0,0,0,670.24,146.54Z"/>
<path d="M118.72,510.5h162.8c3.8,25.49,36.57,32.43,56.1,32.43,14.62,0,51.88-5.94,56.08-32.43H556.52a51,51,0,0,0,50.94-50.94V159.83a51,51,0,0,0-50.94-50.94H527.15a5,5,0,0,0,0,10h29.37a41,41,0,0,1,40.94,40.94V459.56a41,41,0,0,1-40.94,40.94H390.35a6.31,6.31,0,0,0-6.29,6.05c-.42,9.43-6.95,16.62-19.4,21.35a85.71,85.71,0,0,1-27,5c-1.85,0-45.35-.3-46.44-26.36a6.29,6.29,0,0,0-6.29-6.07H118.72a41,41,0,0,1-40.94-40.94V159.83a41,41,0,0,1,40.94-40.94h29.37a5,5,0,0,0,0-10H118.72a51,51,0,0,0-50.94,50.94V459.56A51,51,0,0,0,118.72,510.5Z"/>
<path d="M279.52,280.69a46.12,46.12,0,0,0-5.78,22.18c0,14.82,7.27,29,20.05,39.25a38,38,0,0,0-4.16,17.16c0,23.69,21.53,43,48,43s48-19.27,48-43a38.08,38.08,0,0,0-4.16-17.17c12.79-10.28,20.05-24.42,20.05-39.24a46.12,46.12,0,0,0-5.78-22.18A146.58,146.58,0,0,0,484,146.36C484,65.66,418.33,0,337.62,0S191.26,65.66,191.26,146.36A146.59,146.59,0,0,0,279.52,280.69Zm112,22.18c0,12.55-6.74,24.62-18.51,33.12a6.28,6.28,0,0,0-1.72,8.35,28.89,28.89,0,0,1,4.34,14.94c0,18.17-17,33-38,33s-38-14.79-38-33A28.89,28.89,0,0,1,304,344.34a6.26,6.26,0,0,0-1.72-8.34c-11.76-8.51-18.51-20.58-18.51-33.13a36.7,36.7,0,0,1,5.17-18.49,145.35,145.35,0,0,0,39.34,8h.24c.87.06,1.74.11,2.61.14l1.26.05,1.94.07c.85,0,1.71,0,2.57,0h1.5l2.58,0,1.94-.07,1.25-.05c.88,0,1.75-.08,2.62-.14H347a145.5,145.5,0,0,0,39.35-8A36.69,36.69,0,0,1,391.5,302.87ZM337.62,10C412.81,10,474,71.17,474,146.36a136.58,136.58,0,0,1-87.28,127.22,6.22,6.22,0,0,0-1.1.31,136.24,136.24,0,0,1-41.76,8.69l-.77,0-2.29.08-2,0-1.14,0-1.15,0-2,0-2.3-.08-.77,0a136.24,136.24,0,0,1-41.76-8.69,6.22,6.22,0,0,0-1.1-.31,136.59,136.59,0,0,1-87.27-127.22C201.26,71.17,262.43,10,337.62,10Z"/>
<path d="M259.11,143.65a4.83,4.83,0,0,0,.52,4.07c1.25,1.94,2.32,4.05,5,4.35a5,5,0,0,1,1.77.71c2.08,1.15,4.2,2.26,6.2,3.55s4,2.4,5,4.58c.41,1,.77,2.1,1.09,3.16a1.31,1.31,0,0,0,1.59.9l1.82-.49a1.29,1.29,0,0,1,1.61,1,4.93,4.93,0,0,0,1.62,2.79c.35.32.29,1.1.43,1.67s.24.88.41,1.46l-.62.41c.9,1.36,2.59,2.22,3.64,1.62,1.65-.94,3.1.09,4.36.61l.14.06a6.7,6.7,0,0,1,3,3.17,14.37,14.37,0,0,0,5.21,5.51,3.36,3.36,0,0,0,3.53.43c1.09-.52,2.23-.92,3.36-1.35.36-.14.76-.21,1.39-.38l-1.23,1.81a1.29,1.29,0,0,0,.94,2l1.31.13a2.74,2.74,0,0,1,1.23.22,7.79,7.79,0,0,0,5.35,1.73l.21,0c1.28.29,1.57.76,1.28,2.06a10.62,10.62,0,0,0-.14,1.25l.32.1.9-1.08a5,5,0,0,0,.87.22,27.34,27.34,0,0,1,3,.24c1.56.29,3.09.76,4.64,1.07a2.64,2.64,0,0,0,1.64-.19c1.2-.63,2.29-1.49,3.5-2.12a12.91,12.91,0,0,0,5.32-4.33c.65-1,1.18-2.05.66-3.05a1.22,1.22,0,0,1,.23-1.38l1-1.09c.26-.3.45-.74.77-.87a50.4,50.4,0,0,1,5.67-2.15c1.67-.47,2.17-1.15,1-2.45a8,8,0,0,1-1.91-6,9.62,9.62,0,0,0-.11-1.93c-.65-4.29.23-8.44,1.15-12.59.45-2,.89-4,3-5,.18-.09.27-.33.44-.46a13.19,13.19,0,0,1,6.48-3,47.5,47.5,0,0,0,5.42-1c1.61-.39,2-2.13,3.2-3.07.09-.07.09-.26.1-.4a3.16,3.16,0,0,1,2.56-3.18c.19-.06.5-.14.52-.26.46-2.38,2.43-3.4,4.13-4.68a5.55,5.55,0,0,1,3.93-1,51.72,51.72,0,0,0,6.82.27c2.26-.14,4.49-.59,6.05-2.65a8.07,8.07,0,0,1,2.84-2.48,26.43,26.43,0,0,0,4.09-2.6c1-.71,2-1.47,3-2.28a32,32,0,0,1,7.74-5l.07,0a20.26,20.26,0,0,0,4.78-2.58l.08-.06a20.53,20.53,0,0,1,7.06-4,20,20,0,0,0,7.91-4.53,1.69,1.69,0,0,0,.51-1.93,1.85,1.85,0,0,0-1.54-1.45c-.7-.11-1.39-.26-2.09-.4a1.27,1.27,0,0,0-.28,0h-.69a1.17,1.17,0,0,0-.45.09c-1.6.63-3.18,1.31-4.81,1.83a6.11,6.11,0,0,1-2.9.35,7.47,7.47,0,0,0-5.32,1,8.37,8.37,0,0,1-4.42,1.7c-1.78,0-3.55.91-5.34,1.33a12.9,12.9,0,0,1-3.43.52,17.38,17.38,0,0,1-6.57-1.23,4.78,4.78,0,0,0-4.4.44,2.22,2.22,0,0,1-2.09.38,6.33,6.33,0,0,0-4.67,0c-.66.22-1.07,0-1.4-.72s-.95-1.5-1.41-1.49a8.11,8.11,0,0,1-3.38-.57,2.46,2.46,0,0,0-1.37,0c-.82.18-1.61.56-2.45.7-2.39.4-4.79.74-7.19,1.07a2,2,0,0,0-1.94,1.55,1.28,1.28,0,0,1-1.27,1,6.24,6.24,0,0,0-4.83,3.17c-1.11,1.89-2,3.93-2.95,5.89a7.36,7.36,0,0,1-1,1.46,21,21,0,0,0-2.93,3.24l-.09.15a22.68,22.68,0,0,1-3.43,4.76,6.42,6.42,0,0,0-2.07,4.23,5.46,5.46,0,0,1-3.1,4.76,4.22,4.22,0,0,0-2.21,4c0,.61,0,1.22,0,1.82a5.16,5.16,0,0,1-1,3.62c-.44.65-.91,1.28-1.41,1.88a26.73,26.73,0,0,0-5.74,11.2,32.16,32.16,0,0,0-1.17,11.16,1.28,1.28,0,0,1-.58,1.16,8.63,8.63,0,0,0-1.11.86c-.06.05-.11.11-.16.16-1.38,1.69-2.8,3.15-5.32,2.41h-.09a1.3,1.3,0,0,1-1.07-1.79v0a1.3,1.3,0,0,0-1.59-1.74l-.66.24a11.41,11.41,0,0,1-1.63.51c-1.4.3-2.15-.48-1.79-1.87.15-.58.44-1.13.61-1.7a2,2,0,0,0,.11-.63,1.82,1.82,0,0,0-1.82-1.8,2.66,2.66,0,0,1-2.47-1.18,2,2,0,0,0-1.11-.78,14.41,14.41,0,0,0-2.85-.34,9.18,9.18,0,0,1-5.35-1.89,16.64,16.64,0,0,1-5.09-6.51,7.24,7.24,0,0,0-5.72-4.24,7.9,7.9,0,0,1-1.75-.73,46.22,46.22,0,0,0-4.77-2.13l-.13,0A24.17,24.17,0,0,1,275,145a6.63,6.63,0,0,0-2-1,16.37,16.37,0,0,1-6.4-3.3,15.22,15.22,0,0,0-5.69-2.83,1.91,1.91,0,0,0-2.27.73c-.87,1.11-.83,1.82.06,3.41A2.43,2.43,0,0,1,259.11,143.65Z"/>
<path d="M294.76,139.57c1.63,1.63,3.61,3,4.21,5.41,0,.15.32.28.51.34,3.42,1,6.81,2.06,10.45,1.72a20.66,20.66,0,0,0,7.47-1.67c.49-.24.81-.79,1.24-1.17a3.94,3.94,0,0,1,1.08-.87,1.2,1.2,0,0,1,.45-.15,20.18,20.18,0,0,1,2.2-.18,1.81,1.81,0,0,0,1-.39q2.27-2.13,4.43-4.36a1.66,1.66,0,0,1,1.55-.68h.05a1.54,1.54,0,0,0,1.79-1.24c.44-1.5,1-3,1.43-4.47a2.11,2.11,0,0,0,.11-1.14,14.19,14.19,0,0,1-.06-6.67,3.32,3.32,0,0,0-.39-1.88c-1.22-2.26-2.53-4.47-3.82-6.68a3.16,3.16,0,0,0-.75-.88,14.06,14.06,0,0,0-6.6-3.11c-1.75-.29-3.56-.27-6.2-.45h0c-2.07-.67-4.62.36-7.07,1.8a18.81,18.81,0,0,1-2,1,6.22,6.22,0,0,0-3.1,2.8,13.15,13.15,0,0,1-7.86,6.49,2,2,0,0,0-.59.24,3,3,0,0,0-.87.71,12.52,12.52,0,0,0-1.73,10.23A10.88,10.88,0,0,0,294.76,139.57Z"/>
</g>
</svg>
