<svg xmlns="http://www.w3.org/2000/svg" viewBox="0 0 56.82 30">
  <path id="bullet_point" d="M13.81,14.65c-.06,0-.15-.06-.16-.11a4.17,4.17,0,0,0-1.41-1.8,3.71,3.71,0,0,1-1-1.73,4.23,4.23,0,0,1,.58-3.41,1.13,1.13,0,0,1,.29-.24.7.7,0,0,1,.2-.08,4.43,4.43,0,0,0,2.62-2.16,2.09,2.09,0,0,1,1-.94,5.13,5.13,0,0,0,.66-.34A3.11,3.11,0,0,1,19,3.24c.88.06,1.48,0,2.07.15a4.7,4.7,0,0,1,2.2,1,1.48,1.48,0,0,1,.25.3c.43.74.86,1.47,1.27,2.22a1.07,1.07,0,0,1,.13.63,4.63,4.63,0,0,0,0,2.22.72.72,0,0,1,0,.38c-.15.5-.33,1-.48,1.49a.5.5,0,0,1-.61.41.56.56,0,0,0-.52.23c-.48.49-1,1-1.47,1.45a.59.59,0,0,1-.34.13,5.44,5.44,0,0,0-.82.07,1.46,1.46,0,0,0-.43.33c-.14.13-.25.31-.41.39a6.89,6.89,0,0,1-2.49.56l-.46,0A10.87,10.87,0,0,1,13.81,14.65ZM23.6,30c-.52-.1-1-.26-1.54-.35a6.77,6.77,0,0,0-1-.08,2.16,2.16,0,0,1-.29-.08c-.09.12-.2.24-.3.36l-.1,0a2.71,2.71,0,0,1,0-.41c.1-.44,0-.6-.42-.69a.11.11,0,0,0-.08,0,2.62,2.62,0,0,1-1.78-.58c-.1-.08-.27-.06-.41-.07l-1.16-.12.82-1.21c-.21.06-.34.08-.46.13-.38.14-.76.28-1.12.45a1.14,1.14,0,0,1-1.18-.14,4.79,4.79,0,0,1-1.73-1.84,2.34,2.34,0,0,0-1-1.07c-.43-.17-.92-.53-1.48-.21-.35.2-.91-.08-1.22-.54l.21-.13c-.05-.2-.1-.35-.13-.49s0-.45-.15-.56a1.69,1.69,0,0,1-.56-1.42L7,21.31a13.88,13.88,0,0,0-.48-1.46,3.9,3.9,0,0,0-1.66-1.53c-.66-.43-1.37-.8-2.07-1.18a1.46,1.46,0,0,0-.58-.24C1.31,16.8,1,16.09.54,15.45a1.59,1.59,0,0,1-.17-1.36.81.81,0,0,0-.14-.52c-.3-.53-.31-.77,0-1.13A.64.64,0,0,1,1,12.19a5,5,0,0,1,1.89.94A5.55,5.55,0,0,0,5,14.24a2,2,0,0,1,.66.32,8.1,8.1,0,0,0,2.61,1.18,17.63,17.63,0,0,1,1.61.72,2.23,2.23,0,0,0,.58.24,2.45,2.45,0,0,1,1.91,1.42,5.45,5.45,0,0,0,1.7,2.16,3,3,0,0,0,1.78.64,4.33,4.33,0,0,1,1,.11.65.65,0,0,1,.37.26.86.86,0,0,0,.82.39.61.61,0,0,1,.57.81c0,.19-.15.37-.2.57-.12.46.13.72.6.62a3.74,3.74,0,0,0,.54-.17c.44-.17.45-.17.93.06-.13.33-.27.66-.44,1.05a2.71,2.71,0,0,1,.64,0c.85.25,1.33-.26,1.8-.83a2.74,2.74,0,0,1,.61-.44,10.66,10.66,0,0,1,.37-4,9,9,0,0,1,1.91-3.73,4.91,4.91,0,0,0,.47-.63,1.72,1.72,0,0,0,.35-1.2c0-.2,0-.41,0-.61a1.41,1.41,0,0,1,.74-1.33,1.84,1.84,0,0,0,1-1.59,2.21,2.21,0,0,1,.69-1.41,7.76,7.76,0,0,0,1.16-1.61,7.3,7.3,0,0,1,1-1.11,2.23,2.23,0,0,0,.32-.48c.33-.65.61-1.33,1-2a2.08,2.08,0,0,1,1.61-1.06.43.43,0,0,0,.43-.35.69.69,0,0,1,.64-.52c.8-.1,1.6-.22,2.4-.35.28-.05.54-.17.82-.24a.77.77,0,0,1,.45,0,2.89,2.89,0,0,0,1.13.19c.15,0,.38.29.47.49s.24.32.46.24a2.15,2.15,0,0,1,1.56,0,.74.74,0,0,0,.7-.13,1.58,1.58,0,0,1,1.46-.14,6,6,0,0,0,2.19.41,4.44,4.44,0,0,0,1.14-.18,7.8,7.8,0,0,1,1.79-.44,2.81,2.81,0,0,0,1.47-.57A2.49,2.49,0,0,1,52.53.76a2.17,2.17,0,0,0,1-.12C54.06.46,54.61.22,55.17,0h.36l.74.14a.64.64,0,0,1,.52.48.59.59,0,0,1-.17.65A6.84,6.84,0,0,1,54,2.78a6.73,6.73,0,0,0-2.36,1.33A7.2,7.2,0,0,1,50,5a10.87,10.87,0,0,0-2.59,1.68,11.83,11.83,0,0,1-1,.76,8.73,8.73,0,0,1-1.36.87,2.6,2.6,0,0,0-1,.83,2.53,2.53,0,0,1-2,.88,19.23,19.23,0,0,1-2.27-.09,1.81,1.81,0,0,0-1.31.33c-.57.42-1.22.76-1.37,1.55,0,0-.11.07-.18.09a1.05,1.05,0,0,0-.85,1.06s0,.11,0,.13c-.39.32-.53.9-1.07,1a18.05,18.05,0,0,1-1.81.34,4.39,4.39,0,0,0-2.16,1c-.05,0-.08.12-.14.15a2.1,2.1,0,0,0-1,1.66,11.47,11.47,0,0,0-.38,4.2,2.75,2.75,0,0,1,0,.64,2.72,2.72,0,0,0,.64,2c.38.43.22.66-.34.81a16,16,0,0,0-1.89.72c-.11,0-.17.19-.26.29l-.56.62c.4.4.2.81-.06,1.22a4.25,4.25,0,0,1-1.78,1.44c-.4.21-.76.5-1.16.71a.75.75,0,0,1-.37.08Z"/>
</svg>
