<svg xmlns="http://www.w3.org/2000/svg" viewBox="0 0 13.45 13.45"><defs><style>.cls-1{fill:#fff;}</style></defs><g id="Layer_2" data-name="Layer 2"><g id="Layer_1-2" data-name="Layer 1"><path class="cls-1" d="M6.78,8.85A2.13,2.13,0,1,1,8.9,6.72,2.13,2.13,0,0,1,6.78,8.85Zm0-5.44a3.32,3.32,0,1,0,3.31,3.31A3.31,3.31,0,0,0,6.78,3.41Z"/><path class="cls-1" d="M4,1.27A2.77,2.77,0,0,0,1.27,4V9.41A2.78,2.78,0,0,0,4,12.19H9.41a2.78,2.78,0,0,0,2.77-2.78V4A2.77,2.77,0,0,0,9.41,1.27ZM9.41,13.45H4a4,4,0,0,1-4-4V4A4,4,0,0,1,4,0H9.41a4,4,0,0,1,4,4V9.41A4,4,0,0,1,9.41,13.45Z"/></g></g></svg>