<svg xmlns="http://www.w3.org/2000/svg" xmlns:xlink="http://www.w3.org/1999/xlink" viewBox="0 0 42.2 42.2">
  <g id="calendar">
    <path class="cls-5" d="M9,42.1c-3.88,0-6.07-.37-7.46-1.74C-.41,38.44-.23,35,.12,28A236.24,236.24,0,0,0,.31,3,3.08,3.08,0,0,1,3.41-.1H39a3.06,3.06,0,0,1,3.09,3V38.77a3.06,3.06,0,0,1-3.09,3h0c-10.42-.32-18,0-23.62.14C12.83,42,10.74,42.1,9,42.1ZM3.41,1.52A1.42,1.42,0,0,0,2,2.92,244.24,244.24,0,0,1,1.78,28.1c-.32,6.26-.5,9.71.93,11.13s5.21,1.35,12.59,1.09c5.59-.2,13.25-.47,23.72-.15a1.42,1.42,0,0,0,1.43-1.4V2.92A1.43,1.43,0,0,0,39,1.52Z" transform="translate(0.1 0.1)"/>
    <path class="cls-5" d="M28,11H14.44a.81.81,0,1,1,0-1.62H28A.81.81,0,1,1,28,11Z" transform="translate(0.1 0.1)"/>
    <path class="cls-5" d="M40.62,11H32.93a.81.81,0,1,1,0-1.61h7.69a.81.81,0,1,1,0,1.61Z" transform="translate(0.1 0.1)"/>
    <path class="cls-5" d="M9.5,11H1.81a.81.81,0,1,1,0-1.61H9.5A.81.81,0,1,1,9.5,11Z" transform="translate(0.1 0.1)"/>
    <path class="cls-5" d="M12.16,14.52a3.31,3.31,0,0,1-2.36-.7,2,2,0,0,1-.58-1.48,1.1,1.1,0,0,1,0-.18,7.87,7.87,0,0,0,0-1.44C9.11,9.14,9,7.34,9.94,6.4a2,2,0,0,1,1.51-.55h.13a4.13,4.13,0,0,1,3,.68A2,2,0,0,1,15.16,8a.57.57,0,0,1,0,.18,8.08,8.08,0,0,0,0,1.44c.1,1.59.22,3.38-.72,4.32A2,2,0,0,1,13,14.5H12.8Zm-1.29-2.09c0,.17.06.22.09.24.28.27,1.25.24,1.78.22H13c.19,0,.23,0,.26-.07.42-.42.31-2.09.25-3.08a8.49,8.49,0,0,1,0-1.82c0-.17-.06-.22-.08-.24-.28-.27-1.26-.23-1.79-.22h-.19c-.24,0-.29,0-.32.07-.43.43-.32,2.09-.25,3.09A7.71,7.71,0,0,1,10.87,12.43Z" transform="translate(0.1 0.1)"/>
    <path class="cls-5" d="M30.2,14.52a3.34,3.34,0,0,1-2.37-.7,1.91,1.91,0,0,1-.57-1.48.55.55,0,0,1,0-.18,8.09,8.09,0,0,0,0-1.44C27.15,9.14,27,7.34,28,6.4a1.91,1.91,0,0,1,1.52-.55h.12a4.15,4.15,0,0,1,3,.68A1.91,1.91,0,0,1,33.19,8a.55.55,0,0,1,0,.18,8.08,8.08,0,0,0,0,1.44c.1,1.59.22,3.38-.72,4.32A1.93,1.93,0,0,1,31,14.5h-.17Zm-1.29-2.09c0,.17.06.22.08.24.28.27,1.26.24,1.79.22H31c.2,0,.24,0,.26-.07.43-.42.32-2.09.25-3.08a7.79,7.79,0,0,1,0-1.82c0-.17-.06-.22-.08-.24-.29-.27-1.26-.23-1.79-.22h-.19c-.26,0-.3,0-.32.07-.43.43-.32,2.09-.25,3.09A7.71,7.71,0,0,1,28.91,12.43Z" transform="translate(0.1 0.1)"/>
    <path class="cls-5" d="M35.11,35.58H7.3a.82.82,0,0,1-.82-.81V18.44a.82.82,0,0,1,.82-.81H35.11a.82.82,0,0,1,.83.81V34.77A.82.82,0,0,1,35.11,35.58ZM8.13,34H34.28V19.24H8.13Z" transform="translate(0.1 0.1)"/>
    <path class="cls-5" d="M16.62,35.21a.82.82,0,0,1-.82-.81V18.81a.83.83,0,0,1,1.65,0V34.4A.82.82,0,0,1,16.62,35.21Z" transform="translate(0.1 0.1)"/>
    <path class="cls-5" d="M25.79,35.21A.82.82,0,0,1,25,34.4V18.81a.83.83,0,0,1,1.66,0V34.4A.82.82,0,0,1,25.79,35.21Z" transform="translate(0.1 0.1)"/>
    <path class="cls-5" d="M34.92,27.41H7.49a.81.81,0,1,1,0-1.61H34.92a.81.81,0,1,1,0,1.61Z" transform="translate(0.1 0.1)"/>
  </g>
</svg>
