<svg xmlns="http://www.w3.org/2000/svg" xmlns:xlink="http://www.w3.org/1999/xlink" viewBox="0 0 19.03 19.06">
  <g id="icon_search">
    <path d="M1276.76,317.23a6,6,0,1,1-6-6,6,6,0,0,1,6,6m5.19,11.18a.87.87,0,0,1-1.23,0l-5.77-5.77,1.26-1.19,5.74,5.74a.88.88,0,0,1,0,1.22m-7-16.53a6.61,6.61,0,0,0-5.49-1.28,6.43,6.43,0,0,0-3.8,2.26,6.76,6.76,0,0,0,1.52,10.06,6.65,6.65,0,0,0,5.21.89,6,6,0,0,0,1.82-.73l5.93,5.93a1.71,1.71,0,1,0,2.43-2.42l-5.93-5.93a6.8,6.8,0,0,0,.94-3.58,5.45,5.45,0,0,0-.19-1.45,6.61,6.61,0,0,0-2.44-3.75" transform="translate(-1264.02 -310.46)"/>
    <path d="M1275.3,317.22h0a4.47,4.47,0,0,1-1.31,3.19l0,0a4.47,4.47,0,0,1-3.25,1.29,4.52,4.52,0,0,1-3.11-7.69h0a4.52,4.52,0,0,1,7.69,3.19m-8.06-3.56h0a5,5,0,1,0,7.13,7.11h0a4.92,4.92,0,0,0,1.45-3.52h0a5,5,0,0,0-5-5.06,5.05,5.05,0,0,0-3.58,1.47" transform="translate(-1264.02 -310.46)"/>
    <path d="M1270.23,320.09a2.93,2.93,0,0,1-2.35-2.84c0-.11-.05-.29-.27-.28a.27.27,0,0,0-.26.3,2.68,2.68,0,0,0,.08.7,3.47,3.47,0,0,0,3.26,2.71h0c.33,0,.34-.19.34-.25s0-.27-.34-.29a2.15,2.15,0,0,1-.49-.05" transform="translate(-1264.02 -310.46)"/>
  </g>
</svg>
