<svg xmlns="http://www.w3.org/2000/svg" xmlns:xlink="http://www.w3.org/1999/xlink" viewBox="0 0 98.34 35.47">
<g id="icon_govbr">
<defs>
  <style>.cls-blue{fill:#0054a1;}.cls-yellow{fill:#fcac00;}.cls-green{fill:#4d9f35;}</style>
</defs>
<g>
  <path class="cls-blue" d="M6.84,17.65a4.43,4.43,0,0,0,0,.72,4.08,4.08,0,0,0,2.5,3.69,3.59,3.59,0,0,0,4-.89,5.4,5.4,0,0,0,.35-7c-1.47-1.71-5.07-2.12-6.36.91a5.52,5.52,0,0,0-.46,2.59M2.72,29.11a13.89,13.89,0,0,0,4.53,1.43,10.63,10.63,0,0,0,4.42-.24,4.49,4.49,0,0,0,3.25-4.05c.06-.67,0-1.34,0-2-.2,0-.26.13-.33.23-3.25,4.45-11.84,3.94-14-2.84a13.11,13.11,0,0,1,.35-9A7.41,7.41,0,0,1,7.77,7.84,7.25,7.25,0,0,1,14.62,11a1.73,1.73,0,0,0,.57.52c0-.83,0-1.65,0-2.47,0-.58.09-.83.75-.81,1.52.06,3,0,4.55,0,.46,0,.62.11.62.59,0,5.9,0,11.8-.05,17.7a10.32,10.32,0,0,1-.87,4c-1.17,2.73-3.43,4-6.19,4.52a23.13,23.13,0,0,1-10.93-.61c-.53-.16-.74-.34-.66-.95.16-1.42.21-2.86.32-4.41" transform="translate(0 0)"/>
  <path class="cls-blue" d="M73.84,22.72A3.37,3.37,0,0,0,77,20.85a6.34,6.34,0,0,0,.51-5,3.74,3.74,0,0,0-3.51-3,3.84,3.84,0,0,0-3.9,2.81,6.31,6.31,0,0,0-.2,3.5,4.18,4.18,0,0,0,3.94,3.48m10.63-3.95a11.87,11.87,0,0,1-2.26,6,8.11,8.11,0,0,1-11.8.73c-.41-.43-.68-1-1.18-1.63,0,1.09,0,1.95,0,2.82,0,.45-.11.62-.59.61q-2.4,0-4.8,0c-.46,0-.63-.11-.61-.59,0-.86,0-1.71,0-2.57,0-7.77,0-15.54,0-23.31,0-.69.18-.87.87-.85C65.72.05,67.35.05,69,0c.64,0,.84.15.83.81,0,3,0,6,0,8.93v.9c.34.07.41-.2.53-.34,2.64-3,9.16-3.64,12.22.86a12.49,12.49,0,0,1,1.93,5.21v2.4" transform="translate(0 0)"/>
  <path class="cls-yellow" d="M36.51,17.92a7.25,7.25,0,0,0-.57-3.11,3.81,3.81,0,0,0-3.66-2.36,3.69,3.69,0,0,0-3.68,2.3,7.44,7.44,0,0,0-.05,6,3.71,3.71,0,0,0,3.79,2.4A3.8,3.8,0,0,0,36,20.68a7.16,7.16,0,0,0,.52-2.76M32.27,8a11.46,11.46,0,0,1,8,2.72c4.44,3.88,4.29,13.22-2.86,16a13.32,13.32,0,0,1-10.9-.26c-4.06-1.89-5.58-5.85-5.21-9.73C21.86,11,26.42,8.23,31.2,8c.35,0,.71,0,1.07,0" transform="translate(0 0)"/>
  <path class="cls-green" d="M51.6,22c.82-2.87,1.61-5.58,2.38-8.3.46-1.58.91-3.17,1.37-4.75.08-.3.13-.6.62-.59,1.93,0,3.85,0,5.89,0-.33.94-.62,1.82-.94,2.68-1.87,5.17-3.76,10.32-5.61,15.49-.22.6-.46.86-1.16.84-1.95-.06-3.91,0-5.87,0a.67.67,0,0,1-.77-.52q-3.23-9-6.5-17.88c-.19-.51-.08-.61.42-.6,1.87,0,3.75,0,5.62,0,.62,0,.71.3.83.75q1.73,6.06,3.46,12.12c.06.2.14.41.26.77" transform="translate(0 0)"/>
  <path class="cls-yellow" d="M84.47,18.77v-2.4c.2-1.89,0-3.79.09-5.69,0-.74-.24-1.72.13-2.16s1.45-.14,2.21-.17c.94,0,1.88,0,2.81,0,.6,0,.75.2.73.76,0,.85,0,1.7,0,2.63.36-.15.42-.46.56-.69,1.64-2.85,3.86-3.38,6.8-3,.47.07.58.27.54.7C98.22,10.18,98.1,11.6,98,13c0,.47-.22.46-.57.42a11.57,11.57,0,0,0-1.56-.11,4.49,4.49,0,0,0-4.68,3.92,12.07,12.07,0,0,0-.18,2.55c0,2.28,0,4.57,0,6.85,0,.49-.1.68-.63.67-1.74,0-3.48,0-5.21,0-.58,0-.68-.21-.67-.72,0-2.31,0-4.63,0-6.94a2,2,0,0,0-.09-.9" transform="translate(0 0)"/>
  <path class="cls-blue" d="M59.5,27.68a3,3,0,0,1-3-3.12,3.08,3.08,0,0,1,6.15.08,3,3,0,0,1-3.11,3" transform="translate(0 0)"/>
</g>
</g>
</svg>
