<svg xmlns="http://www.w3.org/2000/svg" xmlns:xlink="http://www.w3.org/1999/xlink" viewBox="0 0 167 77.91"><defs><style>.cls-1{fill:none;}.cls-2{clip-path:url(#clip-path);}.cls-3{isolation:isolate;}.cls-4{clip-path:url(#clip-path-2);}.cls-5{fill:#fff;}</style><clipPath id="clip-path" transform="translate(0)"><rect class="cls-1" width="167" height="77.91"/></clipPath><clipPath id="clip-path-2" transform="translate(0)"><rect class="cls-1" y="-0.05" width="167" height="78"/></clipPath></defs><g id="Layer_2" data-name="Layer 2"><g id="Layer_1-2" data-name="Layer 1"><g class="cls-2"><g class="cls-3"><g class="cls-4"><path class="cls-5" d="M129.41,0c.36.07.72.15,1.08.21a.89.89,0,0,1,.75.7.83.83,0,0,1-.25.94,9.65,9.65,0,0,1-3.85,2.21A10,10,0,0,0,123.69,6a10.32,10.32,0,0,1-2.36,1.28,15.48,15.48,0,0,0-3.79,2.45q-.69.58-1.44,1.11a12.66,12.66,0,0,1-2,1.26,4,4,0,0,0-1.38,1.21,3.68,3.68,0,0,1-3,1.29,24.43,24.43,0,0,1-3.31-.13,2.68,2.68,0,0,0-1.92.48c-.82.62-1.78,1.11-2,2.27,0,.06-.16.1-.25.13a1.53,1.53,0,0,0-1.25,1.54c0,.07,0,.17,0,.2-.56.46-.77,1.3-1.55,1.49a21.7,21.7,0,0,1-2.65.5,6.5,6.5,0,0,0-3.15,1.47c-.08.06-.13.18-.21.22A3,3,0,0,0,92,25.19a16.5,16.5,0,0,0-.56,6.13,4.24,4.24,0,0,1,0,.94,3.87,3.87,0,0,0,.93,2.94c.55.64.31,1-.5,1.19a27,27,0,0,0-2.76,1c-.16.07-.25.28-.38.42l-.81.91c.58.58.28,1.18-.09,1.78a6.23,6.23,0,0,1-2.6,2.11c-.58.3-1.11.72-1.7,1a1.28,1.28,0,0,1-.8.09c-.75-.14-1.49-.38-2.25-.52-.48-.09-1-.07-1.47-.12a2.79,2.79,0,0,1-.42-.1l-.44.52-.16,0a6,6,0,0,1,.07-.61c.14-.63,0-.86-.62-1h-.11a3.78,3.78,0,0,1-2.6-.85,1.4,1.4,0,0,0-.6-.1l-1.7-.17L73.69,39a6.86,6.86,0,0,0-.68.18c-.55.21-1.11.41-1.64.66a1.63,1.63,0,0,1-1.71-.21A7,7,0,0,1,67.12,37a3.24,3.24,0,0,0-1.47-1.56c-.63-.24-1.34-.77-2.16-.31-.51.29-1.34-.12-1.77-.79l.3-.2c-.08-.28-.15-.49-.2-.71s0-.66-.21-.81a2.43,2.43,0,0,1-.82-2.07l-2.24.61a20.64,20.64,0,0,0-.7-2.14,5.73,5.73,0,0,0-2.42-2.23c-1-.63-2-1.17-3-1.73a2.28,2.28,0,0,0-.86-.34c-1.31-.15-1.83-1.18-2.45-2.12a2.33,2.33,0,0,1-.24-2,1.28,1.28,0,0,0-.2-.76c-.44-.78-.46-1.12,0-1.66a.94.94,0,0,1,1.11-.36,7.44,7.44,0,0,1,2.77,1.38,7.91,7.91,0,0,0,3.11,1.61,3.17,3.17,0,0,1,1,.47A11.8,11.8,0,0,0,60.39,23a23.33,23.33,0,0,1,2.35,1,3.74,3.74,0,0,0,.86.36,3.54,3.54,0,0,1,2.78,2.06,7.93,7.93,0,0,0,2.48,3.17,4.44,4.44,0,0,0,2.6.92,7.33,7.33,0,0,1,1.39.17,1,1,0,0,1,.54.37,1.29,1.29,0,0,0,1.2.58.88.88,0,0,1,.83,1.18c-.08.28-.22.54-.29.83-.18.67.19,1,.87.91a5.57,5.57,0,0,0,.79-.25c.65-.24.67-.25,1.36.09l-.63,1.52a3.48,3.48,0,0,1,.93,0c1.24.36,1.93-.38,2.62-1.22a4.18,4.18,0,0,1,.9-.65,15.57,15.57,0,0,1,.53-5.8,13,13,0,0,1,2.8-5.45,10.41,10.41,0,0,0,.68-.92,2.51,2.51,0,0,0,.51-1.76,8.61,8.61,0,0,1,0-.88,2.06,2.06,0,0,1,1.07-2A2.66,2.66,0,0,0,89.07,15a3.11,3.11,0,0,1,1-2.06,11,11,0,0,0,1.69-2.35A10,10,0,0,1,93.21,9a3.8,3.8,0,0,0,.47-.71c.48-1,.89-1.95,1.43-2.87a3,3,0,0,1,2.35-1.54.62.62,0,0,0,.62-.51A1,1,0,0,1,99,2.6c1.17-.15,2.34-.32,3.5-.52.41-.06.8-.25,1.2-.34a1.24,1.24,0,0,1,.66,0A3.84,3.84,0,0,0,106,2c.23,0,.56.43.69.73s.36.45.68.35a3,3,0,0,1,2.27,0,1.06,1.06,0,0,0,1-.19,2.33,2.33,0,0,1,2.14-.21,8.45,8.45,0,0,0,3.2.6,6.43,6.43,0,0,0,1.67-.25,11.26,11.26,0,0,1,2.6-.65,4.09,4.09,0,0,0,2.15-.83A3.61,3.61,0,0,1,125,1.1a2.87,2.87,0,0,0,1.41-.17c.83-.26,1.63-.61,2.44-.93Z" transform="translate(0)"/><path class="cls-5" d="M167,65.38c-.09.32-.17.65-.28,1A4.28,4.28,0,0,1,164,69.17a9,9,0,0,1-7.79-.55,4.26,4.26,0,0,1-2.33-3.78,1.18,1.18,0,0,1,.3-.07c1.06,0,2.12,0,3.18,0,.15,0,.4.14.41.24a2.06,2.06,0,0,0,1.76,1.75,3.89,3.89,0,0,0,2.84-.25,1.15,1.15,0,0,0,.78-1.07,1,1,0,0,0-.8-.91c-1.09-.34-2.2-.62-3.29-.94-.69-.19-1.38-.37-2-.62-2.65-1-3.08-3.32-2.19-5.48a4.19,4.19,0,0,1,2.74-2.31,7.59,7.59,0,0,1,6.9.59,4.33,4.33,0,0,1,2,3.66H163a.47.47,0,0,1-.3-.27,2,2,0,0,0-1.86-1.56,3.13,3.13,0,0,0-2.16.38,1.09,1.09,0,0,0-.62,1,.86.86,0,0,0,.71.8c1.11.34,2.24.61,3.35.95a19.29,19.29,0,0,1,2.83,1,3.22,3.22,0,0,1,1.92,2.56s.06.07.09.1Z" transform="translate(0)"/><polygon class="cls-5" points="167 72.69 165.14 72.69 165.14 77.49 163.4 77.49 163.4 72.7 161.6 72.7 161.6 71.43 167 71.43 167 72.69"/><path class="cls-5" d="M46.48,77.91a2.74,2.74,0,0,1-1.82-1.75,2.65,2.65,0,0,1,1.55-3.41A2.09,2.09,0,0,1,49,74.23h-.61a1.48,1.48,0,0,0-1.72-1,1.71,1.71,0,0,0-1.37,1.44,2.37,2.37,0,0,0,.32,1.94,1.58,1.58,0,0,0,1.73.67,1.43,1.43,0,0,0,1.07-1.41l-.85,0c0-.56.11-.6,1.47-.45v2.32h-.47c0-.21,0-.39,0-.47l-1.46.7Z" transform="translate(0)"/><path class="cls-5" d="M23.87,73.06a6,6,0,0,0-1.12.64,2.37,2.37,0,0,0,0,3.09,1.58,1.58,0,0,0,2.31,0A2.36,2.36,0,0,0,25,73.66a5.43,5.43,0,0,0-1.09-.6m-.36,4.85a3.24,3.24,0,0,1-1.61-1.12A3,3,0,0,1,22,73.57a2.32,2.32,0,0,1,2.65-.79,2.44,2.44,0,0,1,1.59,2.63,2.36,2.36,0,0,1-2.07,2.4c-.06,0-.11.07-.16.1Z" transform="translate(0)"/><path class="cls-5" d="M9.62,75.25c0-1.18-.66-2-1.62-2a1.81,1.81,0,0,0-1.76,2.11c0,1.15.67,1.93,1.59,2,1.07,0,1.79-.77,1.79-2M7.53,77.91a3.46,3.46,0,0,1-1.54-1,2.76,2.76,0,0,1,1-4,2.28,2.28,0,0,1,2.37.25,2.49,2.49,0,0,1,1,2.39,2.38,2.38,0,0,1-2.21,2.34s0,0-.06.08Z" transform="translate(0)"/><path class="cls-5" d="M81.68,77.91c-.25-.13-.52-.24-.76-.39a2.82,2.82,0,0,1-1-3.24,2.35,2.35,0,0,1,2.65-1.61,1.92,1.92,0,0,1,1.72,1.51c-.56.12-.56.12-.83-.33a1.54,1.54,0,0,0-2.28-.29,2.38,2.38,0,0,0,0,3.4,1.52,1.52,0,0,0,1.67.19,1.33,1.33,0,0,0,.79-1.32h-.83v-.48h1.43v2.33h-.41c0-.19,0-.36-.06-.46l-1.49.69Z" transform="translate(0)"/><path class="cls-5" d="M94.5,75.25c0,.14,0,.28,0,.42A1.76,1.76,0,0,0,96,77.28,1.62,1.62,0,0,0,97.78,76a2.57,2.57,0,0,0-.13-1.83,1.57,1.57,0,0,0-2-.85,1.91,1.91,0,0,0-1.12,1.94m1.38,2.66A2.77,2.77,0,0,1,94,76.43a2.71,2.71,0,0,1,1.33-3.63,2.28,2.28,0,0,1,2.39.41,2.56,2.56,0,0,1,.81,2.55,2.34,2.34,0,0,1-2.18,2.07s0,0-.06.08Z" transform="translate(0)"/><path class="cls-5" d="M136.83,75.24a1.89,1.89,0,0,0-1.12-1.93,1.45,1.45,0,0,0-1.67.36,2.33,2.33,0,0,0-.43,2.48,1.5,1.5,0,0,0,1.4,1.13c1.1.07,1.83-.75,1.82-2m-2,2.67A2.78,2.78,0,0,1,133,76.43a2.72,2.72,0,0,1,1.33-3.63,2.29,2.29,0,0,1,2.39.41,2.57,2.57,0,0,1,.81,2.55,2.34,2.34,0,0,1-2.19,2.07s0,0-.06.08Z" transform="translate(0)"/><path class="cls-5" d="M76,4.73c1.28.08,2.16.07,3,.21a6.92,6.92,0,0,1,3.21,1.52,1.65,1.65,0,0,1,.36.43C83.24,8,83.88,9,84.47,10.14a1.61,1.61,0,0,1,.19.91,6.87,6.87,0,0,0,0,3.25,1,1,0,0,1-.06.55c-.22.73-.48,1.45-.69,2.18a.76.76,0,0,1-.9.6.81.81,0,0,0-.75.33c-.7.72-1.42,1.43-2.16,2.12a.85.85,0,0,1-.5.19,9.08,9.08,0,0,0-1.18.1,2.07,2.07,0,0,0-.64.48c-.2.19-.36.46-.6.57a9.84,9.84,0,0,1-3.63.81,13.74,13.74,0,0,1-5.09-.83c-.09,0-.23-.1-.25-.17-.29-1.18-1.26-1.84-2-2.63a5.45,5.45,0,0,1-1.47-2.53,6.17,6.17,0,0,1,.84-5,1.65,1.65,0,0,1,.43-.35,1.25,1.25,0,0,1,.29-.11A6.39,6.39,0,0,0,70.1,7.47,3.05,3.05,0,0,1,71.61,6.1a8.81,8.81,0,0,0,1-.49C73.78,4.9,75,4.4,76,4.73" transform="translate(0)"/><path class="cls-5" d="M56.76,53.57v4.07h5a3.35,3.35,0,0,0,.88-.13,1.92,1.92,0,0,0,1.55-2.09,1.74,1.74,0,0,0-1.86-1.83c-1.84-.06-3.68,0-5.56,0m0,12.44c1.83,0,3.62,0,5.41,0a2.69,2.69,0,0,0,2.6-2.61A2.27,2.27,0,0,0,62.41,61c-1.77-.11-3.54-.07-5.31-.09-.12,0-.24,0-.36,0Zm-3.87,3.33V50.14h.48c2.91,0,5.81,0,8.72,0a9.57,9.57,0,0,1,2.61.37A4.67,4.67,0,0,1,68,54.61,3.89,3.89,0,0,1,67.26,58a11,11,0,0,1-1.35,1.12c0-.07,0,0,0,0a4.64,4.64,0,0,1,2.73,4.69,5.27,5.27,0,0,1-4.79,5.38,15.91,15.91,0,0,1-2.18.2c-2.82,0-5.64,0-8.45,0Z" transform="translate(0)"/><path class="cls-5" d="M15,55.85H11.52c-.11,0-.3-.15-.31-.25A3.29,3.29,0,0,0,8,53a4.89,4.89,0,0,0-2.64.4A2,2,0,0,0,4,55.15,1.8,1.8,0,0,0,5.28,57,32.38,32.38,0,0,0,8.5,58c1.22.34,2.46.59,3.67.95a4.85,4.85,0,0,1,3.47,5.55,5.73,5.73,0,0,1-4.27,4.87,10.84,10.84,0,0,1-8.58-.74A5.49,5.49,0,0,1,0,63.4H3.81a3.26,3.26,0,0,0,3.05,3.07A5.45,5.45,0,0,0,10.51,66a2,2,0,0,0,1.29-1.8,1.85,1.85,0,0,0-1.27-1.8,27.75,27.75,0,0,0-3-1c-1.16-.33-2.35-.59-3.51-.92A4.84,4.84,0,0,1,.29,55.29,5.32,5.32,0,0,1,4,50.22a9.1,9.1,0,0,1,8.37.76A5.63,5.63,0,0,1,15,55.85" transform="translate(0)"/><path class="cls-5" d="M46,62.38a20.68,20.68,0,0,0-.57-2.62A2.62,2.62,0,0,0,42.66,58a2.69,2.69,0,0,0-2.73,1.85,7.36,7.36,0,0,0-.39,1.92,5.34,5.34,0,0,0,.9,3.76,2.77,2.77,0,0,0,4.24.3A5,5,0,0,0,46,62.38m-.26-5.48V50.17h3.69V69.28H45.87V67.5c-.13.1-.2.12-.23.17-1.4,2.31-4.33,2.52-6.45,1.41a6.17,6.17,0,0,1-3.3-4.72,10.74,10.74,0,0,1,.48-6A5.42,5.42,0,0,1,43.28,55a4.5,4.5,0,0,1,2.16,1.56c.07.09.14.17.28.32" transform="translate(0)"/><path class="cls-5" d="M119.19,62.52c-.72.21-1.31.4-1.9.56s-1.43.31-2.1.57a1.9,1.9,0,0,0-1,2.41,1.61,1.61,0,0,0,2,.94c.12,0,.24,0,.36-.06,1.16-.32,2.25-.77,2.53-2.1a16.15,16.15,0,0,0,.15-2.32m.06,5.76a6.47,6.47,0,0,1-6.27,1c-2.06-.63-3-2.47-2.55-4.73a3.81,3.81,0,0,1,3.12-3.23c1.35-.31,2.73-.5,4.09-.75a3.72,3.72,0,0,0,.65-.19,1.1,1.1,0,0,0,.43-2,2.57,2.57,0,0,0-2.57-.6,2.11,2.11,0,0,0-1.67,1.73s0,.11,0,.16,0,0-.06.05h-3.5a4.42,4.42,0,0,1,3.06-4.47,9.21,9.21,0,0,1,5.64-.14A4.52,4.52,0,0,1,123,59.41c.1,3.11.08,6.23.11,9.34v.55h-3.54c-.11-.33-.23-.68-.33-1" transform="translate(0)"/><path class="cls-5" d="M77.85,62.53c-.69.21-1.3.4-1.91.56s-1.36.29-2,.54A1.88,1.88,0,0,0,72.87,66c.24.81,1,1.17,2,1l.26,0c2-.5,2.69-1.4,2.7-3V62.53m3.9,6.81c-1.08,0-2.15,0-3.22,0a.47.47,0,0,1-.32-.25c-.11-.24-.17-.51-.28-.84a4.66,4.66,0,0,1-2.59,1.26,6.23,6.23,0,0,1-4.85-.83,3.68,3.68,0,0,1-1.39-3.85c.36-2.25,1.56-3.31,4-3.72,1.06-.18,2.12-.34,3.18-.53a3.49,3.49,0,0,0,.7-.2,1.1,1.1,0,0,0,.44-1.93,2.57,2.57,0,0,0-2.56-.66,2.14,2.14,0,0,0-1.7,1.64.5.5,0,0,1-.35.32c-1.08,0-2.16,0-3.23,0a4.31,4.31,0,0,1,2.1-4.07A8.59,8.59,0,0,1,79,55.42a4.52,4.52,0,0,1,2.73,4.39c.08,3.11,0,6.23,0,9.34a1.08,1.08,0,0,1,0,.19" transform="translate(0)"/><path class="cls-5" d="M146,58a3,3,0,0,0-3.2,2.39,7.33,7.33,0,0,0,0,3.86,3.32,3.32,0,0,0,6.35,0,7.41,7.41,0,0,0,.1-3.41c-.39-1.94-1.43-2.8-3.28-2.8m7.23,4A7.54,7.54,0,0,1,151,68a6.92,6.92,0,0,1-4.78,1.72,6.83,6.83,0,0,1-6.3-3.06,8.16,8.16,0,0,1-1.16-5.24,7.13,7.13,0,0,1,2-4.71,7.36,7.36,0,0,1,6.1-1.91,6.46,6.46,0,0,1,4.88,2.53A7.51,7.51,0,0,1,153.25,62" transform="translate(0)"/><path class="cls-5" d="M83.19,55.15h3.6v2.07A5.19,5.19,0,0,1,90,54.89a4.79,4.79,0,0,1,5.41,1.89,5,5,0,0,1,.69,2.74c0,3.18,0,6.37,0,9.55,0,.07,0,.13,0,.23H92.27v-.59c0-2.8,0-5.6,0-8.4,0-1.56-.59-2.23-1.82-2.35-1.82-.17-3,.45-3.3,1.88a7.41,7.41,0,0,0-.18,1.76c0,2.55,0,5.11,0,7.7H83.19Z" transform="translate(0)"/><path class="cls-5" d="M25.72,69.28H22V55.15h3.58v1.64l1.29-1a5.34,5.34,0,0,1,6.59.09,4.05,4.05,0,0,1,1.34,3c0,3.41,0,6.82,0,10.23,0,.07,0,.13,0,.22H31.06v-.57c0-2.82,0-5.64,0-8.45,0-1.75-.8-2.43-2.56-2.35a2.47,2.47,0,0,0-2.67,2.53c-.1,1.84-.06,3.68-.08,5.53,0,1.09,0,2.18,0,3.3" transform="translate(0)"/><path class="cls-5" d="M110,60.24c-1.2,0-2.36,0-3.52,0-.11,0-.26-.22-.31-.37A2.55,2.55,0,0,0,104.36,58a2.48,2.48,0,0,0-2.9,1.38,7,7,0,0,0,0,5.9,2.29,2.29,0,0,0,2.46,1.37,2.54,2.54,0,0,0,2.23-2l.12-.45H110a6,6,0,0,1-1.28,3.16c-2.24,2.84-7,3.3-9.61.92a6.64,6.64,0,0,1-2-4.07,11,11,0,0,1,.51-5.54c1.2-3.1,3.8-4.12,6.76-3.89a6.15,6.15,0,0,1,4.46,2.16,5.24,5.24,0,0,1,1.2,3.31" transform="translate(0)"/><path class="cls-5" d="M132.72,54.68v3.89h-1.45a2.87,2.87,0,0,0-3,3.13c0,2.33,0,4.66,0,7v.61h-3.74V55.17H128v1.52a11.62,11.62,0,0,1,2.09-1.49,12.5,12.5,0,0,1,2.59-.52" transform="translate(0)"/><rect class="cls-5" x="133.87" y="55.16" width="3.74" height="14.15"/><rect class="cls-5" x="16.71" y="55.14" width="3.7" height="14.14"/><path class="cls-5" d="M155.06,71.42h1.69v3c0,.27,0,.55,0,.83a1.2,1.2,0,1,0,2.4,0c0-1.1,0-2.19,0-3.29v-.53h1.69c0,.17,0,.33,0,.5,0,1.13,0,2.26,0,3.39a2,2,0,0,1-2.06,2.31,7.81,7.81,0,0,1-2.26-.12,1.69,1.69,0,0,1-1.49-1.69c0-1.45,0-2.91,0-4.39" transform="translate(0)"/><path class="cls-5" d="M154.18,75.42c-.19,1.49-1.59,2.4-3.47,2.28a3.25,3.25,0,0,1,.07-6.47c1.87-.11,3.12.69,3.29,2.14-.53,0-1.07,0-1.6,0a.35.35,0,0,1-.26-.18,1.06,1.06,0,0,0-1.11-.69,1.33,1.33,0,0,0-1.18.83,2.66,2.66,0,0,0,0,2.21,1.37,1.37,0,0,0,1.35.89,1.15,1.15,0,0,0,1.15-1Z" transform="translate(0)"/><rect class="cls-5" x="133.86" y="49.95" width="3.73" height="3.49"/><rect class="cls-5" x="16.71" y="49.95" width="3.7" height="3.49"/><path class="cls-5" d="M127.7,73.32v3.84c1,0,2,.2,2.65-.74a2,2,0,0,0,.05-2.27c-.62-1-1.68-.79-2.7-.83M127,77.69v-5a19.42,19.42,0,0,1,2.78.24,2.2,2.2,0,0,1,1.56,2.6,2.23,2.23,0,0,1-2.17,2.12c-.7,0-1.42,0-2.17,0" transform="translate(0)"/><path class="cls-5" d="M70.43,75c.54,0,1.06,0,1.57,0a.77.77,0,0,0,.78-.75.71.71,0,0,0-.67-.83c-.56-.06-1.12-.06-1.68-.08Zm2.27.24c.54.16.63.57.63,1.05s.07.93.1,1.4c-.66.12-.72.08-.75-.64-.06-1.49-.06-1.49-1.53-1.49h-.72v2.15H69.8V72.8c.79,0,1.57,0,2.34,0a1.25,1.25,0,0,1,1.24.94c.14.56,0,1-.68,1.46" transform="translate(0)"/><path class="cls-5" d="M51.44,75c.56,0,1.08,0,1.59,0a.76.76,0,0,0,.76-.77.69.69,0,0,0-.65-.79c-.56-.07-1.12-.07-1.7-.1Zm-.65,2.71V72.81c.82,0,1.63,0,2.44,0a1.21,1.21,0,0,1,1.17,1c.13.53-.09,1-.7,1.43.57.17.63.61.63,1.1s.07.89.11,1.34c-.65.14-.73.09-.76-.63,0-1.49,0-1.49-1.56-1.49h-.68v2.15Z" transform="translate(0)"/><path class="cls-5" d="M12.58,75c.55,0,1.07,0,1.58,0a.75.75,0,0,0,.77-.75.71.71,0,0,0-.68-.82c-.54-.06-1.09-.06-1.67-.09Zm2.25.24a.89.89,0,0,1,.65,1c0,.49.07,1,.11,1.48-.74.07-.74.07-.76-.7,0-1.45,0-1.45-1.51-1.45h-.73v2.15H12V72.82c.82,0,1.65,0,2.47,0a1.17,1.17,0,0,1,1.13,1c.11.52-.1,1-.72,1.39" transform="translate(0)"/><path class="cls-5" d="M90.39,73.41c-.36,1-.68,1.77-1,2.62h2c-.33-.86-.64-1.68-1-2.62m2.37,4.28H92c0-1.14-.8-1.17-1.65-1.07a1.07,1.07,0,0,1-.31,0c-.65-.12-1.09.08-1.22.79-.09.47-.48.25-.81.29.65-1.59,1.26-3.15,1.93-4.67.08-.19.49-.23.77-.35.7,1.73,1.36,3.34,2,5" transform="translate(0)"/><path class="cls-5" d="M141.87,76h2c-.33-.86-.65-1.68-1-2.6-.36,1-.68,1.77-1,2.6m-1.36,1.66c.66-1.6,1.28-3.15,1.93-4.69a.5.5,0,0,1,.4-.19c.15,0,.41.06.46.17.65,1.55,1.29,3.11,1.94,4.72h-.75c0-1.23-.87-1.13-1.71-1.07a1.45,1.45,0,0,1-.36,0c-.58-.1-1,.08-1.07.71-.08.47-.43.39-.84.35" transform="translate(0)"/><path class="cls-5" d="M31.61,73.41,30.6,76h2l-1-2.62M34,77.65c-.56.19-.8,0-.9-.5a.6.6,0,0,0-.77-.54,3.24,3.24,0,0,1-.88,0c-.71-.09-1.23,0-1.42.85,0,.15-.43.22-.66.33l-.07-.13c.63-1.55,1.25-3.11,1.9-4.65.05-.12.32-.21.49-.21a.55.55,0,0,1,.42.25c.64,1.52,1.26,3.06,1.89,4.6" transform="translate(0)"/><path class="cls-5" d="M122.4,76h2c-.33-.87-.65-1.69-1-2.6l-1,2.6m3.37,1.67h-.66l-.08-.08c-.39-1-.39-1-1.44-1a3.69,3.69,0,0,1-.47,0,1,1,0,0,0-1.32.82c0,.17-.42.25-.64.36a1.71,1.71,0,0,1-.11-.14l2-4.82c.6-.21.83,0,1,.56.55,1.43,1.15,2.84,1.74,4.29" transform="translate(0)"/><path class="cls-5" d="M1.32,75.3H2c.22,0,.45,0,.67,0a.9.9,0,0,0,.92-.87.87.87,0,0,0-.78-1,13.87,13.87,0,0,0-1.46-.07Zm0,.55v1.83H.68V72.75a21.36,21.36,0,0,1,2.41.14c.86.14,1.19.74,1.11,1.66a1.38,1.38,0,0,1-1.35,1.27,6.78,6.78,0,0,1-.78,0c-.24,0-.48,0-.78,0" transform="translate(0)"/><path class="cls-5" d="M58.87,75.37h-2.1v1.75h2.45c0,.22,0,.38,0,.56H56.13V72.81H59.2v.5H56.78v1.45h2.09Z" transform="translate(0)"/><path class="cls-5" d="M75.13,72.8H78.2c0,.16,0,.3,0,.51H75.76v1.47h2.12c0,.2,0,.36,0,.59H75.76v1.76h2.46c0,.2,0,.36,0,.55H75.13Z" transform="translate(0)"/><path class="cls-5" d="M40.55,73.32v1.44h2.07v.61H40.55v1.77H43c0,.2,0,.35,0,.53H39.9V72.81h3v.51Z" transform="translate(0)"/><path class="cls-5" d="M63.62,75.36v1.78h2.46c0,.19,0,.34,0,.53H63V72.81h3v.52H63.63v1.44H65.7v.59Z" transform="translate(0)"/><path class="cls-5" d="M115.28,51.89c.42-.69.77-1.31,1.16-1.9a.5.5,0,0,1,.38-.17h3c-.61.72-1.16,1.36-1.73,2a.45.45,0,0,1-.29.08h-2.5" transform="translate(0)"/><polygon class="cls-5" points="110 74.77 110 75.35 107.82 75.35 107.82 77.68 107.19 77.68 107.19 72.82 110.25 72.82 110.25 73.32 107.83 73.32 107.83 74.77 110 74.77"/><polygon class="cls-5" points="20.28 72.81 20.28 73.32 18.84 73.32 18.84 77.68 18.19 77.68 18.19 73.36 16.73 73.36 16.73 72.81 20.28 72.81"/><polygon class="cls-5" points="114.48 72.8 115.07 72.8 115.07 77.14 117.57 77.14 117.57 77.68 114.48 77.68 114.48 72.8"/><path class="cls-5" d="M38.42,77.14v.54h-3.1V72.81l.59,0v4.36Z" transform="translate(0)"/><rect class="cls-5" x="111.9" y="72.81" width="0.58" height="4.88"/><rect class="cls-5" x="86.1" y="72.81" width="0.57" height="4.88"/><path class="cls-5" d="M119.69,72.78v4.9h-.6V72.81l.6,0" transform="translate(0)"/><path class="cls-5" d="M91.59,71.53c-.18.75-.46.9-1.09.65-.28-.12-.55-.31-.79.09,0,.06-.24,0-.38,0,.14-.67.43-.86,1-.67.33.11.65.33,1-.07,0-.05.19,0,.34,0" transform="translate(0)"/><path class="cls-5" d="M102.06,75.83h1.35v.42c-1.2.16-1.33.12-1.35-.42" transform="translate(0)"/><path class="cls-5" d="M143,72.4l-.84-1c.52-.07.52-.07,1,.85l-.12.12" transform="translate(0)"/></g></g></g></g></g></svg>