<svg xmlns="http://www.w3.org/2000/svg" viewBox="0 0 244.11 45">
  <defs>
    <style>.cls-1,.cls-2,.cls-3{fill:#fff;}.cls-2{opacity:0.1;}.cls-3{opacity:0.2;}</style>
  </defs>
  <g id="Layer_2" data-name="Layer 2">
    <path class="cls-1" d="M116,31.06c-3.32.67-7.28-.15-11.77-.89-1.7-.29-.89-2-.18-2.33s3.16.12,3.16.12c2.85.49,4.68.72,6.78.27,1.39-.3,3.2-.52,1.5-6A38.46,38.46,0,0,0,113.57,17a4.16,4.16,0,0,0-2.24-2,2.94,2.94,0,0,0-2.83.53c-1.33,1-4.1,6.8-4.81,8.24-.24.48-3.43,8-4.41,10.32,0,0-.83,2.56-2.92,1.92S95,33.94,95,33.94a56,56,0,0,1,2.62-5.57c1.12-2.15,7.69-14.76,9.8-16.25a4.84,4.84,0,0,1,4.46-.8,6.41,6.41,0,0,1,3.53,2.93,57.29,57.29,0,0,1,3,7.83C121.05,30.26,118.21,30.61,116,31.06Zm11.42-7.87a120.91,120.91,0,0,0-5.74-16.35,13.31,13.31,0,0,0-7.1-6.26,10,10,0,0,0-9.26,1.36c-4.44,2.94-14,20.66-16.48,25-1.41,2.52-8.65,12.14-.37,14.84,8.79,2.86,25.79,1.07,33.44-.25C126.49,40.77,132.39,40.24,127.42,23.19Z"/>
    <path class="cls-2" d="M101.54,43.52c-4.94,0-9.67-.41-13.12-1.54a5.37,5.37,0,0,1-3.73-3.16l-.09-.25c-.24,2.74.68,5.2,4.46,6,5.67,1.14,14.32.08,21.83-1.41C107.87,43.36,104.66,43.52,101.54,43.52Z"/>
    <path class="cls-2" d="M89.36,25.67c3.21-5.78,11.72-21.13,15.86-23.88A12.5,12.5,0,0,1,108.31.28,10,10,0,0,0,101.11,3c-3.29,2.78-8.77,15.52-11.77,22.76Z"/>
    <path class="cls-3" d="M121.84,6.77a115,115,0,0,1,5.55,15.7,96.22,96.22,0,0,0-2-12.64,13.28,13.28,0,0,0-5.72-7.54A10.66,10.66,0,0,0,116,1,13.89,13.89,0,0,1,121.84,6.77Z"/>
    <path class="cls-3" d="M88,28c.28-.44.51-.81.67-1.09s.41-.75.67-1.22c1-1.88,2.65-4.77,4.48-7.91-2,2.32-3.67,4.28-4.57,5.34-1.73,2-9.42,8.9-4.86,13.33C84.66,33.39,86.77,30,88,28Z"/>
    <path class="cls-3" d="M122.31,41.68l-.36.06c-3.14.54-7.78,1.15-12.78,1.5,3.77.39,7.18.6,9.65.67,2.89.08,6.25.35,8-3.69A11.33,11.33,0,0,1,122.31,41.68Z"/>
    <path class="cls-1" d="M142.4,16.18a.48.48,0,0,0,.46-.6l-.32-1.2c-.11-.4-.24-.92-.4-1.55s-.26-1.09-.31-1.36q-.06.38-.27,1.26t-.72,2.85a.48.48,0,0,0,.46.6Zm1.67,4.12L143.72,19a.47.47,0,0,0-.46-.36h-2.83A.47.47,0,0,0,140,19l-.37,1.34a.47.47,0,0,1-.46.36h-2.23a.48.48,0,0,1-.45-.63l3.26-10a.48.48,0,0,1,.45-.33h3.26a.46.46,0,0,1,.45.33l3.31,10a.48.48,0,0,1-.45.63h-2.22A.49.49,0,0,1,144.07,20.3Z"/>
    <path class="cls-1" d="M148.59,20.18v-10a.47.47,0,0,1,.47-.47h2a.47.47,0,0,1,.47.47v7.61a.49.49,0,0,0,.48.48h3.26a.47.47,0,0,1,.48.47v1.44a.47.47,0,0,1-.48.47h-6.22A.47.47,0,0,1,148.59,20.18Z"/>
    <path class="cls-1" d="M161.87,20.65h-2a.48.48,0,0,1-.48-.47V12.6a.47.47,0,0,0-.47-.47h-1.73a.48.48,0,0,1-.47-.48V10.18a.47.47,0,0,1,.47-.47h7.35a.48.48,0,0,1,.48.47v1.47a.49.49,0,0,1-.48.48h-1.71a.47.47,0,0,0-.48.47v7.58A.47.47,0,0,1,161.87,20.65Z"/>
    <path class="cls-1" d="M172.6,20.65h-5.55a.48.48,0,0,1-.48-.47v-10a.48.48,0,0,1,.48-.47h5.55a.47.47,0,0,1,.47.47v1.43a.47.47,0,0,1-.47.47H170a.47.47,0,0,0-.48.48v.77a.47.47,0,0,0,.48.47h2.33a.48.48,0,0,1,.47.48V15.7a.48.48,0,0,1-.47.48H170a.47.47,0,0,0-.48.47v1.12a.47.47,0,0,0,.48.47h2.59a.48.48,0,0,1,.47.48v1.46A.47.47,0,0,1,172.6,20.65Z"/>
    <path class="cls-1" d="M178,14.45h.55c1,0,1.55-.46,1.55-1.37,0-.76-.5-1.13-1.52-1.13H178Zm0,2.7v3a.47.47,0,0,1-.48.47h-2a.47.47,0,0,1-.48-.47v-10a.47.47,0,0,1,.48-.47h3.11c3,0,4.46,1.07,4.46,3.23a3.13,3.13,0,0,1-1.46,2.7.47.47,0,0,0-.12.65l2.42,3.63a.47.47,0,0,1-.4.73h-2.19a.47.47,0,0,1-.41-.23l-2-3.51a.49.49,0,0,0-.42-.24A.47.47,0,0,0,178,17.15Z"/>
    <path class="cls-1" d="M195.32,20.65H192.2a.47.47,0,0,1-.42-.25l-3.86-7.46h-.07c.09,1.21.14,2.14.14,2.78v4.46a.47.47,0,0,1-.47.47h-1.67a.47.47,0,0,1-.48-.47v-10a.47.47,0,0,1,.48-.47H189a.47.47,0,0,1,.42.25l3.85,7.36h0c-.07-1.11-.1-2-.1-2.66V10.18a.47.47,0,0,1,.47-.47h1.69a.47.47,0,0,1,.47.47v10A.47.47,0,0,1,195.32,20.65Z"/>
    <path class="cls-1" d="M203.11,16.18a.48.48,0,0,0,.46-.6l-.32-1.2c-.11-.4-.24-.92-.4-1.55s-.26-1.09-.31-1.36c0,.25-.13.67-.26,1.26s-.36,1.46-.73,2.85a.48.48,0,0,0,.46.6Zm1.68,4.12L204.43,19a.47.47,0,0,0-.46-.36h-2.82a.47.47,0,0,0-.46.36l-.37,1.34a.47.47,0,0,1-.46.36h-2.23a.48.48,0,0,1-.45-.63l3.26-10a.48.48,0,0,1,.46-.33h3.25a.46.46,0,0,1,.45.33l3.31,10a.48.48,0,0,1-.45.63h-2.21A.47.47,0,0,1,204.79,20.3Z"/>
    <path class="cls-1" d="M213.65,20.65h-2a.47.47,0,0,1-.47-.47V12.6a.48.48,0,0,0-.48-.47H209a.49.49,0,0,1-.48-.48V10.18a.48.48,0,0,1,.48-.47h7.35a.47.47,0,0,1,.47.47v1.47a.48.48,0,0,1-.47.48H214.6a.47.47,0,0,0-.47.47v7.58A.48.48,0,0,1,213.65,20.65Z"/>
    <path class="cls-1" d="M218.83,9.71h2a.48.48,0,0,1,.48.48v10a.48.48,0,0,1-.48.48h-2a.48.48,0,0,1-.48-.48v-10A.47.47,0,0,1,218.83,9.71Z"/>
    <path class="cls-1" d="M230.21,9.71h2.29a.47.47,0,0,1,.45.62l-3.27,10a.49.49,0,0,1-.46.32h-2.79a.47.47,0,0,1-.45-.32l-3.26-10a.47.47,0,0,1,.45-.62h2.3a.46.46,0,0,1,.46.35l1.4,5.2a16.9,16.9,0,0,1,.51,2.57,11.49,11.49,0,0,1,.21-1.31c.1-.52.2-.94.28-1.23l1.42-5.23A.47.47,0,0,1,230.21,9.71Z"/>
    <path class="cls-1" d="M239.29,16.18a.48.48,0,0,0,.46-.6l-.32-1.2c-.11-.4-.24-.92-.4-1.55s-.26-1.09-.31-1.36q-.06.38-.27,1.26t-.72,2.85a.48.48,0,0,0,.46.6ZM241,20.3,240.61,19a.47.47,0,0,0-.46-.36h-2.83a.47.47,0,0,0-.45.36l-.37,1.34a.47.47,0,0,1-.46.36h-2.23a.48.48,0,0,1-.45-.63l3.26-10a.48.48,0,0,1,.45-.33h3.26a.46.46,0,0,1,.45.33l3.31,10a.48.48,0,0,1-.45.63h-2.22A.49.49,0,0,1,241,20.3Z"/>
    <path class="cls-1" d="M142.49,30.25a3.48,3.48,0,0,0-.6-2.24,2.2,2.2,0,0,0-1.8-.72h-.38a.48.48,0,0,0-.49.48v5.17a.49.49,0,0,0,.49.48h.17a2.4,2.4,0,0,0,2-.78A3.77,3.77,0,0,0,142.49,30.25Zm3.07-.11a5.61,5.61,0,0,1-1.51,4.22,5.78,5.78,0,0,1-4.24,1.49h-3.06a.48.48,0,0,1-.48-.49v-10a.48.48,0,0,1,.48-.48h3.31a5.73,5.73,0,0,1,4.07,1.35A5.1,5.1,0,0,1,145.56,30.14Z"/>
    <rect class="cls-1" x="147.52" y="24.9" width="2.97" height="10.95" rx="0.48"/>
    <path class="cls-1" d="M157.74,29.44h3.76a.47.47,0,0,1,.48.48V35a.5.5,0,0,1-.33.47,13.46,13.46,0,0,1-3.9.55,5.1,5.1,0,0,1-3.91-1.47,5.9,5.9,0,0,1-1.38-4.19A5.51,5.51,0,0,1,154,26.21a5.83,5.83,0,0,1,4.24-1.47,9.35,9.35,0,0,1,1.95.19,9.64,9.64,0,0,1,1.13.31.49.49,0,0,1,.29.64L161,27.29a.48.48,0,0,1-.62.27,5.93,5.93,0,0,0-2.17-.39,2.47,2.47,0,0,0-2,.84,3.65,3.65,0,0,0-.71,2.41,3.75,3.75,0,0,0,.64,2.34,2.25,2.25,0,0,0,1.85.8,6.56,6.56,0,0,0,.79-.05.49.49,0,0,0,.42-.48V32.2a.48.48,0,0,0-.48-.48h-1a.48.48,0,0,1-.48-.48V29.92A.47.47,0,0,1,157.74,29.44Z"/>
    <rect class="cls-1" x="164.21" y="24.9" width="2.97" height="10.95" rx="0.48"/>
    <path class="cls-1" d="M173.9,35.85h-2a.48.48,0,0,1-.48-.49V27.8a.48.48,0,0,0-.49-.48h-1.7a.49.49,0,0,1-.49-.49V25.38a.49.49,0,0,1,.49-.48h7.33a.49.49,0,0,1,.48.48v1.45a.49.49,0,0,1-.48.49h-1.7a.48.48,0,0,0-.49.48v7.56A.48.48,0,0,1,173.9,35.85Z"/>
    <path class="cls-1" d="M183.55,31.37a.49.49,0,0,0,.47-.61l-.31-1.19c-.11-.4-.25-.91-.4-1.55s-.26-1.09-.31-1.36q-.08.38-.27,1.26c-.12.51-.36,1.46-.72,2.84a.49.49,0,0,0,.47.61Zm1.69,4.12-.35-1.34a.48.48,0,0,0-.47-.35h-2.81a.48.48,0,0,0-.47.35l-.36,1.34a.49.49,0,0,1-.47.36H178.1a.49.49,0,0,1-.46-.64l3.26-10a.48.48,0,0,1,.46-.34h3.24a.48.48,0,0,1,.46.34l3.3,10a.49.49,0,0,1-.46.64h-2.19A.48.48,0,0,1,185.24,35.49Z"/>
    <path class="cls-1" d="M189.75,35.36v-10a.49.49,0,0,1,.48-.48h2a.49.49,0,0,1,.48.48V33a.49.49,0,0,0,.48.48h3.25a.48.48,0,0,1,.49.48v1.42a.49.49,0,0,1-.49.49h-6.21A.49.49,0,0,1,189.75,35.36Z"/>
    <path class="cls-1" d="M0,26.15V19.37H1.87q3.59,0,3.59,3.3a3.33,3.33,0,0,1-1,2.53,3.7,3.7,0,0,1-2.66.95Zm.79-6.06v5.34h1a2.87,2.87,0,0,0,2.07-.71,2.67,2.67,0,0,0,.75-2c0-1.73-.93-2.6-2.78-2.6Z"/>
    <path class="cls-1" d="M10.58,23.92H7.16a1.79,1.79,0,0,0,.44,1.25,1.46,1.46,0,0,0,1.14.44,2.39,2.39,0,0,0,1.51-.54v.73a2.82,2.82,0,0,1-1.69.46,2.08,2.08,0,0,1-1.62-.65,2.73,2.73,0,0,1-.58-1.86A2.63,2.63,0,0,1,7,21.91a2.05,2.05,0,0,1,1.59-.72,1.83,1.83,0,0,1,1.47.62,2.55,2.55,0,0,1,.52,1.71Zm-.79-.65a1.65,1.65,0,0,0-.33-1.05,1.09,1.09,0,0,0-.88-.37,1.28,1.28,0,0,0-.94.39,1.8,1.8,0,0,0-.47,1Z"/>
    <path class="cls-1" d="M11.46,26v-.84a2.25,2.25,0,0,0,1.4.47c.68,0,1-.23,1-.68a.58.58,0,0,0-.09-.33.91.91,0,0,0-.24-.24,1.43,1.43,0,0,0-.35-.18L12.77,24c-.21-.08-.4-.17-.56-.25a1.67,1.67,0,0,1-.41-.3,1.15,1.15,0,0,1-.25-.37,1.44,1.44,0,0,1-.08-.49,1.12,1.12,0,0,1,.16-.6,1.43,1.43,0,0,1,.41-.44,1.93,1.93,0,0,1,.6-.27,2.59,2.59,0,0,1,.68-.09,2.88,2.88,0,0,1,1.13.22v.79a2.16,2.16,0,0,0-1.23-.35,1.19,1.19,0,0,0-.39,0,.83.83,0,0,0-.3.14.66.66,0,0,0-.2.21.64.64,0,0,0-.07.28.71.71,0,0,0,.07.31.74.74,0,0,0,.2.23,1.29,1.29,0,0,0,.33.18l.43.18a5.12,5.12,0,0,1,.57.25,2.1,2.1,0,0,1,.44.29,1.08,1.08,0,0,1,.37.89,1.17,1.17,0,0,1-.16.62,1.26,1.26,0,0,1-.42.44,2,2,0,0,1-.61.26,2.84,2.84,0,0,1-.72.08A2.8,2.8,0,0,1,11.46,26Z"/>
    <path class="cls-1" d="M19.76,23.92H16.34a1.83,1.83,0,0,0,.43,1.25,1.49,1.49,0,0,0,1.15.44,2.38,2.38,0,0,0,1.5-.54v.73a2.8,2.8,0,0,1-1.69.46,2.07,2.07,0,0,1-1.61-.65,2.73,2.73,0,0,1-.59-1.86,2.67,2.67,0,0,1,.64-1.84,2.06,2.06,0,0,1,1.6-.72,1.83,1.83,0,0,1,1.47.62,2.61,2.61,0,0,1,.52,1.71Zm-.8-.65a1.59,1.59,0,0,0-.32-1.05,1.1,1.1,0,0,0-.89-.37,1.27,1.27,0,0,0-.93.39,1.74,1.74,0,0,0-.47,1Z"/>
    <path class="cls-1" d="M25,26.15h-.78V23.39c0-1-.37-1.54-1.12-1.54a1.21,1.21,0,0,0-1,.43,1.61,1.61,0,0,0-.38,1.11v2.76h-.78V21.31h.78v.8h0a1.76,1.76,0,0,1,1.59-.92,1.5,1.5,0,0,1,1.22.52A2.27,2.27,0,0,1,25,23.19Z"/>
    <path class="cls-1" d="M30.22,21.31l-1.93,4.84h-.76l-1.84-4.84h.85l1.23,3.52a2.63,2.63,0,0,1,.17.67h0a4.82,4.82,0,0,1,.15-.65l1.29-3.54Z"/>
    <path class="cls-1" d="M33.08,26.26a2.26,2.26,0,0,1-1.72-.67,2.53,2.53,0,0,1-.64-1.8,2.6,2.6,0,0,1,.67-1.91,2.37,2.37,0,0,1,1.8-.69,2.18,2.18,0,0,1,1.69.67,2.63,2.63,0,0,1,.61,1.85,2.61,2.61,0,0,1-.66,1.86A2.29,2.29,0,0,1,33.08,26.26Zm.05-4.41a1.48,1.48,0,0,0-1.18.51,2.06,2.06,0,0,0-.43,1.4A2,2,0,0,0,32,25.12a1.48,1.48,0,0,0,1.17.49,1.41,1.41,0,0,0,1.16-.49,2.08,2.08,0,0,0,.4-1.38,2.14,2.14,0,0,0-.4-1.4A1.41,1.41,0,0,0,33.13,21.85Z"/>
    <path class="cls-1" d="M37.5,26.15h-.77V19h.77Z"/>
    <path class="cls-1" d="M42.88,21.31,41,26.15h-.76l-1.83-4.84h.85l1.23,3.52a3.87,3.87,0,0,1,.17.67h0a3,3,0,0,1,.15-.65l1.28-3.54Z"/>
    <path class="cls-1" d="M44.11,20.08a.48.48,0,0,1-.35-.14.49.49,0,0,1-.15-.36.5.5,0,0,1,.15-.37.48.48,0,0,1,.35-.14.52.52,0,0,1,.36.14.5.5,0,0,1,.15.37.47.47,0,0,1-.15.35A.49.49,0,0,1,44.11,20.08Zm.38,6.07h-.78V21.31h.78Z"/>
    <path class="cls-1" d="M50.19,26.15h-.77v-.82h0a1.8,1.8,0,0,1-1.67.93,1.78,1.78,0,0,1-1.45-.65,2.62,2.62,0,0,1-.55-1.77,2.9,2.9,0,0,1,.6-1.92A2,2,0,0,1,48,21.19,1.56,1.56,0,0,1,49.4,22h0V19h.77ZM49.42,24v-.71a1.41,1.41,0,0,0-.39-1,1.3,1.3,0,0,0-1-.4,1.33,1.33,0,0,0-1.12.52,2.26,2.26,0,0,0-.41,1.44,2.07,2.07,0,0,0,.39,1.32,1.28,1.28,0,0,0,1.05.48,1.3,1.3,0,0,0,1-.47A1.73,1.73,0,0,0,49.42,24Z"/>
    <path class="cls-1" d="M53.79,26.26a2.26,2.26,0,0,1-1.72-.67,2.57,2.57,0,0,1-.64-1.8,2.64,2.64,0,0,1,.67-1.91,2.39,2.39,0,0,1,1.8-.69,2.18,2.18,0,0,1,1.69.67,2.63,2.63,0,0,1,.61,1.85,2.65,2.65,0,0,1-.65,1.86A2.33,2.33,0,0,1,53.79,26.26Zm.06-4.41a1.49,1.49,0,0,0-1.19.51,2.06,2.06,0,0,0-.43,1.4,2,2,0,0,0,.44,1.36,1.48,1.48,0,0,0,1.18.49A1.39,1.39,0,0,0,55,25.12a2.08,2.08,0,0,0,.41-1.38,2.14,2.14,0,0,0-.41-1.4A1.39,1.39,0,0,0,53.85,21.85Z"/>
    <path class="cls-1" d="M60.89,25.45h0v2.93h-.78V21.31h.78v.85h0a1.84,1.84,0,0,1,1.67-1,1.77,1.77,0,0,1,1.46.65,2.73,2.73,0,0,1,.53,1.75A3,3,0,0,1,64,25.53a2,2,0,0,1-1.62.73A1.62,1.62,0,0,1,60.89,25.45Zm0-1.95v.67a1.43,1.43,0,0,0,.39,1,1.38,1.38,0,0,0,2.09-.12,2.45,2.45,0,0,0,.4-1.5,1.91,1.91,0,0,0-.37-1.26,1.23,1.23,0,0,0-1-.46,1.37,1.37,0,0,0-1.09.47A1.73,1.73,0,0,0,60.87,23.5Z"/>
    <path class="cls-1" d="M67.81,26.26a2.25,2.25,0,0,1-1.71-.67,2.53,2.53,0,0,1-.64-1.8,2.64,2.64,0,0,1,.66-1.91,2.41,2.41,0,0,1,1.81-.69,2.2,2.2,0,0,1,1.69.67,2.68,2.68,0,0,1,.61,1.85,2.61,2.61,0,0,1-.66,1.86A2.31,2.31,0,0,1,67.81,26.26Zm.06-4.41a1.47,1.47,0,0,0-1.18.51,2.06,2.06,0,0,0-.44,1.4,2,2,0,0,0,.44,1.36,1.51,1.51,0,0,0,1.18.49A1.41,1.41,0,0,0,69,25.12a2.08,2.08,0,0,0,.4-1.38,2.14,2.14,0,0,0-.4-1.4A1.41,1.41,0,0,0,67.87,21.85Z"/>
    <path class="cls-1" d="M74,22.09a1.05,1.05,0,0,0-1.42.32,2.15,2.15,0,0,0-.33,1.27v2.47h-.78V21.31h.78v1h0a1.68,1.68,0,0,1,.51-.8,1.15,1.15,0,0,1,.76-.29,1.35,1.35,0,0,1,.46.07Z"/>
  </g>
</svg>
