<svg xmlns="http://www.w3.org/2000/svg" viewBox="0 0 65.53 65.53">
    <path id="player_media" d="M65.37,29.55a31.67,31.67,0,0,0-.47-3.18q-.32-1.57-.78-3.12c-.31-1-.67-2-1.08-3a32.18,32.18,0,0,0-1.38-2.91A29.58,29.58,0,0,0,60,14.56,31.94,31.94,0,0,0,58.09,12c-.68-.83-1.4-1.62-2.15-2.38s-1.56-1.48-2.39-2.16S51.86,6.12,51,5.52a31.92,31.92,0,0,0-2.76-1.65,30.78,30.78,0,0,0-2.9-1.38q-1.5-.62-3-1.08T39.16.63A30.85,30.85,0,0,0,36,.16a32.38,32.38,0,0,0-6.43,0,31.67,31.67,0,0,0-3.18.47q-1.57.31-3.12.78c-1,.31-2,.67-3,1.08a33.53,33.53,0,0,0-5.67,3q-1.34.9-2.58,1.92c-.83.68-1.62,1.4-2.38,2.16S8.12,11.15,7.44,12s-1.32,1.69-1.92,2.58-1.14,1.81-1.65,2.76a32.18,32.18,0,0,0-1.38,2.91c-.41,1-.77,2-1.08,3S.84,25.32.63,26.37A33.17,33.17,0,0,0,0,32.77,31.36,31.36,0,0,0,.16,36a30.85,30.85,0,0,0,.47,3.18q.31,1.58.78,3.12t1.08,3a30.78,30.78,0,0,0,1.38,2.9Q4.64,49.63,5.52,51t1.92,2.58c.68.83,1.4,1.63,2.16,2.39s1.55,1.47,2.38,2.15A31.94,31.94,0,0,0,14.56,60a29.58,29.58,0,0,0,2.76,1.65A32.18,32.18,0,0,0,20.23,63c1,.41,2,.77,3,1.08s2.07.57,3.12.78a32.64,32.64,0,0,0,9.61.47,30.85,30.85,0,0,0,3.18-.47q1.58-.32,3.12-.78t3-1.08a30.78,30.78,0,0,0,2.9-1.38A29.58,29.58,0,0,0,51,60a31.94,31.94,0,0,0,2.58-1.92c.83-.68,1.63-1.4,2.39-2.15s1.47-1.56,2.15-2.39A31.94,31.94,0,0,0,60,51a29.58,29.58,0,0,0,1.65-2.76A30.78,30.78,0,0,0,63,45.31q.62-1.5,1.08-3t.78-3.12A30.85,30.85,0,0,0,65.37,36a32.38,32.38,0,0,0,0-6.43Zm-19.28,8-16.85,9.8a6,6,0,0,1-9-5.19V22.56a6,6,0,0,1,9-5.18l16.85,9.79A6,6,0,0,1,46.09,37.55Z"/>
</svg>
