<svg xmlns="http://www.w3.org/2000/svg" xmlns:xlink="http://www.w3.org/1999/xlink" viewBox="0 0 242.52 28.72"><defs><style>.cls-1{fill:none;}.cls-2{clip-path:url(#clip-path);}.cls-3{isolation:isolate;}.cls-4{clip-path:url(#clip-path-2);}.cls-5,.cls-6{fill:#fff;}.cls-6{font-size:10px;font-family:Roboto-Regular, Roboto;}</style><clipPath id="clip-path" transform="translate(0 0)"><rect class="cls-1" x="110.93" width="131.59" height="28.72"/></clipPath><clipPath id="clip-path-2" transform="translate(0 0)"><rect class="cls-1" x="110.7" width="132" height="28.75"/></clipPath></defs><g id="Layer_2" data-name="Layer 2"><g id="Layer_1-2" data-name="Layer 1"><g class="cls-2"><g class="cls-3"><g class="cls-4"><path class="cls-5" d="M114.8,13.48,126.16,2.12A1.24,1.24,0,0,0,124.41.36L111.29,13.48a1.24,1.24,0,0,0,0,1.75l13.12,13.12a1.24,1.24,0,0,0,1.75-1.75L114.8,15.23a1.23,1.23,0,0,1,0-1.75" transform="translate(0 0)"/><path class="cls-5" d="M132.58,15.32v2.39h1.08c1,0,1.45-.4,1.45-1.21a1.05,1.05,0,0,0-.39-.88,1.8,1.8,0,0,0-1.12-.3Zm0-2.26h.93a1.67,1.67,0,0,0,1-.27.93.93,0,0,0,.37-.81c0-.64-.49-1-1.45-1h-.87ZM129.5,8.69h4a6.76,6.76,0,0,1,3.45.69,2.34,2.34,0,0,1,1.13,2.15,2.73,2.73,0,0,1-.5,1.64,2.15,2.15,0,0,1-1.29.87v.08a2.66,2.66,0,0,1,1.54.93,2.89,2.89,0,0,1,.47,1.7,2.93,2.93,0,0,1-1.16,2.45,5.15,5.15,0,0,1-3.18.89H129.5Z" transform="translate(0 0)"/><path class="cls-5" d="M146.06,15.43l-.49-1.88c-.12-.41-.26-1-.42-1.61s-.27-1.13-.32-1.42c-.05.27-.14.7-.28,1.31s-.44,1.81-.92,3.6Zm1.2,4.66L146.7,18H143l-.57,2.14H139l3.72-11.45h4.11l3.77,11.45Z" transform="translate(0 0)"/><path class="cls-5" d="M162.72,20.09h-4l-4.17-8h-.07c.1,1.26.15,2.23.15,2.89v5.14h-2.73V8.69h4L160,16.61h.05c-.07-1.15-.11-2.07-.11-2.77V8.69h2.75Z" transform="translate(0 0)"/><path class="cls-5" d="M170.26,11.05a2,2,0,0,0-1.72.9,4.37,4.37,0,0,0-.61,2.49c0,2.19.83,3.29,2.5,3.29a5.17,5.17,0,0,0,1.47-.21,13.45,13.45,0,0,0,1.42-.51v2.61a7.87,7.87,0,0,1-3.22.63,5.08,5.08,0,0,1-4-1.5,6.17,6.17,0,0,1-1.38-4.33,6.82,6.82,0,0,1,.67-3.11,4.73,4.73,0,0,1,1.92-2.06,5.77,5.77,0,0,1,2.94-.73,8,8,0,0,1,3.53.81l-.94,2.42a13.19,13.19,0,0,0-1.26-.5,4.66,4.66,0,0,0-1.36-.2" transform="translate(0 0)"/><path class="cls-5" d="M181.34,15.43l-.49-1.88c-.11-.41-.25-1-.42-1.61s-.27-1.13-.32-1.42c-.05.27-.14.7-.28,1.31s-.44,1.81-.91,3.6Zm-2.88-7.65V7.55c.8-.86,1.31-1.41,1.53-1.66s.39-.48.53-.67h3.34v.16c-.41.33-1,.76-1.71,1.27s-1.28.89-1.66,1.13Zm4.08,12.31L182,18h-3.7l-.58,2.14h-3.39L178,8.64h4.12l3.76,11.45Z" transform="translate(0 0)"/><path class="cls-5" d="M190.22,13.62h.58c1.08,0,1.62-.47,1.62-1.42,0-.79-.53-1.18-1.59-1.18h-.61Zm0,2.32v4.15h-3.08V8.69h3.74q4.65,0,4.65,3.37a3.36,3.36,0,0,1-1.94,3.06l3.33,5h-3.5L191,15.94Z" transform="translate(0 0)"/><rect class="cls-5" x="197.95" y="8.69" width="3.1" height="11.4"/><path class="cls-5" d="M206.34,14.37c0,2.21.76,3.31,2.3,3.31a2,2,0,0,0,1.73-.8,4.39,4.39,0,0,0,.57-2.51,4.45,4.45,0,0,0-.57-2.52,2,2,0,0,0-1.72-.81q-2.31,0-2.31,3.33m7.84,0a6.17,6.17,0,0,1-1.41,4.38,6.41,6.41,0,0,1-8.25,0,6.13,6.13,0,0,1-1.43-4.38A6.08,6.08,0,0,1,204.52,10a6.45,6.45,0,0,1,8.26,0,6.12,6.12,0,0,1,1.4,4.37" transform="translate(0 0)"/><path class="cls-5" d="M223.7,16.63a3.34,3.34,0,0,1-.54,1.88,3.52,3.52,0,0,1-1.55,1.28,5.84,5.84,0,0,1-2.38.46,10.09,10.09,0,0,1-1.91-.16,7.55,7.55,0,0,1-1.61-.56V16.78a8.89,8.89,0,0,0,1.83.71,6.83,6.83,0,0,0,1.75.25,1.79,1.79,0,0,0,1-.23.75.75,0,0,0,.32-.62.74.74,0,0,0-.13-.41,1.76,1.76,0,0,0-.42-.35c-.19-.12-.69-.36-1.51-.73a7.34,7.34,0,0,1-1.68-1,3,3,0,0,1-.82-1.09,3.62,3.62,0,0,1-.27-1.46,2.89,2.89,0,0,1,1.15-2.45,5,5,0,0,1,3.15-.89,9,9,0,0,1,3.61.82l-.95,2.38A6.76,6.76,0,0,0,220,11a1.43,1.43,0,0,0-.87.21.63.63,0,0,0-.27.52.73.73,0,0,0,.34.6,12.8,12.8,0,0,0,1.89,1,5.23,5.23,0,0,1,2,1.42,3.07,3.07,0,0,1,.58,1.92" transform="translate(0 0)"/><path class="cls-5" d="M227.6,14h1.29a3,3,0,0,0,1.89-.48,1.75,1.75,0,0,0,.58-1.44,1.57,1.57,0,0,0-.63-1.39,3.45,3.45,0,0,0-1.9-.42H227.6Zm0,1.55v4.55h-1.87V8.69H229a5.23,5.23,0,0,1,3.27.83A3,3,0,0,1,233.28,12a3.12,3.12,0,0,1-2.21,3l3.22,5.05h-2.12l-2.73-4.55Z" transform="translate(0 0)"/><path class="cls-5" d="M242.52,17a2.88,2.88,0,0,1-1.1,2.39,4.8,4.8,0,0,1-3,.87,7.21,7.21,0,0,1-3.16-.6V17.88a8.27,8.27,0,0,0,1.65.58,7.09,7.09,0,0,0,1.64.21,2.59,2.59,0,0,0,1.63-.42,1.38,1.38,0,0,0,.53-1.13,1.41,1.41,0,0,0-.49-1.09,7.48,7.48,0,0,0-2-1.05,5.3,5.3,0,0,1-2.2-1.44,3,3,0,0,1-.64-1.95,2.76,2.76,0,0,1,1-2.25,4.27,4.27,0,0,1,2.73-.82,7.93,7.93,0,0,1,3.25.72l-.59,1.52a7.23,7.23,0,0,0-2.71-.64,2,2,0,0,0-1.37.4,1.27,1.27,0,0,0-.47,1,1.53,1.53,0,0,0,.18.76,2,2,0,0,0,.62.59,10.28,10.28,0,0,0,1.55.75,8.34,8.34,0,0,1,1.84,1,2.8,2.8,0,0,1,.85,1,3,3,0,0,1,.28,1.34" transform="translate(0 0)"/><polygon class="cls-5" points="226.21 24.43 225.73 24.43 225.73 22.3 227.05 22.3 227.05 22.67 226.21 22.67 226.21 23.22 226.99 23.22 226.99 23.59 226.21 23.59 226.21 24.43"/><polygon class="cls-5" points="228.78 24.43 227.46 24.43 227.46 22.3 228.78 22.3 228.78 22.67 227.95 22.67 227.95 23.14 228.72 23.14 228.72 23.51 227.95 23.51 227.95 24.05 228.78 24.05 228.78 24.43"/><polygon class="cls-5" points="230.11 24.43 229.62 24.43 229.62 22.68 229 22.68 229 22.3 230.73 22.3 230.73 22.68 230.11 22.68 230.11 24.43"/><path class="cls-5" d="M231.54,23.25h.16a.75.75,0,0,0,.34-.07.26.26,0,0,0,.1-.23.21.21,0,0,0-.11-.21.72.72,0,0,0-.34-.07h-.15Zm0,.36v.82h-.49V22.31h.67a1.26,1.26,0,0,1,.69.15.56.56,0,0,1,.23.48.48.48,0,0,1-.12.33.67.67,0,0,1-.31.23l.67.93h-.54l-.54-.82Z" transform="translate(0 0)"/><path class="cls-5" d="M234.26,23.54l-.26-.77c0-.06,0-.11,0-.14l-.3.91Zm.28.89-.17-.51h-.83l-.17.51h-.52l.81-2.13h.59l.81,2.13Z" transform="translate(0 0)"/><polygon class="cls-5" points="235.8 24.43 235.32 24.43 235.32 22.3 236.63 22.3 236.63 22.67 235.8 22.67 235.8 23.22 236.57 23.22 236.57 23.59 235.8 23.59 235.8 24.43"/><rect class="cls-5" x="237.05" y="22.3" width="0.49" height="2.12"/><rect class="cls-5" x="237.89" y="23.45" width="0.84" height="0.36"/><path class="cls-5" d="M239.57,23.25h.15a.69.69,0,0,0,.34-.07.27.27,0,0,0,.11-.23.22.22,0,0,0-.11-.21.74.74,0,0,0-.35-.07h-.14Zm0,.36v.82h-.49V22.31h.67a1.26,1.26,0,0,1,.69.15.55.55,0,0,1,.22.48.52.52,0,0,1-.11.33.67.67,0,0,1-.31.23c.34.48.56.79.67.93h-.54l-.55-.82Z" transform="translate(0 0)"/><path class="cls-5" d="M242.52,23.84a.53.53,0,0,1-.23.45,1,1,0,0,1-.62.16,1.67,1.67,0,0,1-.65-.12v-.42a2.59,2.59,0,0,0,.4.13,1,1,0,0,0,.29,0,.48.48,0,0,0,.24,0,.2.2,0,0,0,.09-.17.15.15,0,0,0,0-.11.27.27,0,0,0-.11-.1l-.3-.14a1.21,1.21,0,0,1-.31-.18.61.61,0,0,1-.17-.19.55.55,0,0,1-.06-.26.51.51,0,0,1,.21-.44.86.86,0,0,1,.57-.17,2,2,0,0,1,.34,0l.34.11-.16.35a1.88,1.88,0,0,0-.3-.09l-.24,0a.33.33,0,0,0-.21.06.19.19,0,0,0-.08.15.2.2,0,0,0,0,.11.27.27,0,0,0,.1.08,1.76,1.76,0,0,0,.31.15,1.28,1.28,0,0,1,.44.29.51.51,0,0,1,.12.35" transform="translate(0 0)"/></g></g></g><text class="cls-6" transform="translate(0 18.32)">POR</text><text class="cls-6" transform="translate(18.95 18.32)">T</text><text class="cls-6" transform="translate(24.53 18.32)">AL P</text><text class="cls-6" transform="translate(44.55 18.32)">ARCEIRO DO</text></g></g></svg>