<svg xmlns="http://www.w3.org/2000/svg" viewBox="0 0 420.66 115.65">
<g id="icon_spectrum">
<rect y="56.84" width="420.66" height="1.83"/>
<rect x="0.01" width="2.27" height="115.65"/>
<rect x="293.67" width="2.27" height="115.65"/>
<rect x="363.97" width="2.27" height="115.65"/>
<rect x="407.06" width="2.27" height="115.65"/>
<rect x="147.41" width="2.27" height="115.65"/>
<rect x="73.71" width="2.27" height="115.65"/>
<rect x="221.11" width="1.13" height="115.65"/>
<rect x="36.29" y="35.15" width="2.27" height="46.49"/>
<rect x="184.83" y="35.15" width="2.27" height="46.49"/>
<rect x="109.99" y="35.15" width="1.13" height="46.49"/>
<rect x="258.52" y="35.15" width="1.13" height="46.49"/>
<rect x="328.82" y="35.15" width="1.13" height="46.49"/>
<rect x="18.15" y="13.61" width="2.27" height="87.3"/>
<rect x="165.55" y="13.61" width="2.27" height="87.3"/>
<rect x="91.85" y="13.61" width="1.13" height="87.3"/>
<rect x="239.25" y="13.61" width="2.27" height="87.3"/>
<rect x="309.55" y="13.61" width="2.27" height="87.3"/>
<rect x="54.43" y="13.61" width="2.27" height="87.3"/>
<rect x="202.97" y="13.61" width="1.13" height="87.3"/>
<rect x="129.27" y="13.61" width="2.27" height="87.3"/>
<rect x="275.53" y="13.61" width="2.27" height="87.3"/>
<rect x="345.83" y="13.61" width="2.27" height="87.3"/>
<rect x="388.91" y="13.61" width="2.27" height="87.3"/>
<rect x="7.95" y="44.22" width="1.13" height="27.21"/>
<rect x="301.61" y="44.22" width="2.27" height="27.21"/>
<rect x="371.91" y="44.22" width="2.27" height="27.21"/>
<rect x="414.99" y="44.22" width="2.27" height="27.21"/>
<rect x="154.21" y="44.22" width="3.4" height="27.21"/>
<rect x="80.51" y="44.22" width="2.27" height="27.21"/>
<rect x="229.04" y="44.22" width="1.13" height="27.21"/>
<rect x="44.23" y="44.22" width="2.27" height="27.21"/>
<rect x="191.63" y="44.22" width="2.27" height="27.21"/>
<rect x="117.93" y="44.22" width="1.13" height="27.21"/>
<rect x="265.33" y="44.22" width="1.13" height="27.21"/>
<rect x="335.62" y="44.22" width="1.13" height="27.21"/>
<rect x="378.71" y="44.22" width="1.13" height="27.21"/>
<rect x="24.96" y="44.22" width="2.27" height="27.21"/>
<rect x="173.49" y="44.22" width="2.27" height="27.21"/>
<rect x="98.65" y="44.22" width="2.27" height="27.21"/>
<rect x="247.19" y="44.22" width="1.13" height="27.21"/>
<rect x="317.48" y="44.22" width="1.13" height="27.21"/>
<rect x="62.37" y="44.22" width="2.27" height="27.21"/>
<rect x="209.77" y="44.22" width="2.27" height="27.21"/>
<rect x="136.07" y="44.22" width="2.27" height="27.21"/>
<rect x="283.47" y="44.22" width="2.27" height="27.21"/>
<rect x="353.77" y="44.22" width="2.27" height="27.21"/>
<rect x="396.85" y="44.22" width="2.27" height="27.21"/>
<rect x="14.75" y="21.54" width="2.27" height="73.7"/>
<rect x="162.15" y="21.54" width="2.27" height="73.7"/>
<rect x="88.45" y="21.54" width="1.13" height="73.7"/>
<rect x="235.85" y="21.54" width="1.13" height="73.7"/>
<rect x="51.03" y="21.54" width="2.27" height="73.7"/>
<rect x="199.56" y="21.54" width="1.13" height="73.7"/>
<rect x="125.87" y="21.54" width="1.13" height="73.7"/>
<rect x="272.13" y="21.54" width="2.27" height="73.7"/>
<rect x="342.43" y="21.54" width="2.27" height="73.7"/>
<rect x="385.51" y="21.54" width="2.27" height="73.7"/>
<rect x="32.89" y="44.22" width="2.27" height="27.21"/>
<rect x="180.29" y="44.22" width="2.27" height="27.21"/>
<rect x="106.59" y="44.22" width="1.13" height="27.21"/>
<rect x="253.99" y="44.22" width="2.27" height="27.21"/>
<rect x="324.29" y="44.22" width="2.27" height="27.21"/>
<rect x="69.17" y="44.22" width="2.27" height="27.21"/>
<rect x="217.71" y="44.22" width="1.13" height="27.21"/>
<rect x="144.01" y="44.22" width="2.27" height="27.21"/>
<rect x="290.27" y="44.22" width="2.27" height="27.21"/>
<rect x="360.57" y="44.22" width="2.27" height="27.21"/>
<rect x="403.65" y="44.22" width="2.27" height="27.21"/>
<rect x="4.55" y="18.14" width="1.13" height="78.23"/>
<rect x="298.21" y="18.14" width="2.27" height="78.23"/>
<rect x="368.51" y="18.14" width="2.27" height="78.23"/>
<rect x="411.59" y="18.14" width="2.27" height="78.23"/>
<rect x="150.81" y="18.14" width="2.27" height="78.23"/>
<rect x="77.11" y="18.14" width="2.27" height="78.23"/>
<rect x="224.51" y="18.14" width="2.27" height="78.23"/>
<rect x="39.7" y="31.75" width="2.27" height="51.02"/>
<rect x="188.23" y="31.75" width="2.27" height="51.02"/>
<rect x="113.39" y="31.75" width="2.27" height="51.02"/>
<rect x="261.93" y="31.75" width="1.13" height="51.02"/>
<rect x="332.22" y="31.75" width="1.13" height="51.02"/>
<rect x="21.55" y="18.14" width="2.27" height="78.23"/>
<rect x="168.95" y="18.14" width="3.4" height="78.23"/>
<rect x="95.25" y="18.14" width="2.27" height="78.23"/>
<rect x="243.78" y="18.14" width="1.13" height="78.23"/>
<rect x="314.08" y="18.14" width="1.13" height="78.23"/>
<rect x="58.97" y="18.14" width="2.27" height="78.23"/>
<rect x="206.37" y="18.14" width="1.13" height="78.23"/>
<rect x="132.67" y="18.14" width="2.27" height="78.23"/>
<rect x="280.07" y="18.14" width="1.13" height="78.23"/>
<rect x="350.36" y="18.14" width="1.13" height="78.23"/>
<rect x="393.45" y="18.14" width="1.13" height="78.23"/>
<rect x="11.35" y="18.14" width="1.13" height="78.23"/>
<rect x="305.01" y="18.14" width="2.27" height="78.23"/>
<rect x="375.31" y="18.14" width="2.27" height="78.23"/>
<rect x="418.39" y="18.14" width="2.27" height="78.23"/>
<rect x="158.75" y="18.14" width="2.27" height="78.23"/>
<rect x="83.91" y="18.14" width="2.27" height="78.23"/>
<rect x="232.45" y="18.14" width="1.13" height="78.23"/>
<rect x="47.63" y="18.14" width="2.27" height="78.23"/>
<rect x="195.03" y="18.14" width="2.27" height="78.23"/>
<rect x="121.33" y="18.14" width="1.13" height="78.23"/>
<rect x="268.73" y="18.14" width="2.27" height="78.23"/>
<rect x="339.03" y="18.14" width="2.27" height="78.23"/>
<rect x="382.11" y="18.14" width="2.27" height="78.23"/>
<rect x="29.49" y="48.75" width="2.27" height="19.28"/>
<rect x="176.89" y="48.75" width="2.27" height="19.28"/>
<rect x="103.19" y="48.75" width="1.13" height="19.28"/>
<rect x="250.59" y="48.75" width="1.13" height="19.28"/>
<rect x="320.88" y="48.75" width="1.13" height="19.28"/>
<rect x="65.77" y="48.75" width="2.27" height="19.28"/>
<rect x="214.3" y="48.75" width="1.13" height="19.28"/>
<rect x="139.47" y="48.75" width="2.27" height="19.28"/>
<rect x="286.87" y="48.75" width="2.27" height="19.28"/>
<rect x="357.17" y="48.75" width="2.27" height="19.28"/>
<rect x="400.25" y="48.75" width="2.27" height="19.28"/>
</g>
</svg>
