<svg xmlns="http://www.w3.org/2000/svg" viewBox="0 0 46.24 46.25">
  <g id="icon_x">
    <path d="M1.33,1.33A5.27,5.27,0,0,1,2,.76,5.41,5.41,0,0,1,2.8.34,4.89,4.89,0,0,1,3.65.09,4.31,4.31,0,0,1,4.53,0a4.48,4.48,0,0,1,.89.09,5.16,5.16,0,0,1,.85.25,5.86,5.86,0,0,1,.78.42,4.75,4.75,0,0,1,.69.57L44.92,38.51a5.19,5.19,0,0,1,.56.68,4,4,0,0,1,.42.79,4.92,4.92,0,0,1,.26.85,5.14,5.14,0,0,1,.08.88,5.35,5.35,0,0,1-.08.89,5.2,5.2,0,0,1-.26.85,4.21,4.21,0,0,1-.42.78,4.3,4.3,0,0,1-1.25,1.25,4.9,4.9,0,0,1-.78.42,5.2,5.2,0,0,1-.85.26,5.35,5.35,0,0,1-.89.08,5.14,5.14,0,0,1-.88-.08A4.92,4.92,0,0,1,40,45.9a4.59,4.59,0,0,1-.79-.42,5.19,5.19,0,0,1-.68-.56L1.33,7.74a4.75,4.75,0,0,1-.57-.69,4.84,4.84,0,0,1-.41-.78,4.38,4.38,0,0,1-.26-.85A4.48,4.48,0,0,1,0,4.53a4.31,4.31,0,0,1,.09-.88A4.18,4.18,0,0,1,.35,2.8,4.55,4.55,0,0,1,.76,2,5.27,5.27,0,0,1,1.33,1.33Z"/>
    <path d="M1.33,44.92a4.75,4.75,0,0,1-.57-.69,5.3,5.3,0,0,1-.42-.78,5.16,5.16,0,0,1-.25-.85,4.4,4.4,0,0,1,0-1.77A4.89,4.89,0,0,1,.34,40a4.84,4.84,0,0,1,.42-.78,4.75,4.75,0,0,1,.57-.69L38.51,1.33a4.5,4.5,0,0,1,.68-.56A4,4,0,0,1,40,.35a4.18,4.18,0,0,1,.85-.26A4.31,4.31,0,0,1,41.71,0a4.48,4.48,0,0,1,.89.09,4.38,4.38,0,0,1,.85.26,4.21,4.21,0,0,1,.78.42,4.12,4.12,0,0,1,.69.56,4.69,4.69,0,0,1,.56.69,4.21,4.21,0,0,1,.42.78,5.2,5.2,0,0,1,.26.85,4.4,4.4,0,0,1,.08.89,4.37,4.37,0,0,1-.08.88,4.92,4.92,0,0,1-.26.85,3.66,3.66,0,0,1-.42.78,4.69,4.69,0,0,1-.56.69L7.74,44.92a4.12,4.12,0,0,1-.69.56,4.21,4.21,0,0,1-.78.42,4.45,4.45,0,0,1-2.62.26,4.18,4.18,0,0,1-.85-.26A4,4,0,0,1,2,45.48,4.5,4.5,0,0,1,1.33,44.92Z"/>
  </g>
</svg>
